STARTFONT 2.1
COMMENT
COMMENT Converted from OpenType font "Montserrat-Regular.otf" by "otf2bdf 3.0".
COMMENT
FONT -FreeType-Montserrat-Medium-R-Normal--23-220-75-75-P-123-ISO10646-1
SIZE 22 75 75
FONTBOUNDINGBOX 55 30 -19 -6
STARTPROPERTIES 19
FOUNDRY "FreeType"
FAMILY_NAME "Montserrat"
WEIGHT_NAME "Medium"
SLANT "R"
SETWIDTH_NAME "Normal"
ADD_STYLE_NAME ""
PIXEL_SIZE 23
POINT_SIZE 220
RESOLUTION_X 75
RESOLUTION_Y 75
SPACING "P"
AVERAGE_WIDTH 123
CHARSET_REGISTRY "ISO10646"
CHARSET_ENCODING "1"
FONT_ASCENT 22
FONT_DESCENT 5
COPYRIGHT "Copyright 2011 The Montserrat Project Authors (https://github.com/JulietaUla/Montserrat)"
_OTF_FONTFILE "Montserrat-Regular.otf"
_OTF_PSNAME "Montserrat-Regular"
ENDPROPERTIES
CHARS 969
STARTCHAR 0000
ENCODING 0
SWIDTH 0 0
DWIDTH 0 0
BBX 0 0 0 0
BITMAP
ENDCHAR
STARTCHAR 000D
ENCODING 13
SWIDTH 261 0
DWIDTH 6 0
BBX 0 0 0 0
BITMAP
ENDCHAR
STARTCHAR 0020
ENCODING 32
SWIDTH 261 0
DWIDTH 6 0
BBX 0 0 0 0
BITMAP
ENDCHAR
STARTCHAR 0021
ENCODING 33
SWIDTH 261 0
DWIDTH 6 0
BBX 2 16 2 0
BITMAP
C0
C0
C0
C0
C0
C0
C0
C0
C0
C0
C0
00
00
00
C0
C0
ENDCHAR
STARTCHAR 0022
ENCODING 34
SWIDTH 392 0
DWIDTH 9 0
BBX 5 6 2 10
BITMAP
88
88
88
88
88
88
ENDCHAR
STARTCHAR 0023
ENCODING 35
SWIDTH 698 0
DWIDTH 16 0
BBX 14 16 1 0
BITMAP
0C20
0820
0820
0820
FFFC
0820
0860
1860
1860
1040
1040
FFFC
1040
1040
1040
30C0
ENDCHAR
STARTCHAR 0024
ENCODING 36
SWIDTH 610 0
DWIDTH 14 0
BBX 12 22 1 -3
BITMAP
0200
0200
0200
1F80
3BE0
6220
4200
C200
4200
7200
3E00
07C0
0260
0230
0230
0230
C230
7BE0
1F80
0200
0200
0200
ENDCHAR
STARTCHAR 0025
ENCODING 37
SWIDTH 829 0
DWIDTH 19 0
BBX 17 16 1 0
BITMAP
380400
440C00
820800
821000
823000
822000
824000
44CE00
399100
012080
022080
062080
042080
082080
181100
100E00
ENDCHAR
STARTCHAR 0026
ENCODING 38
SWIDTH 654 0
DWIDTH 15 0
BBX 14 16 1 0
BITMAP
0F00
1880
30C0
3040
30C0
1980
0F00
1E00
3300
6188
C0D8
C070
C030
C070
71C8
1F04
ENDCHAR
STARTCHAR 0027
ENCODING 39
SWIDTH 218 0
DWIDTH 5 0
BBX 1 6 2 10
BITMAP
80
80
80
80
80
80
ENDCHAR
STARTCHAR 0028
ENCODING 40
SWIDTH 349 0
DWIDTH 8 0
BBX 4 22 2 -5
BITMAP
10
30
20
60
60
60
40
40
C0
C0
C0
C0
C0
C0
40
40
60
60
60
20
30
10
ENDCHAR
STARTCHAR 0029
ENCODING 41
SWIDTH 349 0
DWIDTH 8 0
BBX 4 22 1 -5
BITMAP
C0
40
60
60
20
30
30
30
30
10
10
10
10
30
30
30
30
20
60
60
40
C0
ENDCHAR
STARTCHAR 002A
ENCODING 42
SWIDTH 392 0
DWIDTH 9 0
BBX 8 8 0 9
BITMAP
08
08
6B
1C
3E
EB
08
08
ENDCHAR
STARTCHAR 002B
ENCODING 43
SWIDTH 567 0
DWIDTH 13 0
BBX 10 10 2 3
BITMAP
0800
0800
0800
0800
FFC0
0800
0800
0800
0800
0800
ENDCHAR
STARTCHAR 002C
ENCODING 44
SWIDTH 218 0
DWIDTH 5 0
BBX 3 5 1 -3
BITMAP
E0
E0
40
40
C0
ENDCHAR
STARTCHAR 002D
ENCODING 45
SWIDTH 392 0
DWIDTH 9 0
BBX 6 1 1 6
BITMAP
FC
ENDCHAR
STARTCHAR 002E
ENCODING 46
SWIDTH 218 0
DWIDTH 5 0
BBX 3 2 1 0
BITMAP
E0
C0
ENDCHAR
STARTCHAR 002F
ENCODING 47
SWIDTH 349 0
DWIDTH 8 0
BBX 8 22 0 -3
BITMAP
01
01
03
02
02
06
04
04
0C
08
18
18
10
30
30
20
60
40
40
C0
80
80
ENDCHAR
STARTCHAR 0030
ENCODING 48
SWIDTH 654 0
DWIDTH 15 0
BBX 13 16 1 0
BITMAP
0F80
1FE0
3060
6030
4010
C018
C018
C018
C018
C018
C018
4010
6030
3060
1FE0
0F80
ENDCHAR
STARTCHAR 0031
ENCODING 49
SWIDTH 349 0
DWIDTH 8 0
BBX 6 16 0 0
BITMAP
FC
0C
0C
0C
0C
0C
0C
0C
0C
0C
0C
0C
0C
0C
0C
0C
ENDCHAR
STARTCHAR 0032
ENCODING 50
SWIDTH 567 0
DWIDTH 13 0
BBX 11 16 1 0
BITMAP
3F00
FF80
80C0
0040
0040
0040
00C0
0180
0300
0600
0C00
1800
3000
6000
C000
FFE0
ENDCHAR
STARTCHAR 0033
ENCODING 51
SWIDTH 567 0
DWIDTH 13 0
BBX 12 16 0 0
BITMAP
7FE0
0060
00C0
0180
0100
0300
0600
07C0
00E0
0020
0030
0030
0030
C060
7FC0
1F80
ENDCHAR
STARTCHAR 0034
ENCODING 52
SWIDTH 654 0
DWIDTH 15 0
BBX 14 16 1 0
BITMAP
00C0
0180
0300
0300
0600
0C00
1800
1060
3060
6060
C060
FFFC
0060
0060
0060
0060
ENDCHAR
STARTCHAR 0035
ENCODING 53
SWIDTH 567 0
DWIDTH 13 0
BBX 11 16 1 0
BITMAP
7FC0
6000
6000
6000
6000
4000
4000
7F80
00C0
0060
0060
0060
0060
80E0
FFC0
3F00
ENDCHAR
STARTCHAR 0036
ENCODING 54
SWIDTH 610 0
DWIDTH 14 0
BBX 12 16 1 0
BITMAP
07E0
1EE0
3000
6000
6000
C000
C000
CFC0
F060
E030
E010
4010
6030
2030
38E0
0F80
ENDCHAR
STARTCHAR 0037
ENCODING 55
SWIDTH 610 0
DWIDTH 14 0
BBX 12 16 1 0
BITMAP
FFF0
8020
8060
8040
00C0
00C0
0180
0180
0300
0300
0200
0600
0400
0C00
0800
1800
ENDCHAR
STARTCHAR 0038
ENCODING 56
SWIDTH 654 0
DWIDTH 15 0
BBX 13 16 1 0
BITMAP
1F80
39E0
6030
4030
4030
6030
3060
1FC0
78E0
6030
C010
C018
C010
6030
78E0
1F80
ENDCHAR
STARTCHAR 0039
ENCODING 57
SWIDTH 610 0
DWIDTH 14 0
BBX 12 16 1 0
BITMAP
1F00
73C0
C040
C060
8060
8070
C070
60F0
3F30
0030
0020
0060
0060
00C0
6780
7E00
ENDCHAR
STARTCHAR 003A
ENCODING 58
SWIDTH 218 0
DWIDTH 5 0
BBX 3 12 1 0
BITMAP
C0
E0
00
00
00
00
00
00
00
00
E0
C0
ENDCHAR
STARTCHAR 003B
ENCODING 59
SWIDTH 218 0
DWIDTH 5 0
BBX 3 15 1 -3
BITMAP
C0
E0
00
00
00
00
00
00
00
00
E0
E0
40
40
C0
ENDCHAR
STARTCHAR 003C
ENCODING 60
SWIDTH 567 0
DWIDTH 13 0
BBX 10 9 2 3
BITMAP
00C0
0380
1E00
7000
C000
E000
3C00
0700
01C0
ENDCHAR
STARTCHAR 003D
ENCODING 61
SWIDTH 567 0
DWIDTH 13 0
BBX 10 6 2 5
BITMAP
FFC0
0000
0000
0000
0000
FFC0
ENDCHAR
STARTCHAR 003E
ENCODING 62
SWIDTH 567 0
DWIDTH 13 0
BBX 10 9 2 3
BITMAP
8000
E000
3C00
0700
01C0
03C0
0E00
7800
C000
ENDCHAR
STARTCHAR 003F
ENCODING 63
SWIDTH 567 0
DWIDTH 13 0
BBX 10 16 1 0
BITMAP
3F00
F380
80C0
0040
0040
00C0
0180
0300
0600
0400
0C00
0000
0000
0000
0C00
0C00
ENDCHAR
STARTCHAR 0040
ENCODING 64
SWIDTH 1047 0
DWIDTH 24 0
BBX 21 21 1 -5
BITMAP
01FC00
070380
0C00C0
100060
200030
61FD90
438788
420388
C60188
840188
840188
C40188
C60188
430388
418D90
60F8E0
300000
180000
0C0000
070600
01FC00
ENDCHAR
STARTCHAR 0041
ENCODING 65
SWIDTH 698 0
DWIDTH 16 0
BBX 16 16 0 0
BITMAP
0180
01C0
0340
0260
0660
0630
0C30
0C10
1818
1808
100C
3FFC
2006
6006
6003
C003
ENDCHAR
STARTCHAR 0042
ENCODING 66
SWIDTH 741 0
DWIDTH 17 0
BBX 13 16 3 0
BITMAP
FFC0
80E0
8030
8030
8030
8030
8060
FFC0
80F0
8018
8018
8018
8018
8018
80F0
FFC0
ENDCHAR
STARTCHAR 0043
ENCODING 67
SWIDTH 698 0
DWIDTH 16 0
BBX 14 16 1 0
BITMAP
07F0
1FFC
3804
7000
6000
4000
C000
C000
C000
C000
4000
6000
3000
380C
0FFC
03F0
ENDCHAR
STARTCHAR 0044
ENCODING 68
SWIDTH 829 0
DWIDTH 19 0
BBX 15 16 3 0
BITMAP
FF80
81E0
8038
8018
800C
8004
8006
8006
8006
8006
8004
800C
8018
8038
81E0
FF80
ENDCHAR
STARTCHAR 0045
ENCODING 69
SWIDTH 654 0
DWIDTH 15 0
BBX 11 16 3 0
BITMAP
FFE0
8000
8000
8000
8000
8000
8000
FFC0
8000
8000
8000
8000
8000
8000
8000
FFE0
ENDCHAR
STARTCHAR 0046
ENCODING 70
SWIDTH 654 0
DWIDTH 15 0
BBX 11 16 3 0
BITMAP
FFE0
8000
8000
8000
8000
8000
8000
8000
FFC0
8000
8000
8000
8000
8000
8000
8000
ENDCHAR
STARTCHAR 0047
ENCODING 71
SWIDTH 785 0
DWIDTH 18 0
BBX 15 16 1 0
BITMAP
07F0
1FFC
3804
7000
6000
4000
C000
C000
C006
C006
4006
6006
3006
3806
0FFC
03F0
ENDCHAR
STARTCHAR 0048
ENCODING 72
SWIDTH 829 0
DWIDTH 19 0
BBX 13 16 3 0
BITMAP
8018
8018
8018
8018
8018
8018
8018
FFF8
8018
8018
8018
8018
8018
8018
8018
8018
ENDCHAR
STARTCHAR 0049
ENCODING 73
SWIDTH 305 0
DWIDTH 7 0
BBX 1 16 3 0
BITMAP
80
80
80
80
80
80
80
80
80
80
80
80
80
80
80
80
ENDCHAR
STARTCHAR 004A
ENCODING 74
SWIDTH 480 0
DWIDTH 11 0
BBX 9 16 0 0
BITMAP
7F80
0180
0180
0180
0180
0180
0180
0180
0180
0180
0180
0180
0180
C180
7700
3E00
ENDCHAR
STARTCHAR 004B
ENCODING 75
SWIDTH 698 0
DWIDTH 16 0
BBX 13 16 3 0
BITMAP
8030
8060
80C0
8180
8300
8600
8C00
9C00
BE00
F700
E300
C180
80C0
8060
8030
8018
ENDCHAR
STARTCHAR 004C
ENCODING 76
SWIDTH 610 0
DWIDTH 14 0
BBX 10 16 3 0
BITMAP
8000
8000
8000
8000
8000
8000
8000
8000
8000
8000
8000
8000
8000
8000
8000
FFC0
ENDCHAR
STARTCHAR 004D
ENCODING 77
SWIDTH 960 0
DWIDTH 22 0
BBX 16 16 3 0
BITMAP
8001
C003
C007
E005
B00D
9009
9819
8811
8C31
8661
8641
83C1
8181
8181
8001
8001
ENDCHAR
STARTCHAR 004E
ENCODING 78
SWIDTH 829 0
DWIDTH 19 0
BBX 13 16 3 0
BITMAP
8018
C018
E018
B018
B818
9818
8C18
8618
8318
8398
8198
80D8
8078
8038
8038
8018
ENDCHAR
STARTCHAR 004F
ENCODING 79
SWIDTH 829 0
DWIDTH 19 0
BBX 17 16 1 0
BITMAP
03F000
0FFC00
380E00
300300
600300
400180
C00180
C00180
C00180
C00180
400180
600300
300300
380E00
0FFC00
03F000
ENDCHAR
STARTCHAR 0050
ENCODING 80
SWIDTH 698 0
DWIDTH 16 0
BBX 12 16 3 0
BITMAP
FF80
83C0
8060
8030
8030
8030
8030
8030
8060
83C0
FF80
8000
8000
8000
8000
8000
ENDCHAR
STARTCHAR 0051
ENCODING 81
SWIDTH 829 0
DWIDTH 19 0
BBX 18 19 1 -3
BITMAP
03F000
0FFC00
380E00
300300
600300
400180
C00180
C00180
C00180
C00180
400180
600300
700300
380600
1E3C00
07F000
006000
0030C0
001F80
ENDCHAR
STARTCHAR 0052
ENCODING 82
SWIDTH 741 0
DWIDTH 17 0
BBX 12 16 3 0
BITMAP
FF80
83C0
8060
8030
8030
8030
8030
8030
8060
81C0
FF80
8180
80C0
8060
8060
8030
ENDCHAR
STARTCHAR 0053
ENCODING 83
SWIDTH 610 0
DWIDTH 14 0
BBX 12 16 1 0
BITMAP
1F80
3DE0
6020
4000
C000
4000
7000
3E00
07C0
00E0
0030
0030
0030
C030
79E0
1F80
ENDCHAR
STARTCHAR 0054
ENCODING 84
SWIDTH 567 0
DWIDTH 13 0
BBX 13 16 0 0
BITMAP
FFF8
0200
0200
0200
0200
0200
0200
0200
0200
0200
0200
0200
0200
0200
0200
0200
ENDCHAR
STARTCHAR 0055
ENCODING 85
SWIDTH 785 0
DWIDTH 18 0
BBX 14 16 2 0
BITMAP
C00C
C00C
C00C
C00C
C00C
C00C
C00C
C00C
C00C
C00C
400C
4008
6018
3030
3FF0
0FC0
ENDCHAR
STARTCHAR 0056
ENCODING 86
SWIDTH 698 0
DWIDTH 16 0
BBX 16 16 0 0
BITMAP
C003
6002
6006
2004
300C
1008
1818
1818
0C30
0C30
0620
0660
0240
03C0
01C0
0180
ENDCHAR
STARTCHAR 0057
ENCODING 87
SWIDTH 1090 0
DWIDTH 25 0
BBX 23 16 1 0
BITMAP
C01802
C03806
403806
602C04
606C0C
20640C
304608
30C218
10C218
188310
198130
0981B0
0D01A0
0F00E0
0700E0
0600C0
ENDCHAR
STARTCHAR 0058
ENCODING 88
SWIDTH 654 0
DWIDTH 15 0
BBX 13 16 1 0
BITMAP
C018
6030
3020
3060
18C0
0D80
0700
0700
0700
0D80
18C0
18C0
3060
6030
C018
C018
ENDCHAR
STARTCHAR 0059
ENCODING 89
SWIDTH 654 0
DWIDTH 15 0
BBX 14 16 0 0
BITMAP
C004
600C
2018
3010
1830
1860
0C60
04C0
0680
0380
0300
0300
0300
0300
0300
0300
ENDCHAR
STARTCHAR 005A
ENCODING 90
SWIDTH 654 0
DWIDTH 15 0
BBX 13 16 1 0
BITMAP
FFF8
0018
0030
0060
00C0
0180
0180
0300
0600
0C00
1C00
1800
3000
6000
C000
FFF8
ENDCHAR
STARTCHAR 005B
ENCODING 91
SWIDTH 305 0
DWIDTH 7 0
BBX 4 22 3 -5
BITMAP
F0
80
80
80
80
80
80
80
80
80
80
80
80
80
80
80
80
80
80
80
80
F0
ENDCHAR
STARTCHAR 005C
ENCODING 92
SWIDTH 349 0
DWIDTH 8 0
BBX 9 22 -1 -3
BITMAP
C000
4000
4000
6000
2000
2000
3000
1000
1800
1800
0800
0C00
0C00
0400
0600
0600
0200
0300
0100
0100
0180
0080
ENDCHAR
STARTCHAR 005D
ENCODING 93
SWIDTH 305 0
DWIDTH 7 0
BBX 5 22 0 -5
BITMAP
F8
18
18
18
18
18
18
18
18
18
18
18
18
18
18
18
18
18
18
18
18
F8
ENDCHAR
STARTCHAR 005E
ENCODING 94
SWIDTH 567 0
DWIDTH 13 0
BBX 9 10 2 3
BITMAP
0C00
1C00
1400
3600
2200
2300
4100
4100
C080
8080
ENDCHAR
STARTCHAR 005F
ENCODING 95
SWIDTH 480 0
DWIDTH 11 0
BBX 11 1 0 -1
BITMAP
FFE0
ENDCHAR
STARTCHAR 0060
ENCODING 96
SWIDTH 610 0
DWIDTH 14 0
BBX 5 3 3 14
BITMAP
E0
30
18
ENDCHAR
STARTCHAR 0061
ENCODING 97
SWIDTH 610 0
DWIDTH 14 0
BBX 10 12 1 0
BITMAP
1F00
7380
40C0
0040
0040
3FC0
6040
C040
C040
C0C0
6340
3E40
ENDCHAR
STARTCHAR 0062
ENCODING 98
SWIDTH 698 0
DWIDTH 16 0
BBX 12 17 2 0
BITMAP
C000
C000
C000
C000
C000
CF80
D9E0
E060
E030
C010
C010
C010
C010
E030
E060
DDE0
CF80
ENDCHAR
STARTCHAR 0063
ENCODING 99
SWIDTH 567 0
DWIDTH 13 0
BBX 11 12 1 0
BITMAP
0F80
39C0
6060
4000
C000
C000
C000
C000
4000
6060
39C0
0F80
ENDCHAR
STARTCHAR 0064
ENCODING 100
SWIDTH 698 0
DWIDTH 16 0
BBX 12 17 1 0
BITMAP
0010
0010
0010
0010
0010
0F10
39D0
6070
4030
C030
C010
C010
C030
4030
6070
39D0
0F10
ENDCHAR
STARTCHAR 0065
ENCODING 101
SWIDTH 610 0
DWIDTH 14 0
BBX 12 12 1 0
BITMAP
1F00
39C0
6060
C020
C030
FFF0
C000
C000
4000
6020
3DE0
0F80
ENDCHAR
STARTCHAR 0066
ENCODING 102
SWIDTH 349 0
DWIDTH 8 0
BBX 8 17 0 0
BITMAP
0F
19
10
10
10
FF
10
10
10
10
10
10
10
10
10
10
10
ENDCHAR
STARTCHAR 0067
ENCODING 103
SWIDTH 698 0
DWIDTH 16 0
BBX 12 17 1 -5
BITMAP
0F90
39D0
6070
4030
C010
C010
C010
C010
4030
6070
39D0
0F90
0010
0030
4030
79E0
1F80
ENDCHAR
STARTCHAR 0068
ENCODING 104
SWIDTH 698 0
DWIDTH 16 0
BBX 11 17 2 0
BITMAP
C000
C000
C000
C000
C000
CF80
FDC0
E060
C060
C020
C020
C020
C020
C020
C020
C020
C020
ENDCHAR
STARTCHAR 0069
ENCODING 105
SWIDTH 261 0
DWIDTH 6 0
BBX 2 17 2 0
BITMAP
C0
C0
00
00
00
C0
C0
C0
C0
C0
C0
C0
C0
C0
C0
C0
C0
ENDCHAR
STARTCHAR 006A
ENCODING 106
SWIDTH 261 0
DWIDTH 6 0
BBX 6 22 -2 -5
BITMAP
0C
0C
00
00
00
0C
0C
0C
0C
0C
0C
0C
0C
0C
0C
0C
0C
0C
0C
0C
D8
F0
ENDCHAR
STARTCHAR 006B
ENCODING 107
SWIDTH 610 0
DWIDTH 14 0
BBX 11 17 2 0
BITMAP
C000
C000
C000
C000
C000
C060
C1C0
C300
C600
CC00
DC00
F600
E300
C180
C0C0
C0C0
C060
ENDCHAR
STARTCHAR 006C
ENCODING 108
SWIDTH 261 0
DWIDTH 6 0
BBX 2 17 2 0
BITMAP
C0
C0
C0
C0
C0
C0
C0
C0
C0
C0
C0
C0
C0
C0
C0
C0
C0
ENDCHAR
STARTCHAR 006D
ENCODING 109
SWIDTH 1047 0
DWIDTH 24 0
BBX 20 12 2 0
BITMAP
CF87C0
FBDFE0
E07030
C07030
C06030
C06010
C06010
C06010
C06010
C06010
C06010
C06010
ENDCHAR
STARTCHAR 006E
ENCODING 110
SWIDTH 698 0
DWIDTH 16 0
BBX 11 12 2 0
BITMAP
CF80
FDC0
E060
C060
C020
C020
C020
C020
C020
C020
C020
C020
ENDCHAR
STARTCHAR 006F
ENCODING 111
SWIDTH 610 0
DWIDTH 14 0
BBX 12 12 1 0
BITMAP
0F80
39C0
6060
4030
C030
C010
C010
C030
4030
6060
39C0
0F80
ENDCHAR
STARTCHAR 0070
ENCODING 112
SWIDTH 698 0
DWIDTH 16 0
BBX 12 17 2 -5
BITMAP
CF80
D9E0
E060
E030
C010
C010
C010
C010
E030
E060
DDE0
CF80
C000
C000
C000
C000
C000
ENDCHAR
STARTCHAR 0071
ENCODING 113
SWIDTH 698 0
DWIDTH 16 0
BBX 12 17 1 -5
BITMAP
0F10
39D0
6070
4030
C030
C010
C010
C030
4030
6070
39D0
0F10
0010
0010
0010
0010
0010
ENDCHAR
STARTCHAR 0072
ENCODING 114
SWIDTH 392 0
DWIDTH 9 0
BBX 6 12 2 0
BITMAP
CC
FC
E0
C0
C0
C0
C0
C0
C0
C0
C0
C0
ENDCHAR
STARTCHAR 0073
ENCODING 115
SWIDTH 480 0
DWIDTH 11 0
BBX 9 12 1 0
BITMAP
3F00
7380
C000
C000
C000
7800
1F00
0180
0080
8080
E380
7E00
ENDCHAR
STARTCHAR 0074
ENCODING 116
SWIDTH 392 0
DWIDTH 9 0
BBX 8 15 0 0
BITMAP
10
10
10
FF
10
10
10
10
10
10
10
10
10
19
0F
ENDCHAR
STARTCHAR 0075
ENCODING 117
SWIDTH 654 0
DWIDTH 15 0
BBX 11 12 2 0
BITMAP
C060
C060
C060
C060
C060
C060
C060
C060
C060
60E0
7BA0
1F20
ENDCHAR
STARTCHAR 0076
ENCODING 118
SWIDTH 523 0
DWIDTH 12 0
BBX 12 12 0 0
BITMAP
C010
4030
6020
2060
3040
30C0
1880
1980
0980
0D00
0700
0600
ENDCHAR
STARTCHAR 0077
ENCODING 119
SWIDTH 872 0
DWIDTH 20 0
BBX 20 12 0 0
BITMAP
C06030
406020
60F020
60D060
209040
3198C0
110880
190C80
1B0D80
0A0500
0E0700
040300
ENDCHAR
STARTCHAR 0078
ENCODING 120
SWIDTH 523 0
DWIDTH 12 0
BBX 10 12 1 0
BITMAP
C0C0
6080
2180
3300
1E00
0C00
0C00
1A00
3300
6180
40C0
C040
ENDCHAR
STARTCHAR 0079
ENCODING 121
SWIDTH 523 0
DWIDTH 12 0
BBX 12 17 0 -5
BITMAP
C010
4030
6020
2060
3040
30C0
18C0
1880
0980
0D00
0700
0600
0600
0600
0C00
D800
F000
ENDCHAR
STARTCHAR 007A
ENCODING 122
SWIDTH 523 0
DWIDTH 12 0
BBX 10 12 1 0
BITMAP
FFC0
0180
0100
0300
0600
0C00
1800
1800
3000
6000
C000
FFC0
ENDCHAR
STARTCHAR 007B
ENCODING 123
SWIDTH 349 0
DWIDTH 8 0
BBX 6 22 1 -5
BITMAP
1C
38
30
30
30
30
30
30
30
30
E0
30
30
30
30
30
30
30
30
30
38
1C
ENDCHAR
STARTCHAR 007C
ENCODING 124
SWIDTH 305 0
DWIDTH 7 0
BBX 1 22 3 -5
BITMAP
80
80
80
80
80
80
80
80
80
80
80
80
80
80
80
80
80
80
80
80
80
80
ENDCHAR
STARTCHAR 007D
ENCODING 125
SWIDTH 349 0
DWIDTH 8 0
BBX 6 22 0 -5
BITMAP
E0
30
10
10
10
10
10
10
10
18
1C
18
10
10
10
10
10
10
10
10
30
E0
ENDCHAR
STARTCHAR 007E
ENCODING 126
SWIDTH 567 0
DWIDTH 13 0
BBX 11 4 1 6
BITMAP
3820
6C60
4640
C380
ENDCHAR
STARTCHAR 00A0
ENCODING 160
SWIDTH 261 0
DWIDTH 6 0
BBX 0 0 0 0
BITMAP
ENDCHAR
STARTCHAR 00A1
ENCODING 161
SWIDTH 261 0
DWIDTH 6 0
BBX 2 16 2 -4
BITMAP
C0
C0
00
00
00
C0
C0
C0
C0
C0
C0
C0
C0
C0
C0
C0
ENDCHAR
STARTCHAR 00A2
ENCODING 162
SWIDTH 567 0
DWIDTH 13 0
BBX 11 18 1 -3
BITMAP
0200
0200
0200
1F80
3AC0
6260
4200
C200
C200
C200
C200
4200
6260
3AC0
1F80
0200
0200
0200
ENDCHAR
STARTCHAR 00A3
ENCODING 163
SWIDTH 654 0
DWIDTH 15 0
BBX 13 16 1 0
BITMAP
03F0
0FF8
1808
1000
3000
3000
3000
3000
FFC0
3000
3000
3000
3000
3000
3000
FFF8
ENDCHAR
STARTCHAR 00A4
ENCODING 164
SWIDTH 698 0
DWIDTH 16 0
BBX 14 14 1 0
BITMAP
C00C
6FD8
3870
2010
6018
4008
4008
4008
4008
6018
3030
7CF8
C7CC
8004
ENDCHAR
STARTCHAR 00A5
ENCODING 165
SWIDTH 698 0
DWIDTH 16 0
BBX 16 16 0 0
BITMAP
C003
6006
300C
1008
1818
0C30
0660
0640
03C0
3FFC
0180
0180
3FFC
0180
0180
0180
ENDCHAR
STARTCHAR 00A6
ENCODING 166
SWIDTH 305 0
DWIDTH 7 0
BBX 1 22 3 -5
BITMAP
80
80
80
80
80
80
80
80
00
00
00
00
00
00
80
80
80
80
80
80
80
80
ENDCHAR
STARTCHAR 00A7
ENCODING 167
SWIDTH 480 0
DWIDTH 11 0
BBX 9 19 1 -3
BITMAP
1F00
7180
4000
C000
4000
6000
7E00
C380
8180
8080
C080
7180
3F00
0300
0180
0180
8180
E300
7E00
ENDCHAR
STARTCHAR 00A8
ENCODING 168
SWIDTH 610 0
DWIDTH 14 0
BBX 6 2 4 14
BITMAP
CC
CC
ENDCHAR
STARTCHAR 00A9
ENCODING 169
SWIDTH 829 0
DWIDTH 19 0
BBX 16 16 1 0
BITMAP
07E0
1818
2004
63E2
4631
8C01
8801
8801
8801
8801
8C01
4631
43E2
2004
1818
07E0
ENDCHAR
STARTCHAR 00AA
ENCODING 170
SWIDTH 392 0
DWIDTH 9 0
BBX 7 7 1 10
BITMAP
78
84
06
7E
86
86
7E
ENDCHAR
STARTCHAR 00AB
ENCODING 171
SWIDTH 480 0
DWIDTH 11 0
BBX 9 9 1 2
BITMAP
1980
1100
2200
6600
CC00
4400
2200
3300
1980
ENDCHAR
STARTCHAR 00AC
ENCODING 172
SWIDTH 567 0
DWIDTH 13 0
BBX 10 5 2 4
BITMAP
FFC0
00C0
00C0
00C0
00C0
ENDCHAR
STARTCHAR 00AD
ENCODING 173
SWIDTH 392 0
DWIDTH 9 0
BBX 6 1 1 6
BITMAP
FC
ENDCHAR
STARTCHAR 00AE
ENCODING 174
SWIDTH 829 0
DWIDTH 19 0
BBX 16 16 1 0
BITMAP
07E0
1818
2004
67E2
4431
8411
8411
8411
8431
87E1
8421
4431
4412
2004
1818
07E0
ENDCHAR
STARTCHAR 00AF
ENCODING 175
SWIDTH 610 0
DWIDTH 14 0
BBX 7 1 3 15
BITMAP
FE
ENDCHAR
STARTCHAR 00B0
ENCODING 176
SWIDTH 436 0
DWIDTH 10 0
BBX 7 7 1 9
BITMAP
3C
46
82
82
82
46
3C
ENDCHAR
STARTCHAR 00B1
ENCODING 177
SWIDTH 567 0
DWIDTH 13 0
BBX 10 13 2 0
BITMAP
0800
0800
0800
0800
FFC0
0800
0800
0800
0800
0000
0000
0000
FFC0
ENDCHAR
STARTCHAR 00B2
ENCODING 178
SWIDTH 436 0
DWIDTH 10 0
BBX 8 10 1 7
BITMAP
7C
86
02
02
06
0C
18
30
40
FF
ENDCHAR
STARTCHAR 00B3
ENCODING 179
SWIDTH 436 0
DWIDTH 10 0
BBX 8 10 1 7
BITMAP
FE
04
0C
18
1C
02
03
03
82
7C
ENDCHAR
STARTCHAR 00B4
ENCODING 180
SWIDTH 610 0
DWIDTH 14 0
BBX 4 3 6 14
BITMAP
30
60
C0
ENDCHAR
STARTCHAR 00B5
ENCODING 181
SWIDTH 698 0
DWIDTH 16 0
BBX 11 17 2 -5
BITMAP
C020
C020
C020
C020
C020
C020
C020
C020
C060
E0E0
FBA0
DF20
C000
C000
C000
C000
C000
ENDCHAR
STARTCHAR 00B6
ENCODING 182
SWIDTH 610 0
DWIDTH 14 0
BBX 12 20 0 -3
BITMAP
1FF0
7E30
7E30
7E30
FE30
7E30
7E30
3E30
0630
0630
0630
0630
0630
0630
0630
0630
0630
0630
0630
0630
ENDCHAR
STARTCHAR 00B7
ENCODING 183
SWIDTH 261 0
DWIDTH 6 0
BBX 2 2 2 6
BITMAP
C0
C0
ENDCHAR
STARTCHAR 00B8
ENCODING 184
SWIDTH 610 0
DWIDTH 14 0
BBX 4 6 5 -6
BITMAP
40
60
30
10
30
E0
ENDCHAR
STARTCHAR 00B9
ENCODING 185
SWIDTH 436 0
DWIDTH 10 0
BBX 6 9 2 8
BITMAP
F0
10
10
10
10
10
10
10
FC
ENDCHAR
STARTCHAR 00BA
ENCODING 186
SWIDTH 392 0
DWIDTH 9 0
BBX 8 7 1 10
BITMAP
3C
C6
83
81
83
C2
3C
ENDCHAR
STARTCHAR 00BB
ENCODING 187
SWIDTH 480 0
DWIDTH 11 0
BBX 9 9 1 2
BITMAP
CC00
4400
6200
3300
1980
1100
2200
6600
CC00
ENDCHAR
STARTCHAR 00BC
ENCODING 188
SWIDTH 1047 0
DWIDTH 24 0
BBX 21 16 2 0
BITMAP
F00300
100200
100400
100C00
101800
101000
102040
1060C0
FC4080
008100
018320
010620
020420
060FF8
040020
080020
ENDCHAR
STARTCHAR 00BD
ENCODING 189
SWIDTH 1047 0
DWIDTH 24 0
BBX 20 16 2 0
BITMAP
F00300
100200
100400
100C00
101800
101000
1023E0
106430
FC4010
008030
018020
010040
020080
060100
040200
0807F0
ENDCHAR
STARTCHAR 00BE
ENCODING 190
SWIDTH 1047 0
DWIDTH 24 0
BBX 22 16 1 0
BITMAP
FE0180
040100
0C0200
180600
1C0C00
020800
031000
033060
822040
7C4080
00C180
008110
010210
0307FC
020010
040010
ENDCHAR
STARTCHAR 00BF
ENCODING 191
SWIDTH 567 0
DWIDTH 13 0
BBX 10 15 2 -3
BITMAP
0C00
0C00
0000
0000
0000
0C00
1800
3800
6000
C000
C000
8000
C040
E0C0
7F80
ENDCHAR
STARTCHAR 00C0
ENCODING 192
SWIDTH 698 0
DWIDTH 16 0
BBX 16 20 0 0
BITMAP
0600
0300
0080
0000
0180
01C0
0340
0260
0660
0630
0C30
0C10
1818
1808
100C
3FFC
2006
6006
6003
C003
ENDCHAR
STARTCHAR 00C1
ENCODING 193
SWIDTH 698 0
DWIDTH 16 0
BBX 16 20 0 0
BITMAP
0060
00C0
0180
0000
0180
01C0
0340
0260
0660
0630
0C30
0C10
1818
1808
100C
3FFC
2006
6006
6003
C003
ENDCHAR
STARTCHAR 00C2
ENCODING 194
SWIDTH 698 0
DWIDTH 16 0
BBX 16 20 0 0
BITMAP
01C0
0360
0430
0000
0180
01C0
0340
0260
0660
0630
0C30
0C10
1818
1808
100C
3FFC
2006
6006
6003
C003
ENDCHAR
STARTCHAR 00C3
ENCODING 195
SWIDTH 698 0
DWIDTH 16 0
BBX 16 20 0 0
BITMAP
0710
04B0
0060
0000
0180
01C0
0340
0260
0660
0630
0C30
0C10
1818
1808
100C
3FFC
2006
6006
6003
C003
ENDCHAR
STARTCHAR 00C4
ENCODING 196
SWIDTH 698 0
DWIDTH 16 0
BBX 16 20 0 0
BITMAP
0660
0660
0000
0000
0180
01C0
0340
0260
0660
0630
0C30
0C10
1818
1808
100C
3FFC
2006
6006
6003
C003
ENDCHAR
STARTCHAR 00C5
ENCODING 197
SWIDTH 698 0
DWIDTH 16 0
BBX 16 22 0 0
BITMAP
01C0
0240
0220
0240
0180
0000
0180
01C0
0340
0260
0660
0630
0C30
0C10
1818
1808
100C
3FFC
2006
6006
6003
C003
ENDCHAR
STARTCHAR 00C6
ENCODING 198
SWIDTH 1047 0
DWIDTH 24 0
BBX 22 16 0 0
BITMAP
003FFC
007800
00D800
009800
019800
031800
031800
061FF8
041800
0C1800
181800
1FF800
301800
201800
601800
C01FFC
ENDCHAR
STARTCHAR 00C7
ENCODING 199
SWIDTH 698 0
DWIDTH 16 0
BBX 14 22 1 -6
BITMAP
07F0
1FFC
3804
7000
6000
4000
C000
C000
C000
C000
4000
6000
3000
380C
0FFC
03F0
0080
0180
0040
0040
0040
0380
ENDCHAR
STARTCHAR 00C8
ENCODING 200
SWIDTH 654 0
DWIDTH 15 0
BBX 11 20 3 0
BITMAP
3000
1800
0400
0000
FFE0
8000
8000
8000
8000
8000
8000
FFC0
8000
8000
8000
8000
8000
8000
8000
FFE0
ENDCHAR
STARTCHAR 00C9
ENCODING 201
SWIDTH 654 0
DWIDTH 15 0
BBX 11 20 3 0
BITMAP
0300
0600
0C00
0000
FFE0
8000
8000
8000
8000
8000
8000
FFC0
8000
8000
8000
8000
8000
8000
8000
FFE0
ENDCHAR
STARTCHAR 00CA
ENCODING 202
SWIDTH 654 0
DWIDTH 15 0
BBX 11 20 3 0
BITMAP
0C00
1300
2180
0000
FFE0
8000
8000
8000
8000
8000
8000
FFC0
8000
8000
8000
8000
8000
8000
8000
FFE0
ENDCHAR
STARTCHAR 00CB
ENCODING 203
SWIDTH 654 0
DWIDTH 15 0
BBX 11 20 3 0
BITMAP
3300
3300
0000
0000
FFE0
8000
8000
8000
8000
8000
8000
FFC0
8000
8000
8000
8000
8000
8000
8000
FFE0
ENDCHAR
STARTCHAR 00CC
ENCODING 204
SWIDTH 305 0
DWIDTH 7 0
BBX 5 20 0 0
BITMAP
C0
20
18
00
10
10
10
10
10
10
10
10
10
10
10
10
10
10
10
10
ENDCHAR
STARTCHAR 00CD
ENCODING 205
SWIDTH 305 0
DWIDTH 7 0
BBX 5 20 2 0
BITMAP
18
60
C0
00
40
40
40
40
40
40
40
40
40
40
40
40
40
40
40
40
ENDCHAR
STARTCHAR 00CE
ENCODING 206
SWIDTH 305 0
DWIDTH 7 0
BBX 7 20 0 0
BITMAP
38
6C
C6
00
10
10
10
10
10
10
10
10
10
10
10
10
10
10
10
10
ENDCHAR
STARTCHAR 00CF
ENCODING 207
SWIDTH 305 0
DWIDTH 7 0
BBX 5 20 1 0
BITMAP
88
88
00
00
20
20
20
20
20
20
20
20
20
20
20
20
20
20
20
20
ENDCHAR
STARTCHAR 00D0
ENCODING 208
SWIDTH 829 0
DWIDTH 19 0
BBX 18 16 0 0
BITMAP
1FF800
103E00
100700
100180
100180
1000C0
1000C0
FF80C0
1000C0
1000C0
100080
100180
100380
100700
103E00
1FF000
ENDCHAR
STARTCHAR 00D1
ENCODING 209
SWIDTH 829 0
DWIDTH 19 0
BBX 13 20 3 0
BITMAP
1C40
12C0
0180
0000
8018
C018
E018
B018
B818
9818
8C18
8618
8318
8398
8198
80D8
8078
8038
8038
8018
ENDCHAR
STARTCHAR 00D2
ENCODING 210
SWIDTH 829 0
DWIDTH 19 0
BBX 17 20 1 0
BITMAP
070000
018000
00C000
000000
03F000
0FFC00
380E00
300300
600300
400180
C00180
C00180
C00180
C00180
400180
600300
300300
380E00
0FFC00
03F000
ENDCHAR
STARTCHAR 00D3
ENCODING 211
SWIDTH 829 0
DWIDTH 19 0
BBX 17 20 1 0
BITMAP
003000
004000
008000
000000
03F000
0FFC00
380E00
300300
600300
400180
C00180
C00180
C00180
C00180
400180
600300
300300
380E00
0FFC00
03F000
ENDCHAR
STARTCHAR 00D4
ENCODING 212
SWIDTH 829 0
DWIDTH 19 0
BBX 17 20 1 0
BITMAP
01C000
036000
063000
000000
03F000
0FFC00
380E00
300300
600300
400180
C00180
C00180
C00180
C00180
400180
600300
300300
380E00
0FFC00
03F000
ENDCHAR
STARTCHAR 00D5
ENCODING 213
SWIDTH 829 0
DWIDTH 19 0
BBX 17 20 1 0
BITMAP
031000
049000
046000
000000
03F000
0FFC00
380E00
300300
600300
400180
C00180
C00180
C00180
C00180
400180
600300
300300
380E00
0FFC00
03F000
ENDCHAR
STARTCHAR 00D6
ENCODING 214
SWIDTH 829 0
DWIDTH 19 0
BBX 17 20 1 0
BITMAP
022000
023000
000000
000000
03F000
0FFC00
380E00
300300
600300
400180
C00180
C00180
C00180
C00180
400180
600300
300300
380E00
0FFC00
03F000
ENDCHAR
STARTCHAR 00D7
ENCODING 215
SWIDTH 567 0
DWIDTH 13 0
BBX 7 8 3 4
BITMAP
82
C6
6C
38
38
6C
C6
82
ENDCHAR
STARTCHAR 00D8
ENCODING 216
SWIDTH 829 0
DWIDTH 19 0
BBX 17 18 1 -1
BITMAP
000300
07F600
1FFC00
380E00
601300
603100
C02180
C04180
C0C180
C18180
C10180
420180
660300
340300
380E00
1FFC00
33F000
600000
ENDCHAR
STARTCHAR 00D9
ENCODING 217
SWIDTH 785 0
DWIDTH 18 0
BBX 14 20 2 0
BITMAP
0C00
0600
0100
0000
C00C
C00C
C00C
C00C
C00C
C00C
C00C
C00C
C00C
C00C
400C
4008
6018
3030
3FF0
0FC0
ENDCHAR
STARTCHAR 00DA
ENCODING 218
SWIDTH 785 0
DWIDTH 18 0
BBX 14 20 2 0
BITMAP
00C0
0180
0300
0000
C00C
C00C
C00C
C00C
C00C
C00C
C00C
C00C
C00C
C00C
400C
4008
6018
3030
3FF0
0FC0
ENDCHAR
STARTCHAR 00DB
ENCODING 219
SWIDTH 785 0
DWIDTH 18 0
BBX 14 20 2 0
BITMAP
0300
0480
0840
0000
C00C
C00C
C00C
C00C
C00C
C00C
C00C
C00C
C00C
C00C
400C
4008
6018
3030
3FF0
0FC0
ENDCHAR
STARTCHAR 00DC
ENCODING 220
SWIDTH 785 0
DWIDTH 18 0
BBX 14 20 2 0
BITMAP
0CC0
0CC0
0000
0000
C00C
C00C
C00C
C00C
C00C
C00C
C00C
C00C
C00C
C00C
400C
4008
6018
3030
3FF0
0FC0
ENDCHAR
STARTCHAR 00DD
ENCODING 221
SWIDTH 654 0
DWIDTH 15 0
BBX 14 20 0 0
BITMAP
00C0
0180
0300
0000
C004
600C
2018
3010
1830
1860
0C60
04C0
0680
0380
0300
0300
0300
0300
0300
0300
ENDCHAR
STARTCHAR 00DE
ENCODING 222
SWIDTH 698 0
DWIDTH 16 0
BBX 12 16 3 0
BITMAP
8000
8000
FF80
83C0
8060
8030
8030
8030
8030
8030
8060
83C0
FF80
8000
8000
8000
ENDCHAR
STARTCHAR 00DF
ENCODING 223
SWIDTH 654 0
DWIDTH 15 0
BBX 12 17 2 0
BITMAP
1F00
39C0
6040
4060
C060
C060
C0C0
C380
C7C0
C060
C030
C010
C010
C030
C030
C8E0
CF80
ENDCHAR
STARTCHAR 00E0
ENCODING 224
SWIDTH 610 0
DWIDTH 14 0
BBX 10 17 1 0
BITMAP
3000
1800
0400
0000
0000
1F00
7380
40C0
0040
0040
3FC0
6040
C040
C040
C0C0
6340
3E40
ENDCHAR
STARTCHAR 00E1
ENCODING 225
SWIDTH 610 0
DWIDTH 14 0
BBX 10 17 1 0
BITMAP
0180
0300
0400
0000
0000
1F00
7380
40C0
0040
0040
3FC0
6040
C040
C040
C0C0
6340
3E40
ENDCHAR
STARTCHAR 00E2
ENCODING 226
SWIDTH 610 0
DWIDTH 14 0
BBX 10 17 1 0
BITMAP
0E00
1B00
3180
0000
0000
1F00
7380
40C0
0040
0040
3FC0
6040
C040
C040
C0C0
6340
3E40
ENDCHAR
STARTCHAR 00E3
ENCODING 227
SWIDTH 610 0
DWIDTH 14 0
BBX 10 16 1 0
BITMAP
1880
2480
0300
0000
1F00
7380
40C0
0040
0040
3FC0
6040
C040
C040
C0C0
6340
3E40
ENDCHAR
STARTCHAR 00E4
ENCODING 228
SWIDTH 610 0
DWIDTH 14 0
BBX 10 16 1 0
BITMAP
1100
1100
0000
0000
1F00
7380
40C0
0040
0040
3FC0
6040
C040
C040
C0C0
6340
3E40
ENDCHAR
STARTCHAR 00E5
ENCODING 229
SWIDTH 610 0
DWIDTH 14 0
BBX 10 18 1 0
BITMAP
0E00
1100
1100
1100
0E00
0000
1F00
7380
40C0
0040
0040
3FC0
6040
C040
C040
C0C0
6340
3E40
ENDCHAR
STARTCHAR 00E6
ENCODING 230
SWIDTH 1003 0
DWIDTH 23 0
BBX 21 12 1 0
BITMAP
1F0F80
739CE0
40F030
006030
004010
3FFFF8
604000
C06000
C06000
C0F020
639CE0
3E0FC0
ENDCHAR
STARTCHAR 00E7
ENCODING 231
SWIDTH 567 0
DWIDTH 13 0
BBX 11 18 1 -6
BITMAP
0F80
39C0
6060
4000
C000
C000
C000
C000
4000
6060
39C0
1F80
0400
0600
0300
0100
0300
0E00
ENDCHAR
STARTCHAR 00E8
ENCODING 232
SWIDTH 610 0
DWIDTH 14 0
BBX 12 17 1 0
BITMAP
1800
0C00
0600
0000
0000
1F00
39C0
6060
C020
C030
FFF0
C000
C000
4000
6020
3DE0
0F80
ENDCHAR
STARTCHAR 00E9
ENCODING 233
SWIDTH 610 0
DWIDTH 14 0
BBX 12 17 1 0
BITMAP
0180
0300
0600
0000
0000
1F00
39C0
6060
C020
C030
FFF0
C000
C000
4000
6020
3DE0
0F80
ENDCHAR
STARTCHAR 00EA
ENCODING 234
SWIDTH 610 0
DWIDTH 14 0
BBX 12 17 1 0
BITMAP
0600
0B00
1080
0000
0000
1F00
39C0
6060
C020
C030
FFF0
C000
C000
4000
6020
3DE0
0F80
ENDCHAR
STARTCHAR 00EB
ENCODING 235
SWIDTH 610 0
DWIDTH 14 0
BBX 12 16 1 0
BITMAP
1980
1980
0000
0000
1F00
39C0
6060
C020
C030
FFF0
C000
C000
4000
6020
3DE0
0F80
ENDCHAR
STARTCHAR 00EC
ENCODING 236
SWIDTH 261 0
DWIDTH 6 0
BBX 4 17 0 0
BITMAP
C0
60
30
00
00
30
30
30
30
30
30
30
30
30
30
30
30
ENDCHAR
STARTCHAR 00ED
ENCODING 237
SWIDTH 261 0
DWIDTH 6 0
BBX 4 17 2 0
BITMAP
30
60
C0
00
00
C0
C0
C0
C0
C0
C0
C0
C0
C0
C0
C0
C0
ENDCHAR
STARTCHAR 00EE
ENCODING 238
SWIDTH 261 0
DWIDTH 6 0
BBX 6 17 0 0
BITMAP
30
78
CC
00
00
30
30
30
30
30
30
30
30
30
30
30
30
ENDCHAR
STARTCHAR 00EF
ENCODING 239
SWIDTH 261 0
DWIDTH 6 0
BBX 4 16 1 0
BITMAP
90
90
00
00
60
60
60
60
60
60
60
60
60
60
60
60
ENDCHAR
STARTCHAR 00F0
ENCODING 240
SWIDTH 654 0
DWIDTH 15 0
BBX 12 16 1 0
BITMAP
7FA0
01E0
0760
3830
2030
0010
1F10
39D0
6050
C030
C030
C030
C030
6060
39C0
1F00
ENDCHAR
STARTCHAR 00F1
ENCODING 241
SWIDTH 698 0
DWIDTH 16 0
BBX 11 16 2 0
BITMAP
1880
2480
0300
0000
CF80
FDC0
E060
C060
C020
C020
C020
C020
C020
C020
C020
C020
ENDCHAR
STARTCHAR 00F2
ENCODING 242
SWIDTH 610 0
DWIDTH 14 0
BBX 12 17 1 0
BITMAP
1800
0C00
0600
0000
0000
0F80
39C0
6060
4030
C030
C010
C010
C030
4030
6060
39C0
0F80
ENDCHAR
STARTCHAR 00F3
ENCODING 243
SWIDTH 610 0
DWIDTH 14 0
BBX 12 17 1 0
BITMAP
01C0
0300
0600
0000
0000
0F80
39C0
6060
4030
C030
C010
C010
C030
4030
6060
39C0
0F80
ENDCHAR
STARTCHAR 00F4
ENCODING 244
SWIDTH 610 0
DWIDTH 14 0
BBX 12 17 1 0
BITMAP
0600
0D00
1080
0000
0000
0F80
39C0
6060
4030
C030
C010
C010
C030
4030
6060
39C0
0F80
ENDCHAR
STARTCHAR 00F5
ENCODING 245
SWIDTH 610 0
DWIDTH 14 0
BBX 12 16 1 0
BITMAP
1C40
12C0
0180
0000
0F80
39C0
6060
4030
C030
C010
C010
C030
4030
6060
39C0
0F80
ENDCHAR
STARTCHAR 00F6
ENCODING 246
SWIDTH 610 0
DWIDTH 14 0
BBX 12 16 1 0
BITMAP
1980
1980
0000
0000
0F80
39C0
6060
4030
C030
C010
C010
C030
4030
6060
39C0
0F80
ENDCHAR
STARTCHAR 00F7
ENCODING 247
SWIDTH 567 0
DWIDTH 13 0
BBX 10 10 2 3
BITMAP
0C00
0C00
0000
0000
FFC0
0000
0000
0000
0C00
0C00
ENDCHAR
STARTCHAR 00F8
ENCODING 248
SWIDTH 610 0
DWIDTH 14 0
BBX 12 15 1 -2
BITMAP
0020
0FC0
39C0
60E0
4130
C130
C210
C410
C430
4830
7060
39C0
2F80
4000
4000
ENDCHAR
STARTCHAR 00F9
ENCODING 249
SWIDTH 654 0
DWIDTH 15 0
BBX 11 17 2 0
BITMAP
3000
0800
0600
0000
0000
C060
C060
C060
C060
C060
C060
C060
C060
C060
60E0
7BA0
1F20
ENDCHAR
STARTCHAR 00FA
ENCODING 250
SWIDTH 654 0
DWIDTH 15 0
BBX 11 17 2 0
BITMAP
0180
0300
0400
0000
0000
C060
C060
C060
C060
C060
C060
C060
C060
C060
60E0
7BA0
1F20
ENDCHAR
STARTCHAR 00FB
ENCODING 251
SWIDTH 654 0
DWIDTH 15 0
BBX 11 17 2 0
BITMAP
0E00
1B00
3180
0000
0000
C060
C060
C060
C060
C060
C060
C060
C060
C060
60E0
7BA0
1F20
ENDCHAR
STARTCHAR 00FC
ENCODING 252
SWIDTH 654 0
DWIDTH 15 0
BBX 11 16 2 0
BITMAP
1180
1180
0000
0000
C060
C060
C060
C060
C060
C060
C060
C060
C060
60E0
7BA0
1F20
ENDCHAR
STARTCHAR 00FD
ENCODING 253
SWIDTH 523 0
DWIDTH 12 0
BBX 12 22 0 -5
BITMAP
0180
0300
0600
0000
0000
C010
4030
6020
2060
3040
30C0
18C0
1880
0980
0D00
0700
0600
0600
0600
0C00
D800
F000
ENDCHAR
STARTCHAR 00FE
ENCODING 254
SWIDTH 698 0
DWIDTH 16 0
BBX 12 22 2 -5
BITMAP
C000
C000
C000
C000
C000
CF80
D9E0
E060
E030
C010
C010
C010
C010
E030
E060
DDE0
CF80
C000
C000
C000
C000
C000
ENDCHAR
STARTCHAR 00FF
ENCODING 255
SWIDTH 523 0
DWIDTH 12 0
BBX 12 21 0 -5
BITMAP
1980
1980
0000
0000
C010
4030
6020
2060
3040
30C0
18C0
1880
0980
0D00
0700
0600
0600
0600
0C00
D800
F000
ENDCHAR
STARTCHAR 0100
ENCODING 256
SWIDTH 698 0
DWIDTH 16 0
BBX 16 19 0 0
BITMAP
07F0
0000
0000
0180
01C0
0340
0260
0660
0630
0C30
0C10
1818
1808
100C
3FFC
2006
6006
6003
C003
ENDCHAR
STARTCHAR 0101
ENCODING 257
SWIDTH 610 0
DWIDTH 14 0
BBX 10 16 1 0
BITMAP
3F80
0000
0000
0000
1F00
7380
40C0
0040
0040
3FC0
6040
C040
C040
C0C0
6340
3E40
ENDCHAR
STARTCHAR 0102
ENCODING 258
SWIDTH 698 0
DWIDTH 16 0
BBX 16 20 0 0
BITMAP
0430
0620
03C0
0000
0180
01C0
0340
0260
0660
0630
0C30
0C10
1818
1808
100C
3FFC
2006
6006
6003
C003
ENDCHAR
STARTCHAR 0103
ENCODING 259
SWIDTH 610 0
DWIDTH 14 0
BBX 10 17 1 0
BITMAP
2080
3180
1F00
0000
0000
1F00
7380
40C0
0040
0040
3FC0
6040
C040
C040
C0C0
6340
3E40
ENDCHAR
STARTCHAR 0104
ENCODING 260
SWIDTH 698 0
DWIDTH 16 0
BBX 17 22 0 -6
BITMAP
018000
01C000
034000
026000
066000
063000
0C3000
0C1000
181800
180800
100C00
3FFC00
200600
600600
600300
C00300
000200
000400
000400
000C00
000680
000780
ENDCHAR
STARTCHAR 0105
ENCODING 261
SWIDTH 610 0
DWIDTH 14 0
BBX 11 18 1 -6
BITMAP
1F00
7380
40C0
0040
0040
3FC0
6040
C040
C040
C0C0
6340
3E40
0080
0100
0300
0300
01A0
01E0
ENDCHAR
STARTCHAR 0106
ENCODING 262
SWIDTH 698 0
DWIDTH 16 0
BBX 14 20 1 0
BITMAP
0070
00C0
0180
0000
07F0
1FFC
3804
7000
6000
4000
C000
C000
C000
C000
4000
6000
3000
380C
0FFC
03F0
ENDCHAR
STARTCHAR 0107
ENCODING 263
SWIDTH 567 0
DWIDTH 13 0
BBX 11 17 1 0
BITMAP
0180
0300
0600
0000
0000
0F80
39C0
6060
4000
C000
C000
C000
C000
4000
6060
39C0
0F80
ENDCHAR
STARTCHAR 0108
ENCODING 264
SWIDTH 698 0
DWIDTH 16 0
BBX 14 20 1 0
BITMAP
01C0
0360
0630
0000
07F0
1FFC
3804
7000
6000
4000
C000
C000
C000
C000
4000
6000
3000
380C
0FFC
03F0
ENDCHAR
STARTCHAR 0109
ENCODING 265
SWIDTH 567 0
DWIDTH 13 0
BBX 11 17 1 0
BITMAP
0600
0B00
1080
0000
0000
0F80
39C0
6060
4000
C000
C000
C000
C000
4000
6060
39C0
0F80
ENDCHAR
STARTCHAR 010A
ENCODING 266
SWIDTH 698 0
DWIDTH 16 0
BBX 14 20 1 0
BITMAP
0180
0180
0000
0000
07F0
1FFC
3804
7000
6000
4000
C000
C000
C000
C000
4000
6000
3000
380C
0FFC
03F0
ENDCHAR
STARTCHAR 010B
ENCODING 267
SWIDTH 567 0
DWIDTH 13 0
BBX 11 16 1 0
BITMAP
0600
0600
0000
0000
0F80
39C0
6060
4000
C000
C000
C000
C000
4000
6060
39C0
0F80
ENDCHAR
STARTCHAR 010C
ENCODING 268
SWIDTH 698 0
DWIDTH 16 0
BBX 14 20 1 0
BITMAP
0630
0360
01C0
0000
07F0
1FFC
3804
7000
6000
4000
C000
C000
C000
C000
4000
6000
3000
380C
0FFC
03F0
ENDCHAR
STARTCHAR 010D
ENCODING 269
SWIDTH 567 0
DWIDTH 13 0
BBX 11 17 1 0
BITMAP
3080
1900
0E00
0000
0000
0F80
39C0
6060
4000
C000
C000
C000
C000
4000
6060
39C0
0F80
ENDCHAR
STARTCHAR 010E
ENCODING 270
SWIDTH 829 0
DWIDTH 19 0
BBX 15 20 3 0
BITMAP
1180
0B00
0600
0000
FF80
81E0
8038
8018
800C
8004
8006
8006
8006
8006
8004
800C
8018
8038
81E0
FF80
ENDCHAR
STARTCHAR 010F
ENCODING 271
SWIDTH 698 0
DWIDTH 16 0
BBX 16 17 1 0
BITMAP
0013
0013
0013
0013
0010
0F10
39D0
6070
4030
C030
C010
C010
C030
4030
6070
39D0
0F10
ENDCHAR
STARTCHAR 0110
ENCODING 272
SWIDTH 829 0
DWIDTH 19 0
BBX 18 16 0 0
BITMAP
1FF800
103E00
100700
100180
100180
1000C0
1000C0
FF80C0
1000C0
1000C0
100080
100180
100380
100700
103E00
1FF000
ENDCHAR
STARTCHAR 0111
ENCODING 273
SWIDTH 698 0
DWIDTH 16 0
BBX 15 17 1 0
BITMAP
0010
0010
03FE
0010
0010
0F10
39D0
6070
4030
C030
C010
C010
C030
4030
6070
39D0
0F10
ENDCHAR
STARTCHAR 0112
ENCODING 274
SWIDTH 654 0
DWIDTH 15 0
BBX 11 19 3 0
BITMAP
3F80
0000
0000
FFE0
8000
8000
8000
8000
8000
8000
FFC0
8000
8000
8000
8000
8000
8000
8000
FFE0
ENDCHAR
STARTCHAR 0113
ENCODING 275
SWIDTH 610 0
DWIDTH 14 0
BBX 12 16 1 0
BITMAP
3F80
0000
0000
0000
1F00
39C0
6060
C020
C030
FFF0
C000
C000
4000
6020
3DE0
0F80
ENDCHAR
STARTCHAR 0114
ENCODING 276
SWIDTH 654 0
DWIDTH 15 0
BBX 11 20 3 0
BITMAP
2180
3100
1E00
0000
FFE0
8000
8000
8000
8000
8000
8000
FFC0
8000
8000
8000
8000
8000
8000
8000
FFE0
ENDCHAR
STARTCHAR 0115
ENCODING 277
SWIDTH 610 0
DWIDTH 14 0
BBX 12 17 1 0
BITMAP
3080
1080
0F00
0000
0000
1F00
39C0
6060
C020
C030
FFF0
C000
C000
4000
6020
3DE0
0F80
ENDCHAR
STARTCHAR 0116
ENCODING 278
SWIDTH 654 0
DWIDTH 15 0
BBX 11 20 3 0
BITMAP
0C00
0C00
0000
0000
FFE0
8000
8000
8000
8000
8000
8000
FFC0
8000
8000
8000
8000
8000
8000
8000
FFE0
ENDCHAR
STARTCHAR 0117
ENCODING 279
SWIDTH 610 0
DWIDTH 14 0
BBX 12 16 1 0
BITMAP
0600
0600
0000
0000
1F00
39C0
6060
C020
C030
FFF0
C000
C000
4000
6020
3DE0
0F80
ENDCHAR
STARTCHAR 0118
ENCODING 280
SWIDTH 654 0
DWIDTH 15 0
BBX 11 22 3 -6
BITMAP
FFE0
8000
8000
8000
8000
8000
8000
FFC0
8000
8000
8000
8000
8000
8000
8000
FFE0
00C0
0080
0100
0100
01A0
00E0
ENDCHAR
STARTCHAR 0119
ENCODING 281
SWIDTH 610 0
DWIDTH 14 0
BBX 12 18 1 -6
BITMAP
1F00
39C0
6060
C020
C030
FFF0
C000
C000
4000
6020
3DE0
0F80
0180
0100
0300
0300
03E0
01E0
ENDCHAR
STARTCHAR 011A
ENCODING 282
SWIDTH 654 0
DWIDTH 15 0
BBX 11 20 3 0
BITMAP
2100
1A00
0C00
0000
FFE0
8000
8000
8000
8000
8000
8000
FFC0
8000
8000
8000
8000
8000
8000
8000
FFE0
ENDCHAR
STARTCHAR 011B
ENCODING 283
SWIDTH 610 0
DWIDTH 14 0
BBX 12 17 1 0
BITMAP
3080
0900
0600
0000
0000
1F00
39C0
6060
C020
C030
FFF0
C000
C000
4000
6020
3DE0
0F80
ENDCHAR
STARTCHAR 011C
ENCODING 284
SWIDTH 785 0
DWIDTH 18 0
BBX 15 20 1 0
BITMAP
01C0
0360
0430
0000
07F0
1FFC
3804
7000
6000
4000
C000
C000
C006
C006
4006
6006
3006
3806
0FFC
03F0
ENDCHAR
STARTCHAR 011D
ENCODING 285
SWIDTH 698 0
DWIDTH 16 0
BBX 12 22 1 -5
BITMAP
0700
0D80
18C0
0000
0000
0F90
39D0
6070
4030
C010
C010
C010
C010
4030
6070
39D0
0F90
0010
0030
4030
79E0
1F80
ENDCHAR
STARTCHAR 011E
ENCODING 286
SWIDTH 785 0
DWIDTH 18 0
BBX 15 20 1 0
BITMAP
0410
0620
03C0
0000
07F0
1FFC
3804
7000
6000
4000
C000
C000
C006
C006
4006
6006
3006
3806
0FFC
03F0
ENDCHAR
STARTCHAR 011F
ENCODING 287
SWIDTH 698 0
DWIDTH 16 0
BBX 12 22 1 -5
BITMAP
1040
18C0
0F00
0000
0000
0F90
39D0
6070
4030
C010
C010
C010
C010
4030
6070
39D0
0F90
0010
0030
4030
79E0
1F80
ENDCHAR
STARTCHAR 0120
ENCODING 288
SWIDTH 785 0
DWIDTH 18 0
BBX 15 20 1 0
BITMAP
0180
0180
0000
0000
07F0
1FFC
3804
7000
6000
4000
C000
C000
C006
C006
4006
6006
3006
3806
0FFC
03F0
ENDCHAR
STARTCHAR 0121
ENCODING 289
SWIDTH 698 0
DWIDTH 16 0
BBX 12 21 1 -5
BITMAP
0600
0200
0000
0000
0F90
39D0
6070
4030
C010
C010
C010
C010
4030
6070
39D0
0F90
0010
0030
4030
79E0
1F80
ENDCHAR
STARTCHAR 0122
ENCODING 290
SWIDTH 785 0
DWIDTH 18 0
BBX 15 21 1 -6
BITMAP
07F0
1FFC
3804
7000
6000
4000
C000
C000
C006
C006
4006
6006
3006
3806
0FFC
03F0
0000
0000
0080
0180
0080
ENDCHAR
STARTCHAR 0123
ENCODING 291
SWIDTH 698 0
DWIDTH 16 0
BBX 12 23 1 -5
BITMAP
0200
0200
0200
0600
0000
0000
0F90
39D0
6070
4030
C010
C010
C010
C010
4030
6070
39D0
0F90
0010
0030
4030
79E0
1F80
ENDCHAR
STARTCHAR 0124
ENCODING 292
SWIDTH 829 0
DWIDTH 19 0
BBX 13 20 3 0
BITMAP
0700
0D80
10C0
0000
8018
8018
8018
8018
8018
8018
8018
FFF8
8018
8018
8018
8018
8018
8018
8018
8018
ENDCHAR
STARTCHAR 0125
ENCODING 293
SWIDTH 698 0
DWIDTH 16 0
BBX 13 21 0 0
BITMAP
3000
4800
8600
0000
3000
3000
3000
3000
3000
33E0
3F70
3818
3018
3008
3008
3008
3008
3008
3008
3008
3008
ENDCHAR
STARTCHAR 0126
ENCODING 294
SWIDTH 829 0
DWIDTH 19 0
BBX 19 16 0 0
BITMAP
100300
100300
100300
FFFFE0
100300
100300
100300
1FFF00
100300
100300
100300
100300
100300
100300
100300
100300
ENDCHAR
STARTCHAR 0127
ENCODING 295
SWIDTH 698 0
DWIDTH 16 0
BBX 13 17 0 0
BITMAP
3000
3000
FF80
3000
3000
33E0
3F70
3818
3018
3008
3008
3008
3008
3008
3008
3008
3008
ENDCHAR
STARTCHAR 0128
ENCODING 296
SWIDTH 305 0
DWIDTH 7 0
BBX 7 20 0 0
BITMAP
62
92
0C
00
10
10
10
10
10
10
10
10
10
10
10
10
10
10
10
10
ENDCHAR
STARTCHAR 0129
ENCODING 297
SWIDTH 261 0
DWIDTH 6 0
BBX 6 17 0 0
BITMAP
64
94
9C
00
00
30
30
30
30
30
30
30
30
30
30
30
30
ENDCHAR
STARTCHAR 012A
ENCODING 298
SWIDTH 305 0
DWIDTH 7 0
BBX 5 19 1 0
BITMAP
F8
00
00
20
20
20
20
20
20
20
20
20
20
20
20
20
20
20
20
ENDCHAR
STARTCHAR 012B
ENCODING 299
SWIDTH 261 0
DWIDTH 6 0
BBX 6 16 0 0
BITMAP
FC
00
00
00
30
30
30
30
30
30
30
30
30
30
30
30
ENDCHAR
STARTCHAR 012C
ENCODING 300
SWIDTH 305 0
DWIDTH 7 0
BBX 7 20 0 0
BITMAP
82
C6
78
00
10
10
10
10
10
10
10
10
10
10
10
10
10
10
10
10
ENDCHAR
STARTCHAR 012D
ENCODING 301
SWIDTH 261 0
DWIDTH 6 0
BBX 6 17 0 0
BITMAP
84
CC
78
00
00
30
30
30
30
30
30
30
30
30
30
30
30
ENDCHAR
STARTCHAR 012E
ENCODING 302
SWIDTH 305 0
DWIDTH 7 0
BBX 3 21 2 -5
BITMAP
40
40
40
40
40
40
40
40
40
40
40
40
40
40
40
40
40
80
80
80
E0
ENDCHAR
STARTCHAR 012F
ENCODING 303
SWIDTH 261 0
DWIDTH 6 0
BBX 4 22 1 -5
BITMAP
60
60
00
00
00
60
60
60
60
60
60
60
60
60
60
60
60
40
40
C0
C0
70
ENDCHAR
STARTCHAR 0130
ENCODING 304
SWIDTH 305 0
DWIDTH 7 0
BBX 2 20 2 0
BITMAP
40
C0
00
00
40
40
40
40
40
40
40
40
40
40
40
40
40
40
40
40
ENDCHAR
STARTCHAR 0131
ENCODING 305
SWIDTH 261 0
DWIDTH 6 0
BBX 2 12 2 0
BITMAP
C0
C0
C0
C0
C0
C0
C0
C0
C0
C0
C0
C0
ENDCHAR
STARTCHAR 0132
ENCODING 306
SWIDTH 698 0
DWIDTH 16 0
BBX 12 16 2 0
BITMAP
C030
C030
C030
C030
C030
C030
C030
C030
C030
0030
0030
0030
0020
4060
FFC0
3F00
ENDCHAR
STARTCHAR 0133
ENCODING 307
SWIDTH 523 0
DWIDTH 12 0
BBX 9 22 2 -5
BITMAP
C300
C380
0000
0000
0000
C100
C100
C100
C100
C100
C100
C100
C100
C100
C100
C100
C100
0100
0100
0300
3700
3E00
ENDCHAR
STARTCHAR 0134
ENCODING 308
SWIDTH 480 0
DWIDTH 11 0
BBX 9 20 0 0
BITMAP
0E00
1B00
2180
0000
7F80
0180
0180
0180
0180
0180
0180
0180
0180
0180
0180
0180
0180
C180
7700
3E00
ENDCHAR
STARTCHAR 0135
ENCODING 309
SWIDTH 261 0
DWIDTH 6 0
BBX 8 22 -2 -5
BITMAP
0C
1A
33
00
00
0C
0C
0C
0C
0C
0C
0C
0C
0C
0C
0C
0C
0C
0C
0C
D8
F0
ENDCHAR
STARTCHAR 0136
ENCODING 310
SWIDTH 698 0
DWIDTH 16 0
BBX 13 22 3 -6
BITMAP
8030
8060
80C0
8180
8300
8600
8C00
9C00
BE00
F700
E300
C180
80C0
8060
8030
8018
0000
0000
0400
0600
0400
0400
ENDCHAR
STARTCHAR 0137
ENCODING 311
SWIDTH 610 0
DWIDTH 14 0
BBX 11 23 2 -6
BITMAP
C000
C000
C000
C000
C000
C060
C1C0
C300
C600
CC00
DC00
F600
E300
C180
C0C0
C0C0
C060
0000
0000
0400
0C00
0400
0800
ENDCHAR
STARTCHAR 0138
ENCODING 312
SWIDTH 610 0
DWIDTH 14 0
BBX 11 12 2 0
BITMAP
C060
C1C0
C300
C600
CC00
DC00
F600
E300
C180
C0C0
C0C0
C060
ENDCHAR
STARTCHAR 0139
ENCODING 313
SWIDTH 610 0
DWIDTH 14 0
BBX 11 20 2 0
BITMAP
1800
6000
C000
0000
4000
4000
4000
4000
4000
4000
4000
4000
4000
4000
4000
4000
4000
4000
4000
7FE0
ENDCHAR
STARTCHAR 013A
ENCODING 314
SWIDTH 261 0
DWIDTH 6 0
BBX 4 22 2 0
BITMAP
30
60
C0
00
00
C0
C0
C0
C0
C0
C0
C0
C0
C0
C0
C0
C0
C0
C0
C0
C0
C0
ENDCHAR
STARTCHAR 013B
ENCODING 315
SWIDTH 610 0
DWIDTH 14 0
BBX 10 22 3 -6
BITMAP
8000
8000
8000
8000
8000
8000
8000
8000
8000
8000
8000
8000
8000
8000
8000
FFC0
0000
0000
0400
0C00
0400
0800
ENDCHAR
STARTCHAR 013C
ENCODING 316
SWIDTH 261 0
DWIDTH 6 0
BBX 2 23 2 -6
BITMAP
C0
C0
C0
C0
C0
C0
C0
C0
C0
C0
C0
C0
C0
C0
C0
C0
C0
00
00
40
C0
40
80
ENDCHAR
STARTCHAR 013D
ENCODING 317
SWIDTH 610 0
DWIDTH 14 0
BBX 10 17 3 0
BITMAP
0100
8100
8100
8100
8000
8000
8000
8000
8000
8000
8000
8000
8000
8000
8000
8000
FFC0
ENDCHAR
STARTCHAR 013E
ENCODING 318
SWIDTH 261 0
DWIDTH 6 0
BBX 5 17 2 0
BITMAP
C8
C8
C8
C8
C0
C0
C0
C0
C0
C0
C0
C0
C0
C0
C0
C0
C0
ENDCHAR
STARTCHAR 013F
ENCODING 319
SWIDTH 610 0
DWIDTH 14 0
BBX 10 16 3 0
BITMAP
8000
8000
8000
8000
8000
8000
8300
8300
8000
8000
8000
8000
8000
8000
8000
FFC0
ENDCHAR
STARTCHAR 0140
ENCODING 320
SWIDTH 305 0
DWIDTH 7 0
BBX 6 17 2 0
BITMAP
C0
C0
C0
C0
C0
C0
C0
C0
CC
CC
C0
C0
C0
C0
C0
C0
C0
ENDCHAR
STARTCHAR 0141
ENCODING 321
SWIDTH 610 0
DWIDTH 14 0
BBX 12 16 1 0
BITMAP
2000
2000
2000
2000
2000
2C00
3800
3000
E000
A000
2000
2000
2000
2000
2000
3FF0
ENDCHAR
STARTCHAR 0142
ENCODING 322
SWIDTH 261 0
DWIDTH 6 0
BBX 6 17 0 0
BITMAP
30
30
30
30
30
30
34
3C
38
70
F0
30
30
30
30
30
30
ENDCHAR
STARTCHAR 0143
ENCODING 323
SWIDTH 829 0
DWIDTH 19 0
BBX 13 20 3 0
BITMAP
0180
0300
0600
0000
8018
C018
E018
B018
B818
9818
8C18
8618
8318
8398
8198
80D8
8078
8038
8038
8018
ENDCHAR
STARTCHAR 0144
ENCODING 324
SWIDTH 698 0
DWIDTH 16 0
BBX 11 17 2 0
BITMAP
0180
0300
0600
0000
0000
CF80
FDC0
E060
C060
C020
C020
C020
C020
C020
C020
C020
C020
ENDCHAR
STARTCHAR 0145
ENCODING 325
SWIDTH 829 0
DWIDTH 19 0
BBX 13 22 3 -6
BITMAP
8018
C018
E018
B018
B818
9818
8C18
8618
8318
8398
8198
80D8
8078
8038
8038
8018
0000
0000
0200
0600
0200
0200
ENDCHAR
STARTCHAR 0146
ENCODING 326
SWIDTH 698 0
DWIDTH 16 0
BBX 11 18 2 -6
BITMAP
CF80
FDC0
E060
C060
C020
C020
C020
C020
C020
C020
C020
C020
0000
0000
0400
0600
0400
0400
ENDCHAR
STARTCHAR 0147
ENCODING 327
SWIDTH 829 0
DWIDTH 19 0
BBX 13 20 3 0
BITMAP
18C0
0D80
0600
0000
8018
C018
E018
B018
B818
9818
8C18
8618
8318
8398
8198
80D8
8078
8038
8038
8018
ENDCHAR
STARTCHAR 0148
ENCODING 328
SWIDTH 698 0
DWIDTH 16 0
BBX 11 17 2 0
BITMAP
3080
1B00
0E00
0000
0000
CF80
FDC0
E060
C060
C020
C020
C020
C020
C020
C020
C020
C020
ENDCHAR
STARTCHAR 0149
ENCODING 329
SWIDTH 741 0
DWIDTH 17 0
BBX 14 16 1 0
BITMAP
C000
8000
8000
8000
99F0
9F78
1C0C
180C
180C
180C
180C
180C
180C
180C
180C
180C
ENDCHAR
STARTCHAR 014A
ENCODING 330
SWIDTH 829 0
DWIDTH 19 0
BBX 13 21 3 -5
BITMAP
8018
C018
E018
B018
B818
9818
8C18
8618
8318
8398
8198
80D8
8078
8038
8038
8018
0018
0018
0418
0770
03E0
ENDCHAR
STARTCHAR 014B
ENCODING 331
SWIDTH 698 0
DWIDTH 16 0
BBX 11 17 2 -5
BITMAP
CF80
FDC0
E060
C060
C020
C020
C020
C020
C020
C020
C020
C020
0020
0020
0060
02E0
03C0
ENDCHAR
STARTCHAR 014C
ENCODING 332
SWIDTH 829 0
DWIDTH 19 0
BBX 17 19 1 0
BITMAP
07F000
000000
000000
03F000
0FFC00
380E00
300300
600300
400180
C00180
C00180
C00180
C00180
400180
600300
300300
380E00
0FFC00
03F000
ENDCHAR
STARTCHAR 014D
ENCODING 333
SWIDTH 610 0
DWIDTH 14 0
BBX 12 16 1 0
BITMAP
1FC0
0000
0000
0000
0F80
39C0
6060
4030
C030
C010
C010
C030
4030
6060
39C0
0F80
ENDCHAR
STARTCHAR 014E
ENCODING 334
SWIDTH 829 0
DWIDTH 19 0
BBX 17 20 1 0
BITMAP
041000
023000
01E000
000000
03F000
0FFC00
380E00
300300
600300
400180
C00180
C00180
C00180
C00180
400180
600300
300300
380E00
0FFC00
03F000
ENDCHAR
STARTCHAR 014F
ENCODING 335
SWIDTH 610 0
DWIDTH 14 0
BBX 12 17 1 0
BITMAP
10C0
1880
0F00
0000
0000
0F80
39C0
6060
4030
C030
C010
C010
C030
4030
6060
39C0
0F80
ENDCHAR
STARTCHAR 0150
ENCODING 336
SWIDTH 829 0
DWIDTH 19 0
BBX 17 20 1 0
BITMAP
00C800
019000
033000
000000
03F000
0FFC00
380E00
300300
600300
400180
C00180
C00180
C00180
C00180
400180
600300
300300
380E00
0FFC00
03F000
ENDCHAR
STARTCHAR 0151
ENCODING 337
SWIDTH 610 0
DWIDTH 14 0
BBX 12 17 1 0
BITMAP
0260
04C0
0880
0000
0000
0F80
39C0
6060
4030
C030
C010
C010
C030
4030
6060
39C0
0F80
ENDCHAR
STARTCHAR 0152
ENCODING 338
SWIDTH 1134 0
DWIDTH 26 0
BBX 23 16 1 0
BITMAP
03FFFE
1F0C00
380C00
700C00
600C00
400C00
C00C00
C00FFC
C00C00
C00C00
400C00
600C00
300C00
380C00
0F0C00
03FFFE
ENDCHAR
STARTCHAR 0153
ENCODING 339
SWIDTH 1047 0
DWIDTH 24 0
BBX 22 12 1 0
BITMAP
0F83E0
39C738
606C08
C0380C
C01004
C01FFC
C01000
C03800
403800
606C08
39C738
0F83F0
ENDCHAR
STARTCHAR 0154
ENCODING 340
SWIDTH 741 0
DWIDTH 17 0
BBX 12 20 3 0
BITMAP
0180
0600
0C00
0000
FF80
83C0
8060
8030
8030
8030
8030
8030
8060
81C0
FF80
8180
80C0
8060
8060
8030
ENDCHAR
STARTCHAR 0155
ENCODING 341
SWIDTH 392 0
DWIDTH 9 0
BBX 7 17 2 0
BITMAP
06
18
30
00
00
CC
FC
E0
C0
C0
C0
C0
C0
C0
C0
C0
C0
ENDCHAR
STARTCHAR 0156
ENCODING 342
SWIDTH 741 0
DWIDTH 17 0
BBX 12 22 3 -6
BITMAP
FF80
83C0
8060
8030
8030
8030
8030
8030
8060
81C0
FF80
8180
80C0
8060
8060
8030
0000
0000
0400
0C00
0400
0400
ENDCHAR
STARTCHAR 0157
ENCODING 343
SWIDTH 392 0
DWIDTH 9 0
BBX 6 18 2 -6
BITMAP
CC
FC
E0
C0
C0
C0
C0
C0
C0
C0
C0
C0
00
00
40
C0
40
80
ENDCHAR
STARTCHAR 0158
ENCODING 344
SWIDTH 741 0
DWIDTH 17 0
BBX 12 20 3 0
BITMAP
3180
1B00
0E00
0000
FF80
83C0
8060
8030
8030
8030
8030
8030
8060
81C0
FF80
8180
80C0
8060
8060
8030
ENDCHAR
STARTCHAR 0159
ENCODING 345
SWIDTH 392 0
DWIDTH 9 0
BBX 7 17 2 0
BITMAP
86
6C
38
00
00
CC
FC
E0
C0
C0
C0
C0
C0
C0
C0
C0
C0
ENDCHAR
STARTCHAR 015A
ENCODING 346
SWIDTH 610 0
DWIDTH 14 0
BBX 12 20 1 0
BITMAP
01C0
0300
0600
0000
1F80
3DE0
6020
4000
C000
4000
7000
3E00
07C0
00E0
0030
0030
0030
C030
79E0
1F80
ENDCHAR
STARTCHAR 015B
ENCODING 347
SWIDTH 480 0
DWIDTH 11 0
BBX 9 17 1 0
BITMAP
0300
0600
0800
0000
0000
3F00
7380
C000
C000
C000
7800
1F00
0180
0080
8080
E380
7E00
ENDCHAR
STARTCHAR 015C
ENCODING 348
SWIDTH 610 0
DWIDTH 14 0
BBX 12 20 1 0
BITMAP
0700
0D80
10C0
0000
1F80
3DE0
6020
4000
C000
4000
7000
3E00
07C0
00E0
0030
0030
0030
C030
79E0
1F80
ENDCHAR
STARTCHAR 015D
ENCODING 349
SWIDTH 480 0
DWIDTH 11 0
BBX 9 17 1 0
BITMAP
1C00
3600
6300
0000
0000
3F00
7380
C000
C000
C000
7800
1F00
0180
0080
8080
E380
7E00
ENDCHAR
STARTCHAR 015E
ENCODING 350
SWIDTH 610 0
DWIDTH 14 0
BBX 12 22 1 -6
BITMAP
1F80
3DE0
6020
4000
C000
4000
7000
3E00
07C0
00E0
0030
0030
0030
C030
79E0
1F80
0200
0600
0100
0100
0100
0F00
ENDCHAR
STARTCHAR 015F
ENCODING 351
SWIDTH 480 0
DWIDTH 11 0
BBX 9 18 1 -6
BITMAP
3F00
7380
C000
C000
C000
7800
1F00
0180
0080
8080
E380
7E00
0800
0C00
0400
0600
2600
1C00
ENDCHAR
STARTCHAR 0160
ENCODING 352
SWIDTH 610 0
DWIDTH 14 0
BBX 12 20 1 0
BITMAP
18C0
0D80
0700
0000
1F80
3DE0
6020
4000
C000
4000
7000
3E00
07C0
00E0
0030
0030
0030
C030
79E0
1F80
ENDCHAR
STARTCHAR 0161
ENCODING 353
SWIDTH 480 0
DWIDTH 11 0
BBX 9 17 1 0
BITMAP
6300
3600
1C00
0000
0000
3F00
7380
C000
C000
C000
7800
1F00
0180
0080
8080
E380
7E00
ENDCHAR
STARTCHAR 0162
ENCODING 354
SWIDTH 567 0
DWIDTH 13 0
BBX 13 22 0 -6
BITMAP
FFF8
0200
0200
0200
0200
0200
0200
0200
0200
0200
0200
0200
0200
0200
0200
0200
0200
0300
0100
0180
0980
0700
ENDCHAR
STARTCHAR 0163
ENCODING 355
SWIDTH 392 0
DWIDTH 9 0
BBX 8 21 0 -6
BITMAP
10
10
10
FF
10
10
10
10
10
10
10
10
10
19
0F
04
06
03
01
03
0E
ENDCHAR
STARTCHAR 0164
ENCODING 356
SWIDTH 567 0
DWIDTH 13 0
BBX 13 20 0 0
BITMAP
18C0
0D80
0700
0000
FFF8
0200
0200
0200
0200
0200
0200
0200
0200
0200
0200
0200
0200
0200
0200
0200
ENDCHAR
STARTCHAR 0165
ENCODING 357
SWIDTH 392 0
DWIDTH 9 0
BBX 8 18 0 0
BITMAP
03
02
02
12
10
10
FF
10
10
10
10
10
10
10
10
10
19
0F
ENDCHAR
STARTCHAR 0166
ENCODING 358
SWIDTH 567 0
DWIDTH 13 0
BBX 13 16 0 0
BITMAP
FFF8
0200
0200
0200
0200
0200
0200
0200
3FE0
0200
0200
0200
0200
0200
0200
0200
ENDCHAR
STARTCHAR 0167
ENCODING 359
SWIDTH 436 0
DWIDTH 10 0
BBX 8 15 0 0
BITMAP
10
10
10
FF
10
10
10
10
7F
10
10
10
10
1D
0F
ENDCHAR
STARTCHAR 0168
ENCODING 360
SWIDTH 785 0
DWIDTH 18 0
BBX 14 20 2 0
BITMAP
0E20
0B40
01C0
0000
C00C
C00C
C00C
C00C
C00C
C00C
C00C
C00C
C00C
C00C
400C
4008
6018
3030
3FF0
0FC0
ENDCHAR
STARTCHAR 0169
ENCODING 361
SWIDTH 654 0
DWIDTH 15 0
BBX 11 17 2 0
BITMAP
1880
2480
2300
0000
0000
C060
C060
C060
C060
C060
C060
C060
C060
C060
60E0
7BA0
1F20
ENDCHAR
STARTCHAR 016A
ENCODING 362
SWIDTH 785 0
DWIDTH 18 0
BBX 14 19 2 0
BITMAP
0FE0
0000
0000
C00C
C00C
C00C
C00C
C00C
C00C
C00C
C00C
C00C
C00C
400C
4008
6018
3030
3FF0
0FC0
ENDCHAR
STARTCHAR 016B
ENCODING 363
SWIDTH 654 0
DWIDTH 15 0
BBX 11 16 2 0
BITMAP
3F80
0000
0000
0000
C060
C060
C060
C060
C060
C060
C060
C060
C060
60E0
7BA0
1F20
ENDCHAR
STARTCHAR 016C
ENCODING 364
SWIDTH 785 0
DWIDTH 18 0
BBX 14 20 2 0
BITMAP
0860
0840
0780
0000
C00C
C00C
C00C
C00C
C00C
C00C
C00C
C00C
C00C
C00C
400C
4008
6018
3030
3FF0
0FC0
ENDCHAR
STARTCHAR 016D
ENCODING 365
SWIDTH 654 0
DWIDTH 15 0
BBX 11 17 2 0
BITMAP
2080
1180
0F00
0000
0000
C060
C060
C060
C060
C060
C060
C060
C060
C060
60E0
7BA0
1F20
ENDCHAR
STARTCHAR 016E
ENCODING 366
SWIDTH 785 0
DWIDTH 18 0
BBX 14 22 2 0
BITMAP
0380
0480
0480
0480
0300
0000
C00C
C00C
C00C
C00C
C00C
C00C
C00C
C00C
C00C
C00C
400C
4008
6018
3030
3FF0
0FC0
ENDCHAR
STARTCHAR 016F
ENCODING 367
SWIDTH 654 0
DWIDTH 15 0
BBX 11 18 2 0
BITMAP
0E00
1100
1100
1100
0E00
0000
C060
C060
C060
C060
C060
C060
C060
C060
C060
60E0
7BA0
1F20
ENDCHAR
STARTCHAR 0170
ENCODING 368
SWIDTH 785 0
DWIDTH 18 0
BBX 14 20 2 0
BITMAP
0330
0260
04C0
0000
C00C
C00C
C00C
C00C
C00C
C00C
C00C
C00C
C00C
C00C
400C
4008
6018
3030
3FF0
0FC0
ENDCHAR
STARTCHAR 0171
ENCODING 369
SWIDTH 654 0
DWIDTH 15 0
BBX 11 17 2 0
BITMAP
0640
0CC0
1980
0000
0000
C060
C060
C060
C060
C060
C060
C060
C060
C060
60E0
7BA0
1F20
ENDCHAR
STARTCHAR 0172
ENCODING 370
SWIDTH 785 0
DWIDTH 18 0
BBX 14 22 2 -6
BITMAP
C00C
C00C
C00C
C00C
C00C
C00C
C00C
C00C
C00C
C00C
400C
4008
6018
3038
3FF0
0FC0
0300
0600
0400
0400
0680
0380
ENDCHAR
STARTCHAR 0173
ENCODING 371
SWIDTH 654 0
DWIDTH 15 0
BBX 12 18 2 -6
BITMAP
C060
C060
C060
C060
C060
C060
C060
C060
C060
60E0
7BA0
1F20
00C0
0080
0100
0100
01A0
00F0
ENDCHAR
STARTCHAR 0174
ENCODING 372
SWIDTH 1090 0
DWIDTH 25 0
BBX 23 20 1 0
BITMAP
003800
006C00
00C200
000000
C01802
C03806
403806
602C04
606C0C
20640C
304608
30C218
10C218
188310
198130
0981B0
0D01A0
0F00E0
0700E0
0600C0
ENDCHAR
STARTCHAR 0175
ENCODING 373
SWIDTH 872 0
DWIDTH 20 0
BBX 20 17 0 0
BITMAP
006000
00F000
010800
000000
000000
C06030
406020
60F020
60D060
209040
3198C0
110880
190C80
1B0D80
0A0500
0E0700
040300
ENDCHAR
STARTCHAR 0176
ENCODING 374
SWIDTH 654 0
DWIDTH 15 0
BBX 14 20 0 0
BITMAP
0380
06C0
0860
0000
C004
600C
2018
3010
1830
1860
0C60
04C0
0680
0380
0300
0300
0300
0300
0300
0300
ENDCHAR
STARTCHAR 0177
ENCODING 375
SWIDTH 523 0
DWIDTH 12 0
BBX 12 22 0 -5
BITMAP
0600
0B00
1080
0000
0000
C010
4030
6020
2060
3040
30C0
18C0
1880
0980
0D00
0700
0600
0600
0600
0C00
D800
F000
ENDCHAR
STARTCHAR 0178
ENCODING 376
SWIDTH 654 0
DWIDTH 15 0
BBX 14 20 0 0
BITMAP
0CC0
0CC0
0000
0000
C004
600C
2018
3010
1830
1860
0C60
04C0
0680
0380
0300
0300
0300
0300
0300
0300
ENDCHAR
STARTCHAR 0179
ENCODING 377
SWIDTH 654 0
DWIDTH 15 0
BBX 13 20 1 0
BITMAP
00C0
0100
0600
0000
FFF8
0018
0030
0060
00C0
0180
0180
0300
0600
0C00
1C00
1800
3000
6000
C000
FFF8
ENDCHAR
STARTCHAR 017A
ENCODING 378
SWIDTH 523 0
DWIDTH 12 0
BBX 10 17 1 0
BITMAP
0300
0600
0C00
0000
0000
FFC0
0180
0100
0300
0600
0C00
1800
1800
3000
6000
C000
FFC0
ENDCHAR
STARTCHAR 017B
ENCODING 379
SWIDTH 654 0
DWIDTH 15 0
BBX 13 20 1 0
BITMAP
0300
0300
0000
0000
FFF8
0018
0030
0060
00C0
0180
0180
0300
0600
0C00
1C00
1800
3000
6000
C000
FFF8
ENDCHAR
STARTCHAR 017C
ENCODING 380
SWIDTH 523 0
DWIDTH 12 0
BBX 10 16 1 0
BITMAP
0C00
0C00
0000
0000
FFC0
0180
0100
0300
0600
0C00
1800
1800
3000
6000
C000
FFC0
ENDCHAR
STARTCHAR 017D
ENCODING 381
SWIDTH 654 0
DWIDTH 15 0
BBX 13 20 1 0
BITMAP
18C0
0D80
0700
0000
FFF8
0018
0030
0060
00C0
0180
0180
0300
0600
0C00
1C00
1800
3000
6000
C000
FFF8
ENDCHAR
STARTCHAR 017E
ENCODING 382
SWIDTH 523 0
DWIDTH 12 0
BBX 10 17 1 0
BITMAP
6100
3200
0C00
0000
0000
FFC0
0180
0100
0300
0600
0C00
1800
1800
3000
6000
C000
FFC0
ENDCHAR
STARTCHAR 017F
ENCODING 383
SWIDTH 305 0
DWIDTH 7 0
BBX 7 17 1 0
BITMAP
1E
3A
30
20
20
E0
20
20
20
20
20
20
20
20
20
20
20
ENDCHAR
STARTCHAR 018F
ENCODING 399
SWIDTH 829 0
DWIDTH 19 0
BBX 17 16 1 0
BITMAP
07E000
1FF800
300C00
000600
000300
000300
000100
000180
FFFF80
C00100
400300
600300
600600
380C00
1F7800
07E000
ENDCHAR
STARTCHAR 0192
ENCODING 402
SWIDTH 436 0
DWIDTH 10 0
BBX 13 22 -2 -5
BITMAP
00F0
01D8
0100
0100
0300
0300
0FE0
0300
0300
0200
0200
0200
0600
0600
0600
0600
0600
0400
0400
0C00
DC00
F000
ENDCHAR
STARTCHAR 01A0
ENCODING 416
SWIDTH 829 0
DWIDTH 19 0
BBX 17 19 1 1
BITMAP
000180
000180
000100
03FF00
0FFC00
380E00
300300
600300
400180
C00180
C00180
C00180
C00180
400180
600300
300300
380E00
0FFC00
03F000
ENDCHAR
STARTCHAR 01A1
ENCODING 417
SWIDTH 610 0
DWIDTH 14 0
BBX 12 15 1 0
BITMAP
0010
0010
0010
0FE0
39C0
6060
4030
C030
C010
C010
C030
4030
6060
39C0
0F80
ENDCHAR
STARTCHAR 01AF
ENCODING 431
SWIDTH 785 0
DWIDTH 18 0
BBX 16 19 2 0
BITMAP
0001
0001
0003
C00E
C00C
C00C
C00C
C00C
C00C
C00C
C00C
C00C
C00C
400C
4008
6018
3030
3FF0
0FC0
ENDCHAR
STARTCHAR 01B0
ENCODING 432
SWIDTH 698 0
DWIDTH 16 0
BBX 13 15 2 0
BITMAP
0008
0008
0008
C070
C060
C060
C060
C060
C060
C060
C060
C060
60E0
7BA0
1F20
ENDCHAR
STARTCHAR 01B7
ENCODING 439
SWIDTH 610 0
DWIDTH 14 0
BBX 12 16 1 0
BITMAP
FFE0
0060
00C0
0180
0300
0600
0400
0FC0
00E0
0030
0030
0030
0030
C060
FBC0
3F80
ENDCHAR
STARTCHAR 01C4
ENCODING 452
SWIDTH 1440 0
DWIDTH 33 0
BBX 29 20 3 0
BITMAP
00000840
00000580
00000300
00000000
FF80FFF8
81E00018
80380030
80180060
800C0060
800400C0
80060180
80060300
80060600
80060600
80040C00
800C1800
80183000
80386000
81E06000
FF80FFF8
ENDCHAR
STARTCHAR 01C5
ENCODING 453
SWIDTH 1352 0
DWIDTH 31 0
BBX 27 17 3 0
BITMAP
00003080
FF801B00
81E00E00
80380000
80180000
800C7FE0
800400C0
80060080
80060180
80060300
80060600
80040C00
800C0800
80181800
80383000
81E06000
FF807FE0
ENDCHAR
STARTCHAR 01C6
ENCODING 454
SWIDTH 1221 0
DWIDTH 28 0
BBX 25 17 1 0
BITMAP
00106300
00103600
00101C00
00100000
00100000
0F10FF80
39D00180
60700300
40300600
C0300400
C0100C00
C0101800
C0303000
40306000
60704000
39D0C000
0F11FF80
ENDCHAR
STARTCHAR 01C7
ENCODING 455
SWIDTH 1090 0
DWIDTH 25 0
BBX 20 16 3 0
BITMAP
800FF0
800030
800030
800030
800030
800030
800030
800030
800030
800030
800030
800020
800020
801060
801DE0
FFCF80
ENDCHAR
STARTCHAR 01C8
ENCODING 456
SWIDTH 872 0
DWIDTH 20 0
BBX 15 22 3 -5
BITMAP
0006
8006
8000
8000
8000
8006
8006
8006
8006
8006
8006
8006
8006
8006
8006
8006
FFC6
0006
0004
0004
004C
0078
ENDCHAR
STARTCHAR 01C9
ENCODING 457
SWIDTH 523 0
DWIDTH 12 0
BBX 9 22 2 -5
BITMAP
C300
C380
C000
C000
C000
C100
C100
C100
C100
C100
C100
C100
C100
C100
C100
C100
C100
0100
0100
0300
3700
3E00
ENDCHAR
STARTCHAR 01CA
ENCODING 458
SWIDTH 1309 0
DWIDTH 30 0
BBX 25 16 3 0
BITMAP
80187F80
C0180180
E0180180
B0180180
B8180180
98180180
8C180180
86180180
83180180
83980180
81980180
80D80180
80780100
80388300
8038E700
80183C00
ENDCHAR
STARTCHAR 01CB
ENCODING 459
SWIDTH 1090 0
DWIDTH 25 0
BBX 20 22 3 -5
BITMAP
000030
801830
C01800
E01800
B01800
B81830
981830
8C1830
861830
831830
839830
819830
80D830
807830
803830
803830
801830
000030
000030
000020
000260
0003C0
ENDCHAR
STARTCHAR 01CC
ENCODING 460
SWIDTH 960 0
DWIDTH 22 0
BBX 18 22 2 -5
BITMAP
0000C0
0000C0
000000
000000
000000
CF80C0
FDC0C0
E060C0
C060C0
C020C0
C020C0
C020C0
C020C0
C020C0
C020C0
C020C0
C020C0
0000C0
0000C0
000080
000980
000F00
ENDCHAR
STARTCHAR 01CD
ENCODING 461
SWIDTH 698 0
DWIDTH 16 0
BBX 16 20 0 0
BITMAP
0620
0340
0180
0000
0180
01C0
0340
0260
0660
0630
0C30
0C10
1818
1808
100C
3FFC
2006
6006
6003
C003
ENDCHAR
STARTCHAR 01CE
ENCODING 462
SWIDTH 610 0
DWIDTH 14 0
BBX 10 17 1 0
BITMAP
3180
1B00
0E00
0000
0000
1F00
7380
40C0
0040
0040
3FC0
6040
C040
C040
C0C0
6340
3E40
ENDCHAR
STARTCHAR 01D3
ENCODING 467
SWIDTH 785 0
DWIDTH 18 0
BBX 14 20 2 0
BITMAP
0840
0680
0300
0000
C00C
C00C
C00C
C00C
C00C
C00C
C00C
C00C
C00C
C00C
400C
4008
6018
3030
3FF0
0FC0
ENDCHAR
STARTCHAR 01D4
ENCODING 468
SWIDTH 654 0
DWIDTH 15 0
BBX 11 17 2 0
BITMAP
3080
1B00
0E00
0000
0000
C060
C060
C060
C060
C060
C060
C060
C060
C060
60E0
7BA0
1F20
ENDCHAR
STARTCHAR 01E4
ENCODING 484
SWIDTH 785 0
DWIDTH 18 0
BBX 17 16 1 0
BITMAP
07F000
1FFC00
380400
700000
600000
C00000
C00000
C00000
C00600
C00600
40FF80
600600
300600
380E00
0FFC00
03F000
ENDCHAR
STARTCHAR 01E5
ENCODING 485
SWIDTH 698 0
DWIDTH 16 0
BBX 14 17 1 -5
BITMAP
1F90
39D0
6070
C030
C010
C010
C010
C030
6030
7070
1F90
0010
0010
03FC
4030
79E0
1F80
ENDCHAR
STARTCHAR 01E6
ENCODING 486
SWIDTH 785 0
DWIDTH 18 0
BBX 15 20 1 0
BITMAP
0630
0360
01C0
0000
07F0
1FFC
3804
7000
6000
4000
C000
C000
C006
C006
4006
6006
3006
3806
0FFC
03F0
ENDCHAR
STARTCHAR 01E7
ENCODING 487
SWIDTH 698 0
DWIDTH 16 0
BBX 12 22 1 -5
BITMAP
18C0
0D80
0700
0000
0000
0F90
39D0
6070
4030
C010
C010
C010
C010
4030
6070
39D0
0F90
0010
0030
4030
79E0
1F80
ENDCHAR
STARTCHAR 01E8
ENCODING 488
SWIDTH 698 0
DWIDTH 16 0
BBX 13 20 3 0
BITMAP
3180
1B00
0E00
0000
8030
8060
80C0
8180
8300
8600
8C00
9C00
BE00
F700
E300
C180
80C0
8060
8030
8018
ENDCHAR
STARTCHAR 01E9
ENCODING 489
SWIDTH 610 0
DWIDTH 14 0
BBX 13 22 0 0
BITMAP
8600
4800
3000
0000
0000
3000
3000
3000
3000
3000
3018
3070
30C0
3180
3300
3700
3D80
38C0
3060
3030
3030
3018
ENDCHAR
STARTCHAR 01EA
ENCODING 490
SWIDTH 829 0
DWIDTH 19 0
BBX 17 22 1 -6
BITMAP
03F000
0FFC00
380E00
300300
600300
400180
C00180
C00180
C00180
C00180
400180
600300
300300
380E00
0F7C00
07F000
018000
010000
020000
020000
034000
01E000
ENDCHAR
STARTCHAR 01EB
ENCODING 491
SWIDTH 610 0
DWIDTH 14 0
BBX 12 18 1 -6
BITMAP
0F80
39C0
6060
4030
C030
C010
C010
C030
4030
6060
39C0
0F80
0200
0400
0C00
0C00
0F80
0780
ENDCHAR
STARTCHAR 01EE
ENCODING 494
SWIDTH 610 0
DWIDTH 14 0
BBX 12 20 1 0
BITMAP
1180
0B00
0600
0000
FFE0
0060
00C0
0180
0300
0600
0400
0FC0
00E0
0030
0030
0030
0030
C060
FBC0
3F80
ENDCHAR
STARTCHAR 01EF
ENCODING 495
SWIDTH 523 0
DWIDTH 12 0
BBX 11 22 0 -5
BITMAP
2180
1200
0C00
0000
0000
FFC0
00C0
0080
0100
0300
0600
0C00
0F00
03C0
00C0
0060
0060
0060
0060
80C0
FFC0
3F00
ENDCHAR
STARTCHAR 01FA
ENCODING 506
SWIDTH 698 0
DWIDTH 16 0
BBX 16 23 0 1
BITMAP
0030
01E0
0240
0220
0240
0180
0000
0180
01C0
0340
0260
0660
0630
0C30
0C10
1818
1808
100C
3FFC
2006
6006
6003
C003
ENDCHAR
STARTCHAR 01FB
ENCODING 507
SWIDTH 610 0
DWIDTH 14 0
BBX 10 19 1 1
BITMAP
0080
0F00
1100
1100
1100
0E00
0000
1F00
7380
40C0
0040
0040
3FC0
6040
C040
C040
C0C0
6340
3E40
ENDCHAR
STARTCHAR 01FC
ENCODING 508
SWIDTH 1047 0
DWIDTH 24 0
BBX 22 20 0 0
BITMAP
000600
000C00
001000
000000
003FFC
007800
00D800
009800
019800
031800
031800
061FF8
041800
0C1800
181800
1FF800
301800
201800
601800
C01FFC
ENDCHAR
STARTCHAR 01FD
ENCODING 509
SWIDTH 1003 0
DWIDTH 23 0
BBX 21 17 1 0
BITMAP
001800
003000
004000
000000
000000
1F0F80
739CE0
40F030
006030
004010
3FFFF8
604000
C06000
C06000
C0F020
639CE0
3E0FC0
ENDCHAR
STARTCHAR 01FE
ENCODING 510
SWIDTH 829 0
DWIDTH 19 0
BBX 17 21 1 -1
BITMAP
003000
004000
008000
000300
07F600
1FFC00
380E00
601300
603100
C02180
C04180
C0C180
C18180
C10180
420180
660300
340300
380E00
1FFC00
33F000
600000
ENDCHAR
STARTCHAR 01FF
ENCODING 511
SWIDTH 610 0
DWIDTH 14 0
BBX 12 19 1 -2
BITMAP
01C0
0300
0600
0010
0020
0FC0
39C0
60E0
4130
C130
C210
C410
C430
4830
7060
39C0
2F80
4000
4000
ENDCHAR
STARTCHAR 0200
ENCODING 512
SWIDTH 698 0
DWIDTH 16 0
BBX 16 20 0 0
BITMAP
0980
0CC0
0660
0000
0180
01C0
0340
0260
0660
0630
0C30
0C10
1818
1808
100C
3FFC
2006
6006
6003
C003
ENDCHAR
STARTCHAR 0201
ENCODING 513
SWIDTH 610 0
DWIDTH 14 0
BBX 10 17 1 0
BITMAP
4C00
2600
3300
0000
0000
1F00
7380
40C0
0040
0040
3FC0
6040
C040
C040
C0C0
6340
3E40
ENDCHAR
STARTCHAR 0202
ENCODING 514
SWIDTH 698 0
DWIDTH 16 0
BBX 16 20 0 0
BITMAP
03C0
0620
0410
0000
0180
01C0
0340
0260
0660
0630
0C30
0C10
1818
1808
100C
3FFC
2006
6006
6003
C003
ENDCHAR
STARTCHAR 0203
ENCODING 515
SWIDTH 610 0
DWIDTH 14 0
BBX 10 17 1 0
BITMAP
0F00
3180
2080
0000
0000
1F00
7380
40C0
0040
0040
3FC0
6040
C040
C040
C0C0
6340
3E40
ENDCHAR
STARTCHAR 0204
ENCODING 516
SWIDTH 654 0
DWIDTH 15 0
BBX 11 20 3 0
BITMAP
CC00
6600
3200
0000
FFE0
8000
8000
8000
8000
8000
8000
FFC0
8000
8000
8000
8000
8000
8000
8000
FFE0
ENDCHAR
STARTCHAR 0205
ENCODING 517
SWIDTH 610 0
DWIDTH 14 0
BBX 12 17 1 0
BITMAP
6600
3200
1100
0000
0000
1F00
39C0
6060
C020
C030
FFF0
C000
C000
4000
6020
3DE0
0F80
ENDCHAR
STARTCHAR 0206
ENCODING 518
SWIDTH 654 0
DWIDTH 15 0
BBX 11 20 3 0
BITMAP
1E00
2100
2180
0000
FFE0
8000
8000
8000
8000
8000
8000
FFC0
8000
8000
8000
8000
8000
8000
8000
FFE0
ENDCHAR
STARTCHAR 0207
ENCODING 519
SWIDTH 610 0
DWIDTH 14 0
BBX 12 17 1 0
BITMAP
0F00
1180
1080
0000
0000
1F00
39C0
6060
C020
C030
FFF0
C000
C000
4000
6020
3DE0
0F80
ENDCHAR
STARTCHAR 0208
ENCODING 520
SWIDTH 305 0
DWIDTH 7 0
BBX 7 20 -1 0
BITMAP
98
4C
26
00
08
08
08
08
08
08
08
08
08
08
08
08
08
08
08
08
ENDCHAR
STARTCHAR 0209
ENCODING 521
SWIDTH 261 0
DWIDTH 6 0
BBX 7 17 -2 0
BITMAP
CC
64
32
00
00
0C
0C
0C
0C
0C
0C
0C
0C
0C
0C
0C
0C
ENDCHAR
STARTCHAR 020A
ENCODING 522
SWIDTH 305 0
DWIDTH 7 0
BBX 7 20 0 0
BITMAP
7C
C6
82
00
10
10
10
10
10
10
10
10
10
10
10
10
10
10
10
10
ENDCHAR
STARTCHAR 020B
ENCODING 523
SWIDTH 261 0
DWIDTH 6 0
BBX 6 17 0 0
BITMAP
78
4C
84
00
00
30
30
30
30
30
30
30
30
30
30
30
30
ENDCHAR
STARTCHAR 020C
ENCODING 524
SWIDTH 829 0
DWIDTH 19 0
BBX 17 20 1 0
BITMAP
0C8000
044000
026000
000000
03F000
0FFC00
380E00
300300
600300
400180
C00180
C00180
C00180
C00180
400180
600300
300300
380E00
0FFC00
03F000
ENDCHAR
STARTCHAR 020D
ENCODING 525
SWIDTH 610 0
DWIDTH 14 0
BBX 12 17 1 0
BITMAP
6600
3300
1900
0000
0000
0F80
39C0
6060
4030
C030
C010
C010
C030
4030
6060
39C0
0F80
ENDCHAR
STARTCHAR 020E
ENCODING 526
SWIDTH 829 0
DWIDTH 19 0
BBX 17 20 1 0
BITMAP
01E000
023000
041000
000000
03F000
0FFC00
380E00
300300
600300
400180
C00180
C00180
C00180
C00180
400180
600300
300300
380E00
0FFC00
03F000
ENDCHAR
STARTCHAR 020F
ENCODING 527
SWIDTH 610 0
DWIDTH 14 0
BBX 12 17 1 0
BITMAP
0F00
1880
10C0
0000
0000
0F80
39C0
6060
4030
C030
C010
C010
C030
4030
6060
39C0
0F80
ENDCHAR
STARTCHAR 0210
ENCODING 528
SWIDTH 741 0
DWIDTH 17 0
BBX 12 20 3 0
BITMAP
4C00
2600
1300
0000
FF80
83C0
8060
8030
8030
8030
8030
8030
8060
81C0
FF80
8180
80C0
8060
8060
8030
ENDCHAR
STARTCHAR 0211
ENCODING 529
SWIDTH 392 0
DWIDTH 9 0
BBX 8 17 0 0
BITMAP
CC
66
33
00
00
33
3F
38
30
30
30
30
30
30
30
30
30
ENDCHAR
STARTCHAR 0212
ENCODING 530
SWIDTH 741 0
DWIDTH 17 0
BBX 12 20 3 0
BITMAP
1E00
3180
2080
0000
FF80
83C0
8060
8030
8030
8030
8030
8030
8060
81C0
FF80
8180
80C0
8060
8060
8030
ENDCHAR
STARTCHAR 0213
ENCODING 531
SWIDTH 392 0
DWIDTH 9 0
BBX 7 17 2 0
BITMAP
78
C4
82
00
00
CC
FC
E0
C0
C0
C0
C0
C0
C0
C0
C0
C0
ENDCHAR
STARTCHAR 0214
ENCODING 532
SWIDTH 785 0
DWIDTH 18 0
BBX 14 20 2 0
BITMAP
3300
1980
0C80
0000
C00C
C00C
C00C
C00C
C00C
C00C
C00C
C00C
C00C
C00C
400C
4008
6018
3030
3FF0
0FC0
ENDCHAR
STARTCHAR 0215
ENCODING 533
SWIDTH 654 0
DWIDTH 15 0
BBX 11 17 2 0
BITMAP
6400
2600
1300
0000
0000
C060
C060
C060
C060
C060
C060
C060
C060
C060
60E0
7BA0
1F20
ENDCHAR
STARTCHAR 0216
ENCODING 534
SWIDTH 785 0
DWIDTH 18 0
BBX 14 20 2 0
BITMAP
0780
0840
0860
0000
C00C
C00C
C00C
C00C
C00C
C00C
C00C
C00C
C00C
C00C
400C
4008
6018
3030
3FF0
0FC0
ENDCHAR
STARTCHAR 0217
ENCODING 535
SWIDTH 654 0
DWIDTH 15 0
BBX 11 17 2 0
BITMAP
0F00
1180
2080
0000
0000
C060
C060
C060
C060
C060
C060
C060
C060
C060
60E0
7BA0
1F20
ENDCHAR
STARTCHAR 0218
ENCODING 536
SWIDTH 610 0
DWIDTH 14 0
BBX 12 22 1 -6
BITMAP
1F80
3DE0
6020
4000
C000
4000
7000
3E00
07C0
00E0
0030
0030
0030
C030
79E0
1F80
0000
0000
0200
0600
0200
0200
ENDCHAR
STARTCHAR 0219
ENCODING 537
SWIDTH 480 0
DWIDTH 11 0
BBX 9 18 1 -6
BITMAP
3F00
7380
C000
C000
C000
7800
1F00
0180
0080
8080
E380
7E00
0000
0000
0800
0C00
0800
0800
ENDCHAR
STARTCHAR 021A
ENCODING 538
SWIDTH 567 0
DWIDTH 13 0
BBX 13 22 0 -6
BITMAP
FFF8
0200
0200
0200
0200
0200
0200
0200
0200
0200
0200
0200
0200
0200
0200
0200
0000
0000
0200
0300
0200
0200
ENDCHAR
STARTCHAR 021B
ENCODING 539
SWIDTH 392 0
DWIDTH 9 0
BBX 8 21 0 -6
BITMAP
10
10
10
FF
10
10
10
10
10
10
10
10
10
19
0F
00
00
04
06
04
04
ENDCHAR
STARTCHAR 021E
ENCODING 542
SWIDTH 829 0
DWIDTH 19 0
BBX 13 20 3 0
BITMAP
18C0
0D80
0600
0000
8018
8018
8018
8018
8018
8018
8018
FFF8
8018
8018
8018
8018
8018
8018
8018
8018
ENDCHAR
STARTCHAR 021F
ENCODING 543
SWIDTH 698 0
DWIDTH 16 0
BBX 13 22 0 0
BITMAP
8600
4800
3000
0000
0000
3000
3000
3000
3000
3000
33E0
3F70
3818
3018
3008
3008
3008
3008
3008
3008
3008
3008
ENDCHAR
STARTCHAR 022A
ENCODING 554
SWIDTH 829 0
DWIDTH 19 0
BBX 17 22 1 0
BITMAP
07F000
000000
022000
022000
000000
000000
03F000
0FFC00
380E00
300300
600300
400180
C00180
C00180
C00180
C00180
400180
600300
300300
380E00
0FFC00
03F000
ENDCHAR
STARTCHAR 022B
ENCODING 555
SWIDTH 610 0
DWIDTH 14 0
BBX 12 18 1 0
BITMAP
1FC0
0000
1980
1980
0000
0000
0F80
39C0
6060
4030
C030
C010
C010
C030
4030
6060
39C0
0F80
ENDCHAR
STARTCHAR 022C
ENCODING 556
SWIDTH 829 0
DWIDTH 19 0
BBX 17 22 1 0
BITMAP
07F000
000000
030000
049000
046000
000000
03F000
0FFC00
380E00
300300
600300
400180
C00180
C00180
C00180
C00180
400180
600300
300300
380E00
0FFC00
03F000
ENDCHAR
STARTCHAR 022D
ENCODING 557
SWIDTH 610 0
DWIDTH 14 0
BBX 12 18 1 0
BITMAP
1FC0
0000
1C40
1380
0000
0000
0F80
39C0
6060
4030
C030
C010
C010
C030
4030
6060
39C0
0F80
ENDCHAR
STARTCHAR 0230
ENCODING 560
SWIDTH 829 0
DWIDTH 19 0
BBX 17 22 1 0
BITMAP
07F000
000000
008000
008000
000000
000000
03F000
0FFC00
380E00
300300
600300
400180
C00180
C00180
C00180
C00180
400180
600300
300300
380E00
0FFC00
03F000
ENDCHAR
STARTCHAR 0231
ENCODING 561
SWIDTH 610 0
DWIDTH 14 0
BBX 12 18 1 0
BITMAP
1FC0
0000
0600
0600
0000
0000
0F80
39C0
6060
4030
C030
C010
C010
C030
4030
6060
39C0
0F80
ENDCHAR
STARTCHAR 0232
ENCODING 562
SWIDTH 654 0
DWIDTH 15 0
BBX 14 19 0 0
BITMAP
0FE0
0000
0000
C004
600C
2018
3010
1830
1860
0C60
04C0
0680
0380
0300
0300
0300
0300
0300
0300
ENDCHAR
STARTCHAR 0233
ENCODING 563
SWIDTH 523 0
DWIDTH 12 0
BBX 12 21 0 -5
BITMAP
3F80
0000
0000
0000
C010
4030
6020
2060
3040
30C0
18C0
1880
0980
0D00
0700
0600
0600
0600
0C00
D800
F000
ENDCHAR
STARTCHAR 0237
ENCODING 567
SWIDTH 261 0
DWIDTH 6 0
BBX 6 17 -2 -5
BITMAP
0C
0C
0C
0C
0C
0C
0C
0C
0C
0C
0C
0C
0C
0C
0C
D8
F0
ENDCHAR
STARTCHAR 0259
ENCODING 601
SWIDTH 610 0
DWIDTH 14 0
BBX 12 12 1 0
BITMAP
1F00
7BC0
4060
0060
0030
0030
FFF0
C030
C020
6060
39C0
1F00
ENDCHAR
STARTCHAR 0292
ENCODING 658
SWIDTH 523 0
DWIDTH 12 0
BBX 11 17 0 -5
BITMAP
FFC0
00C0
0080
0100
0300
0600
0C00
0F00
03C0
00C0
0060
0060
0060
0060
80C0
FFC0
3F00
ENDCHAR
STARTCHAR 02B9
ENCODING 697
SWIDTH 218 0
DWIDTH 5 0
BBX 1 6 2 10
BITMAP
80
80
80
80
80
80
ENDCHAR
STARTCHAR 02BA
ENCODING 698
SWIDTH 392 0
DWIDTH 9 0
BBX 5 6 2 10
BITMAP
88
88
88
88
88
88
ENDCHAR
STARTCHAR 02BB
ENCODING 699
SWIDTH 261 0
DWIDTH 6 0
BBX 2 6 2 13
BITMAP
40
40
C0
C0
C0
C0
ENDCHAR
STARTCHAR 02BC
ENCODING 700
SWIDTH 174 0
DWIDTH 4 0
BBX 2 6 1 10
BITMAP
C0
80
80
80
80
80
ENDCHAR
STARTCHAR 02BE
ENCODING 702
SWIDTH 610 0
DWIDTH 14 0
BBX 2 4 7 14
BITMAP
80
40
40
80
ENDCHAR
STARTCHAR 02BF
ENCODING 703
SWIDTH 610 0
DWIDTH 14 0
BBX 3 4 4 14
BITMAP
60
80
80
60
ENDCHAR
STARTCHAR 02C6
ENCODING 710
SWIDTH 610 0
DWIDTH 14 0
BBX 6 3 4 14
BITMAP
30
58
84
ENDCHAR
STARTCHAR 02C7
ENCODING 711
SWIDTH 610 0
DWIDTH 14 0
BBX 7 3 3 14
BITMAP
C2
64
18
ENDCHAR
STARTCHAR 02C8
ENCODING 712
SWIDTH 174 0
DWIDTH 4 0
BBX 1 4 1 12
BITMAP
80
80
80
80
ENDCHAR
STARTCHAR 02C9
ENCODING 713
SWIDTH 610 0
DWIDTH 14 0
BBX 7 1 3 15
BITMAP
FE
ENDCHAR
STARTCHAR 02CA
ENCODING 714
SWIDTH 610 0
DWIDTH 14 0
BBX 4 3 6 14
BITMAP
30
60
C0
ENDCHAR
STARTCHAR 02CB
ENCODING 715
SWIDTH 610 0
DWIDTH 14 0
BBX 5 3 3 14
BITMAP
E0
30
18
ENDCHAR
STARTCHAR 02CC
ENCODING 716
SWIDTH 174 0
DWIDTH 4 0
BBX 1 4 1 -5
BITMAP
80
80
80
80
ENDCHAR
STARTCHAR 02D8
ENCODING 728
SWIDTH 610 0
DWIDTH 14 0
BBX 7 3 3 14
BITMAP
C2
46
3C
ENDCHAR
STARTCHAR 02D9
ENCODING 729
SWIDTH 610 0
DWIDTH 14 0
BBX 2 2 6 15
BITMAP
C0
C0
ENDCHAR
STARTCHAR 02DA
ENCODING 730
SWIDTH 610 0
DWIDTH 14 0
BBX 5 4 4 14
BITMAP
70
88
88
70
ENDCHAR
STARTCHAR 02DB
ENCODING 731
SWIDTH 610 0
DWIDTH 14 0
BBX 4 6 3 -5
BITMAP
60
C0
80
80
D0
70
ENDCHAR
STARTCHAR 02DC
ENCODING 732
SWIDTH 610 0
DWIDTH 14 0
BBX 7 3 3 14
BITMAP
72
DA
8E
ENDCHAR
STARTCHAR 02DD
ENCODING 733
SWIDTH 610 0
DWIDTH 14 0
BBX 7 3 5 14
BITMAP
66
CC
98
ENDCHAR
STARTCHAR 0300
ENCODING 768
SWIDTH 0 0
DWIDTH 0 0
BBX 4 3 -10 14
BITMAP
C0
60
30
ENDCHAR
STARTCHAR 0301
ENCODING 769
SWIDTH 0 0
DWIDTH 0 0
BBX 5 3 -8 14
BITMAP
38
60
C0
ENDCHAR
STARTCHAR 0302
ENCODING 770
SWIDTH 0 0
DWIDTH 0 0
BBX 6 3 -10 14
BITMAP
30
68
84
ENDCHAR
STARTCHAR 0303
ENCODING 771
SWIDTH 0 0
DWIDTH 0 0
BBX 7 3 -10 14
BITMAP
E2
B6
1C
ENDCHAR
STARTCHAR 0304
ENCODING 772
SWIDTH 0 0
DWIDTH 0 0
BBX 7 1 -10 15
BITMAP
FE
ENDCHAR
STARTCHAR 0306
ENCODING 774
SWIDTH 0 0
DWIDTH 0 0
BBX 7 3 -10 14
BITMAP
86
84
78
ENDCHAR
STARTCHAR 0307
ENCODING 775
SWIDTH 0 0
DWIDTH 0 0
BBX 2 2 -8 15
BITMAP
C0
C0
ENDCHAR
STARTCHAR 0308
ENCODING 776
SWIDTH 0 0
DWIDTH 0 0
BBX 6 2 -10 14
BITMAP
CC
CC
ENDCHAR
STARTCHAR 0309
ENCODING 777
SWIDTH 0 0
DWIDTH 0 0
BBX 4 4 -9 14
BITMAP
F0
10
10
30
ENDCHAR
STARTCHAR 030A
ENCODING 778
SWIDTH 0 0
DWIDTH 0 0
BBX 4 4 -9 14
BITMAP
70
90
90
70
ENDCHAR
STARTCHAR 030B
ENCODING 779
SWIDTH 0 0
DWIDTH 0 0
BBX 7 3 -9 14
BITMAP
66
4C
88
ENDCHAR
STARTCHAR 030C
ENCODING 780
SWIDTH 0 0
DWIDTH 0 0
BBX 7 3 -10 14
BITMAP
86
4C
30
ENDCHAR
STARTCHAR 030F
ENCODING 783
SWIDTH 0 0
DWIDTH 0 0
BBX 7 3 -12 14
BITMAP
CC
66
32
ENDCHAR
STARTCHAR 0311
ENCODING 785
SWIDTH 0 0
DWIDTH 0 0
BBX 7 3 -10 14
BITMAP
78
C4
86
ENDCHAR
STARTCHAR 0312
ENCODING 786
SWIDTH 0 0
DWIDTH 0 0
BBX 2 4 -8 14
BITMAP
40
40
C0
C0
ENDCHAR
STARTCHAR 031B
ENCODING 795
SWIDTH 0 0
DWIDTH 0 0
BBX 3 4 -7 11
BITMAP
60
20
60
C0
ENDCHAR
STARTCHAR 0323
ENCODING 803
SWIDTH 0 0
DWIDTH 0 0
BBX 2 2 -8 -4
BITMAP
C0
C0
ENDCHAR
STARTCHAR 0324
ENCODING 804
SWIDTH 0 0
DWIDTH 0 0
BBX 6 2 -10 -4
BITMAP
CC
CC
ENDCHAR
STARTCHAR 0326
ENCODING 806
SWIDTH 0 0
DWIDTH 0 0
BBX 2 4 -8 -6
BITMAP
40
C0
40
80
ENDCHAR
STARTCHAR 0327
ENCODING 807
SWIDTH 0 0
DWIDTH 0 0
BBX 4 6 -9 -6
BITMAP
40
60
10
10
10
E0
ENDCHAR
STARTCHAR 0328
ENCODING 808
SWIDTH 0 0
DWIDTH 0 0
BBX 5 7 -11 -6
BITMAP
10
20
40
80
80
D0
78
ENDCHAR
STARTCHAR 032E
ENCODING 814
SWIDTH 0 0
DWIDTH 0 0
BBX 7 3 -10 -5
BITMAP
86
84
78
ENDCHAR
STARTCHAR 0331
ENCODING 817
SWIDTH 0 0
DWIDTH 0 0
BBX 7 1 -10 -4
BITMAP
FE
ENDCHAR
STARTCHAR 0335
ENCODING 821
SWIDTH 0 0
DWIDTH 0 0
BBX 9 1 -11 10
BITMAP
FF80
ENDCHAR
STARTCHAR 0336
ENCODING 822
SWIDTH 0 0
DWIDTH 0 0
BBX 18 1 -19 10
BITMAP
FFFFC0
ENDCHAR
STARTCHAR 0337
ENCODING 823
SWIDTH 0 0
DWIDTH 0 0
BBX 5 5 -7 6
BITMAP
08
18
60
C0
80
ENDCHAR
STARTCHAR 0338
ENCODING 824
SWIDTH 0 0
DWIDTH 0 0
BBX 10 15 -12 -1
BITMAP
0040
00C0
0080
0100
0300
0200
0400
0C00
0800
1000
3000
2000
4000
C000
8000
ENDCHAR
STARTCHAR 0394
ENCODING 916
SWIDTH 698 0
DWIDTH 16 0
BBX 16 16 0 0
BITMAP
0180
01C0
0340
0260
0660
0630
0C30
0C10
1818
1808
100C
3004
2006
6006
4003
FFFF
ENDCHAR
STARTCHAR 03A9
ENCODING 937
SWIDTH 916 0
DWIDTH 21 0
BBX 20 16 0 0
BITMAP
01F800
07FE00
0E0380
180180
1800C0
300040
300060
300060
300060
300060
300040
1800C0
180180
0C0380
070600
FF07F0
ENDCHAR
STARTCHAR 03BC
ENCODING 956
SWIDTH 698 0
DWIDTH 16 0
BBX 11 17 2 -5
BITMAP
C020
C020
C020
C020
C020
C020
C020
C020
C060
E0E0
FBA0
DF20
C000
C000
C000
C000
C000
ENDCHAR
STARTCHAR 03C0
ENCODING 960
SWIDTH 741 0
DWIDTH 17 0
BBX 16 12 0 0
BITMAP
3FFF
E618
C618
8618
8618
C418
0418
0418
0418
0C18
0C18
0C18
ENDCHAR
STARTCHAR 0400
ENCODING 1024
SWIDTH 654 0
DWIDTH 15 0
BBX 11 20 3 0
BITMAP
3000
1800
0400
0000
FFE0
8000
8000
8000
8000
8000
8000
FFC0
8000
8000
8000
8000
8000
8000
8000
FFE0
ENDCHAR
STARTCHAR 0401
ENCODING 1025
SWIDTH 654 0
DWIDTH 15 0
BBX 11 20 3 0
BITMAP
3300
3300
0000
0000
FFE0
8000
8000
8000
8000
8000
8000
FFC0
8000
8000
8000
8000
8000
8000
8000
FFE0
ENDCHAR
STARTCHAR 0402
ENCODING 1026
SWIDTH 829 0
DWIDTH 19 0
BBX 18 16 0 0
BITMAP
FFFC00
030000
030000
030000
030000
030000
030000
03FF00
038180
0300C0
0300C0
0300C0
0300C0
030180
031780
031E00
ENDCHAR
STARTCHAR 0403
ENCODING 1027
SWIDTH 567 0
DWIDTH 13 0
BBX 10 20 3 0
BITMAP
0300
0400
0800
0000
FFC0
8000
8000
8000
8000
8000
8000
8000
8000
8000
8000
8000
8000
8000
8000
8000
ENDCHAR
STARTCHAR 0404
ENCODING 1028
SWIDTH 698 0
DWIDTH 16 0
BBX 14 16 1 0
BITMAP
07F0
1FFC
3804
7000
6000
4000
C000
FFC0
C000
4000
6000
6000
3000
180C
0FF8
07E0
ENDCHAR
STARTCHAR 0405
ENCODING 1029
SWIDTH 610 0
DWIDTH 14 0
BBX 12 16 1 0
BITMAP
1FC0
3DE0
6000
4000
4000
6000
7000
3E00
07C0
0060
0030
0030
0030
C030
79E0
1F80
ENDCHAR
STARTCHAR 0406
ENCODING 1030
SWIDTH 305 0
DWIDTH 7 0
BBX 1 16 3 0
BITMAP
80
80
80
80
80
80
80
80
80
80
80
80
80
80
80
80
ENDCHAR
STARTCHAR 0407
ENCODING 1031
SWIDTH 305 0
DWIDTH 7 0
BBX 5 20 1 0
BITMAP
88
88
00
00
20
20
20
20
20
20
20
20
20
20
20
20
20
20
20
20
ENDCHAR
STARTCHAR 0408
ENCODING 1032
SWIDTH 523 0
DWIDTH 12 0
BBX 9 16 1 0
BITMAP
7F80
0180
0180
0180
0180
0180
0180
0180
0180
0180
0180
0180
0100
8300
E700
3C00
ENDCHAR
STARTCHAR 0409
ENCODING 1033
SWIDTH 1178 0
DWIDTH 27 0
BBX 26 16 0 0
BITMAP
0FFE0000
0C020000
0C020000
0C020000
0C020000
0C020000
0C03FF00
0C020180
0C0200C0
0C0200C0
080200C0
080200C0
180200C0
180201C0
F0020380
E003FE00
ENDCHAR
STARTCHAR 040A
ENCODING 1034
SWIDTH 1178 0
DWIDTH 27 0
BBX 23 16 3 0
BITMAP
801800
801800
801800
801800
801800
801800
801800
FFFFF8
80180C
801806
801806
801802
801806
801806
80181C
801FF0
ENDCHAR
STARTCHAR 040B
ENCODING 1035
SWIDTH 829 0
DWIDTH 19 0
BBX 18 16 0 0
BITMAP
FFFC00
030000
030000
030000
030000
030000
030000
03FF00
038380
0300C0
0300C0
0300C0
0300C0
0300C0
0300C0
0300C0
ENDCHAR
STARTCHAR 040C
ENCODING 1036
SWIDTH 698 0
DWIDTH 16 0
BBX 12 20 3 0
BITMAP
0300
0600
0C00
0000
8030
8060
8040
80C0
8180
8300
8600
FC00
8600
8300
8100
8180
80C0
8060
8020
8030
ENDCHAR
STARTCHAR 040D
ENCODING 1037
SWIDTH 829 0
DWIDTH 19 0
BBX 13 20 3 0
BITMAP
1800
0400
0200
0000
8018
8038
8038
8078
80D8
8198
8198
8318
8618
8C18
8C18
9818
B018
E018
C018
C018
ENDCHAR
STARTCHAR 040E
ENCODING 1038
SWIDTH 698 0
DWIDTH 16 0
BBX 14 20 1 0
BITMAP
1040
18C0
0F80
0000
C00C
C008
6018
6010
3030
3020
1860
0840
0CC0
0580
0780
0300
0200
0600
7C00
7800
ENDCHAR
STARTCHAR 040F
ENCODING 1039
SWIDTH 785 0
DWIDTH 18 0
BBX 13 20 3 -4
BITMAP
8018
8018
8018
8018
8018
8018
8018
8018
8018
8018
8018
8018
8018
8018
8018
FFF8
0600
0600
0600
0600
ENDCHAR
STARTCHAR 0410
ENCODING 1040
SWIDTH 741 0
DWIDTH 17 0
BBX 15 16 1 0
BITMAP
0380
0380
0280
06C0
0440
0C60
0820
1830
1830
3018
3018
7FFC
600C
C006
C006
8002
ENDCHAR
STARTCHAR 0411
ENCODING 1041
SWIDTH 741 0
DWIDTH 17 0
BBX 12 16 3 0
BITMAP
FFE0
8000
8000
8000
8000
8000
8000
FFC0
8070
8030
8010
8010
8010
8030
80E0
FF80
ENDCHAR
STARTCHAR 0412
ENCODING 1042
SWIDTH 741 0
DWIDTH 17 0
BBX 13 16 3 0
BITMAP
FF80
80E0
8030
8030
8030
8030
8060
FF80
8060
8030
8018
8018
8018
8030
80F0
FFC0
ENDCHAR
STARTCHAR 0413
ENCODING 1043
SWIDTH 567 0
DWIDTH 13 0
BBX 10 16 3 0
BITMAP
FFC0
8000
8000
8000
8000
8000
8000
8000
8000
8000
8000
8000
8000
8000
8000
8000
ENDCHAR
STARTCHAR 0414
ENCODING 1044
SWIDTH 785 0
DWIDTH 18 0
BBX 17 20 0 -4
BITMAP
0FFE00
0C0600
0C0600
0C0600
0C0600
0C0600
080600
080600
080600
080600
080600
180600
180600
100600
700600
FFFF80
C00080
C00080
C00080
C00080
ENDCHAR
STARTCHAR 0415
ENCODING 1045
SWIDTH 654 0
DWIDTH 15 0
BBX 11 16 3 0
BITMAP
FFE0
8000
8000
8000
8000
8000
8000
FFC0
8000
8000
8000
8000
8000
8000
8000
FFE0
ENDCHAR
STARTCHAR 0416
ENCODING 1046
SWIDTH 1003 0
DWIDTH 23 0
BBX 21 16 1 0
BITMAP
C02018
602030
202030
302060
1820C0
0820C0
0C2180
07FF00
0C2180
0C2180
1820C0
302060
302060
602030
402018
C02018
ENDCHAR
STARTCHAR 0417
ENCODING 1047
SWIDTH 654 0
DWIDTH 15 0
BBX 12 16 1 0
BITMAP
3F00
FFC0
0060
0020
0020
0060
00E0
1F80
00E0
0030
0030
0030
0030
8060
79E0
1F80
ENDCHAR
STARTCHAR 0418
ENCODING 1048
SWIDTH 829 0
DWIDTH 19 0
BBX 13 16 3 0
BITMAP
8018
8038
8038
8078
80D8
8198
8198
8318
8618
8C18
8C18
9818
B018
E018
C018
C018
ENDCHAR
STARTCHAR 0419
ENCODING 1049
SWIDTH 829 0
DWIDTH 19 0
BBX 13 20 3 0
BITMAP
1040
18C0
0F80
0000
8018
8038
8038
8078
80D8
8198
8198
8318
8618
8C18
8C18
9818
B018
E018
C018
C018
ENDCHAR
STARTCHAR 041A
ENCODING 1050
SWIDTH 698 0
DWIDTH 16 0
BBX 12 16 3 0
BITMAP
8030
8060
8040
80C0
8180
8300
8600
FC00
8600
8300
8100
8180
80C0
8060
8020
8030
ENDCHAR
STARTCHAR 041B
ENCODING 1051
SWIDTH 785 0
DWIDTH 18 0
BBX 15 16 0 0
BITMAP
0FFE
0C02
0C02
0C02
0C02
0C02
0C02
0C02
0C02
0C02
0802
0802
1802
1802
F002
E002
ENDCHAR
STARTCHAR 041C
ENCODING 1052
SWIDTH 960 0
DWIDTH 22 0
BBX 16 16 3 0
BITMAP
8001
C003
E003
E007
B00D
9009
9819
8811
8C31
8661
8241
83C1
8181
8181
8001
8001
ENDCHAR
STARTCHAR 041D
ENCODING 1053
SWIDTH 829 0
DWIDTH 19 0
BBX 13 16 3 0
BITMAP
8018
8018
8018
8018
8018
8018
8018
FFF8
8018
8018
8018
8018
8018
8018
8018
8018
ENDCHAR
STARTCHAR 041E
ENCODING 1054
SWIDTH 872 0
DWIDTH 20 0
BBX 17 16 1 0
BITMAP
03F000
0FFC00
380E00
300300
600300
400180
C00180
C00180
C00180
C00180
400180
600300
300300
380E00
0FFC00
03F000
ENDCHAR
STARTCHAR 041F
ENCODING 1055
SWIDTH 829 0
DWIDTH 19 0
BBX 13 16 3 0
BITMAP
FFF8
8008
8008
8008
8008
8008
8008
8008
8008
8008
8008
8008
8008
8008
8008
8008
ENDCHAR
STARTCHAR 0420
ENCODING 1056
SWIDTH 698 0
DWIDTH 16 0
BBX 12 16 3 0
BITMAP
FF80
83E0
8060
8030
8030
8010
8030
8030
8060
83E0
FF80
8000
8000
8000
8000
8000
ENDCHAR
STARTCHAR 0421
ENCODING 1057
SWIDTH 698 0
DWIDTH 16 0
BBX 14 16 1 0
BITMAP
03F0
0FFC
3804
3000
6000
4000
C000
C000
C000
C000
6000
6000
3000
180C
0FFC
03F0
ENDCHAR
STARTCHAR 0422
ENCODING 1058
SWIDTH 567 0
DWIDTH 13 0
BBX 13 16 0 0
BITMAP
FFF8
0300
0300
0300
0300
0300
0300
0300
0300
0300
0300
0300
0300
0300
0300
0300
ENDCHAR
STARTCHAR 0423
ENCODING 1059
SWIDTH 698 0
DWIDTH 16 0
BBX 14 16 1 0
BITMAP
C00C
C008
6018
6010
3030
3020
1860
0840
0CC0
0580
0780
0300
0200
0600
7C00
7800
ENDCHAR
STARTCHAR 0424
ENCODING 1060
SWIDTH 916 0
DWIDTH 21 0
BBX 19 18 1 -1
BITMAP
004000
004000
07FC00
1E4F00
304180
6040C0
404040
C04060
C04060
C04060
C04060
404040
6040C0
304180
1E4F00
07FC00
004000
004000
ENDCHAR
STARTCHAR 0425
ENCODING 1061
SWIDTH 654 0
DWIDTH 15 0
BBX 13 16 1 0
BITMAP
C018
6030
3060
30C0
18C0
0D80
0700
0700
0700
0D80
1980
18C0
3060
6030
6030
C018
ENDCHAR
STARTCHAR 0426
ENCODING 1062
SWIDTH 829 0
DWIDTH 19 0
BBX 15 20 3 -4
BITMAP
8018
8018
8018
8018
8018
8018
8018
8018
8018
8018
8018
8018
8018
8018
8018
FFFE
0002
0002
0002
0002
ENDCHAR
STARTCHAR 0427
ENCODING 1063
SWIDTH 741 0
DWIDTH 17 0
BBX 13 16 1 0
BITMAP
C018
C018
C018
C018
C018
C018
C018
6018
7038
3FF8
0018
0018
0018
0018
0018
0018
ENDCHAR
STARTCHAR 0428
ENCODING 1064
SWIDTH 1090 0
DWIDTH 25 0
BBX 19 16 3 0
BITMAP
804020
804020
804020
804020
804020
804020
804020
804020
804020
804020
804020
804020
804020
804020
804020
FFFFE0
ENDCHAR
STARTCHAR 0429
ENCODING 1065
SWIDTH 1134 0
DWIDTH 26 0
BBX 22 20 3 -4
BITMAP
804020
804020
804020
804020
804020
804020
804020
804020
804020
804020
804020
804020
804020
804020
804020
FFFFFC
00000C
00000C
00000C
00000C
ENDCHAR
STARTCHAR 042A
ENCODING 1066
SWIDTH 829 0
DWIDTH 19 0
BBX 18 16 0 0
BITMAP
FE0000
060000
060000
060000
060000
060000
07FF00
060380
060080
0600C0
0600C0
0600C0
0600C0
060180
060700
07FE00
ENDCHAR
STARTCHAR 042B
ENCODING 1067
SWIDTH 960 0
DWIDTH 22 0
BBX 17 16 3 0
BITMAP
800180
800180
800180
800180
800180
800180
FFC180
806180
803180
803180
801180
801180
803180
803180
80E180
FF8180
ENDCHAR
STARTCHAR 042C
ENCODING 1068
SWIDTH 698 0
DWIDTH 16 0
BBX 12 16 3 0
BITMAP
8000
8000
8000
8000
8000
8000
FFC0
8060
8030
8030
8010
8010
8030
8030
80E0
FF80
ENDCHAR
STARTCHAR 042D
ENCODING 1069
SWIDTH 698 0
DWIDTH 16 0
BBX 14 16 1 0
BITMAP
1F80
FFE0
C070
0018
0018
000C
000C
0FFC
000C
000C
0008
0018
0038
C070
7FE0
1F80
ENDCHAR
STARTCHAR 042E
ENCODING 1070
SWIDTH 1090 0
DWIDTH 25 0
BBX 21 16 3 0
BITMAP
803F00
80FF80
8180E0
830060
860030
860010
840018
FC0018
FC0018
860018
860010
860030
830060
8180E0
80FF80
803F00
ENDCHAR
STARTCHAR 042F
ENCODING 1071
SWIDTH 741 0
DWIDTH 17 0
BBX 12 16 2 0
BITMAP
1FF0
7830
C030
C030
8030
8030
8030
C030
C030
7830
1FF0
1030
3030
6030
4030
C030
ENDCHAR
STARTCHAR 0430
ENCODING 1072
SWIDTH 567 0
DWIDTH 13 0
BBX 10 12 1 0
BITMAP
1F00
7380
40C0
0040
0040
3FC0
6040
C040
C040
C0C0
6340
3E40
ENDCHAR
STARTCHAR 0431
ENCODING 1073
SWIDTH 654 0
DWIDTH 15 0
BBX 12 18 2 0
BITMAP
0060
07E0
1E00
7000
6000
C000
8F80
BBC0
E060
C020
C030
C030
C030
C030
C020
6060
39C0
1F00
ENDCHAR
STARTCHAR 0432
ENCODING 1074
SWIDTH 610 0
DWIDTH 14 0
BBX 10 12 2 0
BITMAP
FF00
C1C0
C0C0
C0C0
C080
FF00
C0C0
C040
C040
C040
C1C0
FF80
ENDCHAR
STARTCHAR 0433
ENCODING 1075
SWIDTH 480 0
DWIDTH 11 0
BBX 9 12 2 0
BITMAP
FF80
C000
C000
C000
C000
C000
C000
C000
C000
C000
C000
C000
ENDCHAR
STARTCHAR 0434
ENCODING 1076
SWIDTH 654 0
DWIDTH 15 0
BBX 14 15 0 -3
BITMAP
1FF0
1810
1810
1810
1810
1810
1010
1010
1010
3010
6010
FFFC
C004
C004
C004
ENDCHAR
STARTCHAR 0435
ENCODING 1077
SWIDTH 610 0
DWIDTH 14 0
BBX 12 12 1 0
BITMAP
0F80
39C0
6060
4020
C030
FFF0
C000
C000
4000
6020
3DE0
0F80
ENDCHAR
STARTCHAR 0436
ENCODING 1078
SWIDTH 829 0
DWIDTH 19 0
BBX 17 12 1 0
BITMAP
C08180
608300
208200
308600
188C00
0FF800
188C00
308400
308600
608300
C08180
C08180
ENDCHAR
STARTCHAR 0437
ENCODING 1079
SWIDTH 523 0
DWIDTH 12 0
BBX 10 12 1 0
BITMAP
3E00
E380
0080
0080
0180
1E00
0180
00C0
00C0
80C0
E380
3E00
ENDCHAR
STARTCHAR 0438
ENCODING 1080
SWIDTH 698 0
DWIDTH 16 0
BBX 11 12 2 0
BITMAP
C020
C060
C0E0
C1A0
C320
C620
C420
CC20
D820
F020
E020
C020
ENDCHAR
STARTCHAR 0439
ENCODING 1081
SWIDTH 698 0
DWIDTH 16 0
BBX 11 17 2 0
BITMAP
3080
1180
0F00
0000
0000
C020
C060
C0E0
C1A0
C320
C620
C420
CC20
D820
F020
E020
C020
ENDCHAR
STARTCHAR 043A
ENCODING 1082
SWIDTH 567 0
DWIDTH 13 0
BBX 11 12 2 0
BITMAP
C040
C080
C180
C300
C600
FC00
C600
C300
C300
C180
C0C0
C060
ENDCHAR
STARTCHAR 043B
ENCODING 1083
SWIDTH 610 0
DWIDTH 14 0
BBX 12 12 0 0
BITMAP
1FF0
1810
1810
1810
1810
1810
1010
1010
1010
3010
F010
E010
ENDCHAR
STARTCHAR 043C
ENCODING 1084
SWIDTH 785 0
DWIDTH 18 0
BBX 14 12 2 0
BITMAP
C00C
E01C
E01C
F03C
D82C
C84C
CCCC
C48C
C78C
C30C
C00C
C00C
ENDCHAR
STARTCHAR 043D
ENCODING 1085
SWIDTH 654 0
DWIDTH 15 0
BBX 11 12 2 0
BITMAP
C020
C020
C020
C020
C020
C020
FFE0
C020
C020
C020
C020
C020
ENDCHAR
STARTCHAR 043E
ENCODING 1086
SWIDTH 654 0
DWIDTH 15 0
BBX 12 12 1 0
BITMAP
0F80
39C0
6060
4030
C010
C010
C010
C010
4030
6060
39C0
0F80
ENDCHAR
STARTCHAR 043F
ENCODING 1087
SWIDTH 654 0
DWIDTH 15 0
BBX 11 12 2 0
BITMAP
FFE0
C060
C060
C060
C060
C060
C060
C060
C060
C060
C060
C060
ENDCHAR
STARTCHAR 0440
ENCODING 1088
SWIDTH 698 0
DWIDTH 16 0
BBX 13 17 2 -5
BITMAP
CF80
DDE0
E070
E030
C010
C018
C010
C010
E030
E060
DDE0
CF80
C000
C000
C000
C000
C000
ENDCHAR
STARTCHAR 0441
ENCODING 1089
SWIDTH 567 0
DWIDTH 13 0
BBX 11 12 1 0
BITMAP
0F80
39C0
6060
4000
C000
C000
C000
C000
4000
6060
3DC0
0F80
ENDCHAR
STARTCHAR 0442
ENCODING 1090
SWIDTH 480 0
DWIDTH 11 0
BBX 11 12 0 0
BITMAP
FFE0
0400
0400
0400
0400
0400
0400
0400
0400
0400
0400
0400
ENDCHAR
STARTCHAR 0443
ENCODING 1091
SWIDTH 567 0
DWIDTH 13 0
BBX 12 17 0 -5
BITMAP
C010
6030
6020
2060
3060
1040
18C0
1880
0D80
0D00
0700
0700
0600
0600
0400
DC00
F800
ENDCHAR
STARTCHAR 0444
ENCODING 1092
SWIDTH 785 0
DWIDTH 18 0
BBX 16 22 1 -5
BITMAP
0180
0180
0180
0180
0180
0FF0
3FFC
6186
4182
C183
C183
C183
C183
4182
6186
3DBC
0FF0
0180
0180
0180
0180
0180
ENDCHAR
STARTCHAR 0445
ENCODING 1093
SWIDTH 523 0
DWIDTH 12 0
BBX 10 12 1 0
BITMAP
C0C0
6180
2100
3300
1E00
0C00
0C00
1E00
3300
6180
40C0
C0C0
ENDCHAR
STARTCHAR 0446
ENCODING 1094
SWIDTH 698 0
DWIDTH 16 0
BBX 13 15 2 -3
BITMAP
C060
C060
C060
C060
C060
C060
C060
C060
C060
C060
C060
FFF8
0018
0018
0018
ENDCHAR
STARTCHAR 0447
ENCODING 1095
SWIDTH 610 0
DWIDTH 14 0
BBX 10 12 1 0
BITMAP
C040
C040
C040
C040
C040
C040
71C0
3F40
0040
0040
0040
0040
ENDCHAR
STARTCHAR 0448
ENCODING 1096
SWIDTH 916 0
DWIDTH 21 0
BBX 17 12 2 0
BITMAP
C08180
C08180
C08180
C08180
C08180
C08180
C08180
C08180
C08180
C08180
C08180
FFFF80
ENDCHAR
STARTCHAR 0449
ENCODING 1097
SWIDTH 916 0
DWIDTH 21 0
BBX 19 15 2 -3
BITMAP
C08180
C08180
C08180
C08180
C08180
C08180
C08180
C08180
C08180
C08180
C08180
FFFFE0
000060
000060
000060
ENDCHAR
STARTCHAR 044A
ENCODING 1098
SWIDTH 610 0
DWIDTH 14 0
BBX 13 12 0 0
BITMAP
F800
0800
0800
0800
0FE0
0838
0818
0808
0808
0818
0838
0FE0
ENDCHAR
STARTCHAR 044B
ENCODING 1099
SWIDTH 785 0
DWIDTH 18 0
BBX 14 12 2 0
BITMAP
C00C
C00C
C00C
C00C
FF0C
C18C
C0CC
C0CC
C0CC
C0CC
C18C
FF0C
ENDCHAR
STARTCHAR 044C
ENCODING 1100
SWIDTH 567 0
DWIDTH 13 0
BBX 10 12 2 0
BITMAP
C000
C000
C000
C000
FF00
C180
C0C0
C0C0
C0C0
C0C0
C180
FF00
ENDCHAR
STARTCHAR 044D
ENCODING 1101
SWIDTH 567 0
DWIDTH 13 0
BBX 11 12 1 0
BITMAP
3E00
E380
80C0
0060
0060
1FE0
0060
0060
0040
80C0
E380
3E00
ENDCHAR
STARTCHAR 044E
ENCODING 1102
SWIDTH 872 0
DWIDTH 20 0
BBX 17 12 2 0
BITMAP
C0F800
C1CE00
C30300
C60300
C40180
FC0180
C40180
C60100
C60300
C30300
C1CE00
C0F800
ENDCHAR
STARTCHAR 044F
ENCODING 1103
SWIDTH 610 0
DWIDTH 14 0
BBX 11 12 1 0
BITMAP
1FE0
7860
6060
C060
C060
4060
7060
3FE0
1060
3060
6060
4060
ENDCHAR
STARTCHAR 0450
ENCODING 1104
SWIDTH 610 0
DWIDTH 14 0
BBX 12 17 1 0
BITMAP
1800
0C00
0600
0000
0000
0F80
39C0
6060
4020
C030
FFF0
C000
C000
4000
6020
3DE0
0F80
ENDCHAR
STARTCHAR 0451
ENCODING 1105
SWIDTH 610 0
DWIDTH 14 0
BBX 12 16 1 0
BITMAP
1980
1980
0000
0000
0F80
39C0
6060
4020
C030
FFF0
C000
C000
4000
6020
3DE0
0F80
ENDCHAR
STARTCHAR 0452
ENCODING 1106
SWIDTH 654 0
DWIDTH 15 0
BBX 13 22 0 -5
BITMAP
3000
3000
FFC0
3000
3000
33E0
3F70
3818
3018
3008
3008
3008
3008
3008
3008
3008
3008
0008
0008
0008
00B8
00F0
ENDCHAR
STARTCHAR 0453
ENCODING 1107
SWIDTH 480 0
DWIDTH 11 0
BBX 9 17 2 0
BITMAP
0300
0600
0800
0000
0000
FF80
C000
C000
C000
C000
C000
C000
C000
C000
C000
C000
C000
ENDCHAR
STARTCHAR 0454
ENCODING 1108
SWIDTH 567 0
DWIDTH 13 0
BBX 11 12 1 0
BITMAP
0F80
38E0
6020
4000
C000
C000
FF00
C000
4000
6020
38E0
0F80
ENDCHAR
STARTCHAR 0455
ENCODING 1109
SWIDTH 523 0
DWIDTH 12 0
BBX 10 12 1 0
BITMAP
1F00
7380
4000
C000
6000
7800
1F80
01C0
00C0
00C0
F380
3F00
ENDCHAR
STARTCHAR 0456
ENCODING 1110
SWIDTH 261 0
DWIDTH 6 0
BBX 2 17 2 0
BITMAP
C0
C0
00
00
00
C0
C0
C0
C0
C0
C0
C0
C0
C0
C0
C0
C0
ENDCHAR
STARTCHAR 0457
ENCODING 1111
SWIDTH 261 0
DWIDTH 6 0
BBX 4 16 1 0
BITMAP
90
90
00
00
60
60
60
60
60
60
60
60
60
60
60
60
ENDCHAR
STARTCHAR 0458
ENCODING 1112
SWIDTH 261 0
DWIDTH 6 0
BBX 6 22 -2 -5
BITMAP
0C
0C
00
00
00
0C
0C
0C
0C
0C
0C
0C
0C
0C
0C
0C
0C
0C
0C
0C
98
F0
ENDCHAR
STARTCHAR 0459
ENCODING 1113
SWIDTH 916 0
DWIDTH 21 0
BBX 20 12 0 0
BITMAP
1FF000
181000
181000
181000
181FC0
181070
101030
101010
101010
301030
E01070
E01FC0
ENDCHAR
STARTCHAR 045A
ENCODING 1114
SWIDTH 960 0
DWIDTH 22 0
BBX 19 12 2 0
BITMAP
C06000
C06000
C06000
C06000
C06000
FFFF80
C060C0
C06060
C06060
C06060
C060C0
C07F80
ENDCHAR
STARTCHAR 045B
ENCODING 1115
SWIDTH 654 0
DWIDTH 15 0
BBX 14 17 -1 0
BITMAP
1800
1800
FFE0
1800
1800
19F0
1FB8
1C0C
180C
1804
1804
1804
1804
1804
1804
1804
1804
ENDCHAR
STARTCHAR 045C
ENCODING 1116
SWIDTH 567 0
DWIDTH 13 0
BBX 11 17 2 0
BITMAP
0300
0600
0C00
0000
0000
C040
C080
C180
C300
C600
FC00
C600
C300
C300
C180
C0C0
C060
ENDCHAR
STARTCHAR 045D
ENCODING 1117
SWIDTH 698 0
DWIDTH 16 0
BBX 11 17 2 0
BITMAP
3800
0C00
0600
0000
0000
C020
C060
C0E0
C1A0
C320
C620
C420
CC20
D820
F020
E020
C020
ENDCHAR
STARTCHAR 045E
ENCODING 1118
SWIDTH 567 0
DWIDTH 13 0
BBX 12 22 0 -5
BITMAP
1080
1080
0F00
0000
0000
C010
6030
6020
2060
3060
1040
18C0
1880
0D80
0D00
0700
0700
0600
0600
0400
DC00
F800
ENDCHAR
STARTCHAR 045F
ENCODING 1119
SWIDTH 654 0
DWIDTH 15 0
BBX 10 15 2 -3
BITMAP
C040
C040
C040
C040
C040
C040
C040
C040
C040
C040
C040
FFC0
0400
0400
0400
ENDCHAR
STARTCHAR 0462
ENCODING 1122
SWIDTH 785 0
DWIDTH 18 0
BBX 17 17 0 0
BITMAP
040000
040000
040000
FFE000
040000
040000
040000
07FE00
040300
040180
040180
040080
040080
040180
040180
040700
07FC00
ENDCHAR
STARTCHAR 0463
ENCODING 1123
SWIDTH 610 0
DWIDTH 14 0
BBX 13 17 0 0
BITMAP
1800
1800
1800
1800
1800
FF80
1800
1800
1800
1FE0
1830
1818
1818
1818
1818
1830
1FE0
ENDCHAR
STARTCHAR 046A
ENCODING 1130
SWIDTH 872 0
DWIDTH 20 0
BBX 19 16 1 0
BITMAP
7FFF80
200180
100300
180600
0C0C00
061800
033000
01E000
0FFC00
18C600
30C300
20C180
60C180
40C0C0
C0C0C0
80C060
ENDCHAR
STARTCHAR 046B
ENCODING 1131
SWIDTH 698 0
DWIDTH 16 0
BBX 14 12 1 0
BITMAP
7FF8
6010
3020
1860
0CC0
0780
1FE0
3230
6218
4218
C208
820C
ENDCHAR
STARTCHAR 0472
ENCODING 1138
SWIDTH 872 0
DWIDTH 20 0
BBX 17 16 1 0
BITMAP
03F000
0FFC00
380600
300300
600100
400180
C00180
FFFF80
C00180
C00180
600180
600300
300300
180E00
0FFC00
03F000
ENDCHAR
STARTCHAR 0473
ENCODING 1139
SWIDTH 654 0
DWIDTH 15 0
BBX 13 12 1 0
BITMAP
0F80
38E0
6030
4010
C018
FFF8
C018
C010
4030
6020
38E0
0F80
ENDCHAR
STARTCHAR 0474
ENCODING 1140
SWIDTH 741 0
DWIDTH 17 0
BBX 16 16 1 0
BITMAP
8007
C00F
C018
6010
6030
3030
3020
1060
1840
18C0
0CC0
0C80
0580
0780
0700
0300
ENDCHAR
STARTCHAR 0475
ENCODING 1141
SWIDTH 567 0
DWIDTH 13 0
BBX 13 12 0 0
BITMAP
C038
6038
6060
3040
30C0
10C0
1880
0980
0D80
0F00
0700
0600
ENDCHAR
STARTCHAR 048A
ENCODING 1162
SWIDTH 829 0
DWIDTH 19 0
BBX 15 24 3 -4
BITMAP
1040
18C0
0F80
0000
8018
8038
8038
8078
80D8
8198
8198
8318
8618
8C18
8C18
9818
B018
E018
C018
C01E
0006
0006
0004
0004
ENDCHAR
STARTCHAR 048B
ENCODING 1163
SWIDTH 698 0
DWIDTH 16 0
BBX 13 20 2 -3
BITMAP
3080
1180
0F00
0000
0000
C020
C060
C0E0
C1A0
C320
C620
CC20
CC20
D820
F020
E020
C038
0018
0010
0010
ENDCHAR
STARTCHAR 048C
ENCODING 1164
SWIDTH 741 0
DWIDTH 17 0
BBX 15 17 1 0
BITMAP
3000
3000
3000
FF80
3000
3000
3000
3FF8
301C
3004
3006
3006
3006
3006
300C
3038
3FF0
ENDCHAR
STARTCHAR 048D
ENCODING 1165
SWIDTH 610 0
DWIDTH 14 0
BBX 12 12 1 0
BITMAP
3000
3000
FF00
3000
3000
3FC0
3060
3030
3030
3030
3060
3FC0
ENDCHAR
STARTCHAR 048E
ENCODING 1166
SWIDTH 741 0
DWIDTH 17 0
BBX 12 16 3 0
BITMAP
FF80
83E0
8060
8030
8030
8010
8630
8330
8160
83E0
FFC0
8060
8030
8000
8000
8000
ENDCHAR
STARTCHAR 048F
ENCODING 1167
SWIDTH 698 0
DWIDTH 16 0
BBX 13 17 2 -5
BITMAP
CF80
DDE0
E070
E030
C010
C018
C018
C110
E1B0
E0F0
D9E0
CFA0
C010
C000
C000
C000
C000
ENDCHAR
STARTCHAR 0490
ENCODING 1168
SWIDTH 567 0
DWIDTH 13 0
BBX 10 19 3 0
BITMAP
00C0
00C0
00C0
FFC0
8000
8000
8000
8000
8000
8000
8000
8000
8000
8000
8000
8000
8000
8000
8000
ENDCHAR
STARTCHAR 0491
ENCODING 1169
SWIDTH 436 0
DWIDTH 10 0
BBX 8 15 2 0
BITMAP
01
01
01
FF
C0
C0
C0
C0
C0
C0
C0
C0
C0
C0
C0
ENDCHAR
STARTCHAR 0492
ENCODING 1170
SWIDTH 610 0
DWIDTH 14 0
BBX 12 16 1 0
BITMAP
3FF0
3000
3000
3000
3000
3000
3000
3000
FFE0
3000
3000
3000
3000
3000
3000
3000
ENDCHAR
STARTCHAR 0493
ENCODING 1171
SWIDTH 523 0
DWIDTH 12 0
BBX 10 12 1 0
BITMAP
3FC0
2000
2000
2000
2000
2000
FF80
2000
2000
2000
2000
2000
ENDCHAR
STARTCHAR 0494
ENCODING 1172
SWIDTH 698 0
DWIDTH 16 0
BBX 12 19 3 -3
BITMAP
FFC0
8000
8000
8000
8000
8000
8000
9F80
F9C0
C060
8020
8030
8030
8030
8030
8020
0060
03C0
0F00
ENDCHAR
STARTCHAR 0495
ENCODING 1173
SWIDTH 610 0
DWIDTH 14 0
BBX 11 17 2 -5
BITMAP
FF80
C000
C000
C000
C000
C000
FF80
E1C0
C040
C060
C060
C060
0060
0040
00C0
0B80
0F00
ENDCHAR
STARTCHAR 0496
ENCODING 1174
SWIDTH 1047 0
DWIDTH 24 0
BBX 23 20 1 -4
BITMAP
C02018
602030
202030
302060
1820C0
0820C0
0C2180
07FF00
0C2180
0C2180
1820C0
302060
302060
602030
402018
C0201E
000006
000006
000006
000006
ENDCHAR
STARTCHAR 0497
ENCODING 1175
SWIDTH 872 0
DWIDTH 20 0
BBX 19 15 1 -3
BITMAP
C08180
608300
208200
308600
188C00
0FF800
188C00
308400
308600
608300
C08100
C081E0
000060
000060
000060
ENDCHAR
STARTCHAR 0498
ENCODING 1176
SWIDTH 654 0
DWIDTH 15 0
BBX 12 20 1 -4
BITMAP
3F00
FFC0
0060
0020
0020
0060
00E0
1F80
00E0
0030
0030
0030
0030
8060
F1E0
1F80
0600
0600
0600
0600
ENDCHAR
STARTCHAR 0499
ENCODING 1177
SWIDTH 523 0
DWIDTH 12 0
BBX 10 15 1 -3
BITMAP
3E00
E380
0080
0080
0180
1E00
0180
00C0
00C0
00C0
E380
7E00
0800
0800
0800
ENDCHAR
STARTCHAR 049A
ENCODING 1178
SWIDTH 741 0
DWIDTH 17 0
BBX 14 20 3 -4
BITMAP
8030
8060
8040
80C0
8180
8300
8600
FC00
8600
8300
8100
8180
80C0
8060
8020
803C
000C
000C
000C
000C
ENDCHAR
STARTCHAR 049B
ENCODING 1179
SWIDTH 567 0
DWIDTH 13 0
BBX 12 15 2 -3
BITMAP
C040
C080
C180
C300
C600
FC00
C600
C200
C300
C180
C0C0
C070
0010
0010
0010
ENDCHAR
STARTCHAR 049C
ENCODING 1180
SWIDTH 741 0
DWIDTH 17 0
BBX 13 16 3 0
BITMAP
8010
8030
8060
8040
98C0
9980
9900
9B00
FF00
9B00
9980
98C0
8060
8060
8030
8018
ENDCHAR
STARTCHAR 049D
ENCODING 1181
SWIDTH 610 0
DWIDTH 14 0
BBX 11 12 2 0
BITMAP
C060
C0C0
C180
D900
DB00
FE00
DA00
DB00
D980
C0C0
C0C0
C060
ENDCHAR
STARTCHAR 049E
ENCODING 1182
SWIDTH 741 0
DWIDTH 17 0
BBX 15 16 1 0
BITMAP
3004
300C
FF18
3030
3060
3040
30C0
3F80
3080
30C0
3060
3030
3010
3018
300C
3006
ENDCHAR
STARTCHAR 049F
ENCODING 1183
SWIDTH 567 0
DWIDTH 13 0
BBX 13 17 0 0
BITMAP
3000
3000
FF00
3000
3000
3010
3020
3060
30C0
3180
3F00
3180
30C0
30C0
3060
3030
3018
ENDCHAR
STARTCHAR 04A0
ENCODING 1184
SWIDTH 829 0
DWIDTH 19 0
BBX 18 16 0 0
BITMAP
FE0080
060180
060300
060600
060400
060C00
061800
07F000
061800
061800
060C00
060600
060300
060300
060180
0600C0
ENDCHAR
STARTCHAR 04A1
ENCODING 1185
SWIDTH 654 0
DWIDTH 15 0
BBX 14 12 0 0
BITMAP
F80C
0818
0830
0860
0840
0FC0
08C0
0860
0830
0818
0818
080C
ENDCHAR
STARTCHAR 04A2
ENCODING 1186
SWIDTH 829 0
DWIDTH 19 0
BBX 16 20 3 -4
BITMAP
8018
8018
8018
8018
8018
8018
8018
FFF8
8018
8018
8018
8018
8018
8018
8018
801F
0003
0003
0003
0003
ENDCHAR
STARTCHAR 04A3
ENCODING 1187
SWIDTH 698 0
DWIDTH 16 0
BBX 13 15 2 -3
BITMAP
C020
C020
C020
C020
C020
C020
FFE0
C020
C020
C020
C020
C038
0008
0008
0008
ENDCHAR
STARTCHAR 04A4
ENCODING 1188
SWIDTH 1090 0
DWIDTH 25 0
BBX 22 16 3 0
BITMAP
801FFC
801800
801800
801800
801800
801800
801800
FFF800
801800
801800
801800
801800
801800
801800
801800
801800
ENDCHAR
STARTCHAR 04A5
ENCODING 1189
SWIDTH 872 0
DWIDTH 20 0
BBX 18 12 2 0
BITMAP
C03FC0
C02000
C02000
C02000
C02000
C02000
FFE000
C02000
C02000
C02000
C02000
C02000
ENDCHAR
STARTCHAR 04A6
ENCODING 1190
SWIDTH 1221 0
DWIDTH 28 0
BBX 24 19 3 -3
BITMAP
FFF800
800800
800800
800800
800800
800800
800800
8009F0
800F3C
800C06
800806
800802
800803
800803
800802
800806
00000E
0000BC
0000F0
ENDCHAR
STARTCHAR 04A7
ENCODING 1191
SWIDTH 960 0
DWIDTH 22 0
BBX 20 17 2 -5
BITMAP
FFE000
C06000
C06000
C06000
C06000
C06000
C07FC0
C070E0
C06060
C06030
C06030
C06030
000030
000060
000060
0001C0
000F00
ENDCHAR
STARTCHAR 04A8
ENCODING 1192
SWIDTH 960 0
DWIDTH 22 0
BBX 20 16 1 0
BITMAP
081F00
187F80
30C0C0
60C060
618060
418020
418020
C18020
C18060
418060
608040
60C0C0
306180
183300
0E1E00
03FFF0
ENDCHAR
STARTCHAR 04A9
ENCODING 1193
SWIDTH 785 0
DWIDTH 18 0
BBX 16 12 1 0
BITMAP
10F8
31DC
6306
4202
C203
C202
C202
C306
6304
718C
3CF1
0FFF
ENDCHAR
STARTCHAR 04AA
ENCODING 1194
SWIDTH 698 0
DWIDTH 16 0
BBX 14 20 1 -4
BITMAP
03F0
0FFC
3804
3000
6000
4000
C000
C000
C000
C000
6000
6000
3000
380C
0FFC
03F0
0080
0080
0080
0080
ENDCHAR
STARTCHAR 04AB
ENCODING 1195
SWIDTH 567 0
DWIDTH 13 0
BBX 11 15 1 -3
BITMAP
0F80
39C0
6060
4000
C000
C000
C000
C000
4000
6060
39C0
0F80
0600
0600
0600
ENDCHAR
STARTCHAR 04AC
ENCODING 1196
SWIDTH 567 0
DWIDTH 13 0
BBX 13 20 0 -4
BITMAP
FFF8
0300
0300
0300
0300
0300
0300
0300
0300
0300
0300
0300
0300
0300
0300
03C0
00C0
00C0
00C0
00C0
ENDCHAR
STARTCHAR 04AD
ENCODING 1197
SWIDTH 480 0
DWIDTH 11 0
BBX 11 15 0 -3
BITMAP
FFE0
0400
0400
0400
0400
0400
0400
0400
0400
0400
0400
0700
0100
0100
0100
ENDCHAR
STARTCHAR 04AE
ENCODING 1198
SWIDTH 654 0
DWIDTH 15 0
BBX 13 16 1 0
BITMAP
8008
C018
6030
6030
3060
1040
18C0
0D80
0D80
0700
0200
0200
0200
0200
0200
0200
ENDCHAR
STARTCHAR 04AF
ENCODING 1199
SWIDTH 567 0
DWIDTH 13 0
BBX 12 17 0 -5
BITMAP
C010
6030
6030
2060
3060
1040
18C0
1880
0D80
0D80
0700
0700
0200
0200
0200
0200
0200
ENDCHAR
STARTCHAR 04B0
ENCODING 1200
SWIDTH 654 0
DWIDTH 15 0
BBX 13 16 1 0
BITMAP
8008
C018
6030
6030
3060
1040
18C0
0D80
0D80
0700
3FE0
0200
0200
0200
0200
0200
ENDCHAR
STARTCHAR 04B1
ENCODING 1201
SWIDTH 567 0
DWIDTH 13 0
BBX 12 17 0 -5
BITMAP
C010
6030
6030
2020
3060
1040
18C0
1880
0D80
0D80
0500
0700
3FE0
0200
0200
0200
0200
ENDCHAR
STARTCHAR 04B2
ENCODING 1202
SWIDTH 698 0
DWIDTH 16 0
BBX 15 20 1 -4
BITMAP
C018
6030
3060
30C0
18C0
0D80
0700
0700
0700
0D80
1980
18C0
3060
6030
6030
C01E
0006
0006
0006
0006
ENDCHAR
STARTCHAR 04B3
ENCODING 1203
SWIDTH 523 0
DWIDTH 12 0
BBX 12 15 1 -3
BITMAP
C0C0
6180
2100
3300
1E00
0C00
0C00
1E00
3300
6180
40C0
C0F0
0030
0030
0030
ENDCHAR
STARTCHAR 04B4
ENCODING 1204
SWIDTH 960 0
DWIDTH 22 0
BBX 21 20 0 -4
BITMAP
FFF860
030060
030060
030060
030060
030060
030060
030060
030060
030060
030060
030060
030060
030060
030060
03FFF8
000008
000008
000008
000008
ENDCHAR
STARTCHAR 04B5
ENCODING 1205
SWIDTH 741 0
DWIDTH 17 0
BBX 16 15 0 -3
BITMAP
FFC6
0406
0406
0406
0406
0406
0406
0406
0406
0406
0406
07FF
0001
0001
0001
ENDCHAR
STARTCHAR 04B6
ENCODING 1206
SWIDTH 741 0
DWIDTH 17 0
BBX 16 20 1 -4
BITMAP
C018
C018
C018
C018
C018
C018
C018
6018
7038
3FF8
0018
0018
0018
0018
0018
001F
0003
0003
0003
0003
ENDCHAR
STARTCHAR 04B7
ENCODING 1207
SWIDTH 610 0
DWIDTH 14 0
BBX 12 15 1 -3
BITMAP
C040
C040
C040
C040
C040
C040
71C0
3F40
0040
0040
0040
0070
0010
0010
0010
ENDCHAR
STARTCHAR 04B8
ENCODING 1208
SWIDTH 741 0
DWIDTH 17 0
BBX 13 16 1 0
BITMAP
C018
C018
C018
C018
C018
C018
C218
6218
7238
3FF8
0218
0218
0218
0218
0018
0018
ENDCHAR
STARTCHAR 04B9
ENCODING 1209
SWIDTH 610 0
DWIDTH 14 0
BBX 10 12 1 0
BITMAP
C040
C040
C040
C040
C440
C440
75C0
3F40
0440
0440
0040
0040
ENDCHAR
STARTCHAR 04BA
ENCODING 1210
SWIDTH 741 0
DWIDTH 17 0
BBX 12 16 3 0
BITMAP
8000
8000
8000
8000
8000
8000
BFC0
E060
8030
8010
8010
8010
8010
8010
8010
8010
ENDCHAR
STARTCHAR 04BB
ENCODING 1211
SWIDTH 654 0
DWIDTH 15 0
BBX 11 17 2 0
BITMAP
C000
C000
C000
C000
C000
CF80
FDC0
E060
C060
C020
C020
C020
C020
C020
C020
C020
C020
ENDCHAR
STARTCHAR 04BC
ENCODING 1212
SWIDTH 960 0
DWIDTH 22 0
BBX 20 16 1 0
BITMAP
007E00
01FF80
0380C0
C60060
860030
8C0030
CC0030
EC0010
7FFFF0
0C0000
0C0000
060000
060000
0380E0
01FFC0
007E00
ENDCHAR
STARTCHAR 04BD
ENCODING 1213
SWIDTH 741 0
DWIDTH 17 0
BBX 15 12 1 0
BITMAP
01F0
0738
8C0C
9806
9806
FFFE
1800
1800
0800
0C04
07BC
01F0
ENDCHAR
STARTCHAR 04BE
ENCODING 1214
SWIDTH 960 0
DWIDTH 22 0
BBX 20 19 1 -3
BITMAP
007E00
01FF80
0380C0
C60060
860030
8C0030
CC0030
EC0010
7FFFF0
0C0000
0C0000
060000
060000
0380E0
01F7C0
007E00
000800
000800
000800
ENDCHAR
STARTCHAR 04BF
ENCODING 1215
SWIDTH 741 0
DWIDTH 17 0
BBX 15 15 1 -3
BITMAP
01F0
0738
8C0C
9806
9806
FFFE
1800
1800
0800
0C04
079C
01F0
0040
0040
0040
ENDCHAR
STARTCHAR 04C0
ENCODING 1216
SWIDTH 305 0
DWIDTH 7 0
BBX 1 16 3 0
BITMAP
80
80
80
80
80
80
80
80
80
80
80
80
80
80
80
80
ENDCHAR
STARTCHAR 04C1
ENCODING 1217
SWIDTH 1003 0
DWIDTH 23 0
BBX 21 20 1 0
BITMAP
010400
018C00
00F800
000000
C02018
602030
202030
302060
1820C0
0820C0
0C2180
07FF00
0C2180
0C2180
1820C0
302060
302060
602030
402018
C02018
ENDCHAR
STARTCHAR 04C2
ENCODING 1218
SWIDTH 829 0
DWIDTH 19 0
BBX 17 17 1 0
BITMAP
041000
063000
03E000
000000
000000
C08180
608300
208200
308600
188C00
0FF800
188C00
308400
308600
608300
C08180
C08180
ENDCHAR
STARTCHAR 04C3
ENCODING 1219
SWIDTH 698 0
DWIDTH 16 0
BBX 12 21 3 -5
BITMAP
8030
8060
80C0
80C0
8180
8300
8600
FC00
8600
8300
8180
80C0
8060
8060
8030
8030
0010
0010
0030
0170
01E0
ENDCHAR
STARTCHAR 04C4
ENCODING 1220
SWIDTH 567 0
DWIDTH 13 0
BBX 11 17 2 -5
BITMAP
C040
C080
C180
C300
C600
FC00
C600
C300
C180
C0C0
C0C0
C040
0060
0060
0060
04C0
0780
ENDCHAR
STARTCHAR 04C6
ENCODING 1222
SWIDTH 654 0
DWIDTH 15 0
BBX 14 15 0 -3
BITMAP
1FF0
1810
1810
1810
1810
1810
1010
1010
1010
3010
7010
E01C
000C
0008
0008
ENDCHAR
STARTCHAR 04C7
ENCODING 1223
SWIDTH 829 0
DWIDTH 19 0
BBX 13 21 3 -5
BITMAP
8018
8018
8018
8018
8018
8018
8018
FFF8
8018
8018
8018
8018
8018
8018
8018
8018
0018
0018
0018
01B0
01E0
ENDCHAR
STARTCHAR 04C8
ENCODING 1224
SWIDTH 698 0
DWIDTH 16 0
BBX 11 17 2 -5
BITMAP
C020
C020
C020
C020
C020
C020
FFE0
C020
C020
C020
C020
C020
0020
0020
0060
02E0
03C0
ENDCHAR
STARTCHAR 04C9
ENCODING 1225
SWIDTH 829 0
DWIDTH 19 0
BBX 15 20 3 -4
BITMAP
8018
8018
8018
8018
8018
8018
8018
FFF8
8018
8018
8018
8018
8018
8018
8018
801E
0006
0006
0004
0004
ENDCHAR
STARTCHAR 04CA
ENCODING 1226
SWIDTH 698 0
DWIDTH 16 0
BBX 13 15 2 -3
BITMAP
C020
C020
C020
C020
C020
C020
FFE0
C020
C020
C020
C020
C038
0018
0010
0010
ENDCHAR
STARTCHAR 04CB
ENCODING 1227
SWIDTH 741 0
DWIDTH 17 0
BBX 13 20 1 -4
BITMAP
C018
C018
C018
C018
C018
C018
4018
6018
3DF8
1FD8
0018
0018
0018
0018
0018
0078
0040
0040
0040
0040
ENDCHAR
STARTCHAR 04CC
ENCODING 1228
SWIDTH 610 0
DWIDTH 14 0
BBX 10 15 1 -3
BITMAP
C040
C040
C040
C040
C040
E0C0
7FC0
0040
0040
0040
0040
01C0
0100
0100
0100
ENDCHAR
STARTCHAR 04CD
ENCODING 1229
SWIDTH 1003 0
DWIDTH 23 0
BBX 18 20 3 -4
BITMAP
800100
C00300
E00300
E00700
B00D00
900900
981900
8C1100
8C3100
866100
824100
83C100
818100
818100
800100
8001C0
000040
0000C0
0000C0
000080
ENDCHAR
STARTCHAR 04CE
ENCODING 1230
SWIDTH 829 0
DWIDTH 19 0
BBX 16 15 2 -3
BITMAP
C00C
E01C
E01C
F03C
D82C
C84C
CCCC
C48C
C78C
C30C
C00C
C00F
0002
0002
0006
ENDCHAR
STARTCHAR 04CF
ENCODING 1231
SWIDTH 261 0
DWIDTH 6 0
BBX 2 17 2 0
BITMAP
C0
C0
C0
C0
C0
C0
C0
C0
C0
C0
C0
C0
C0
C0
C0
C0
C0
ENDCHAR
STARTCHAR 04D0
ENCODING 1232
SWIDTH 741 0
DWIDTH 17 0
BBX 15 20 1 0
BITMAP
0820
0C60
07C0
0000
0380
0380
0280
06C0
0440
0C60
0820
1830
1830
3018
3018
7FFC
600C
C006
C006
8002
ENDCHAR
STARTCHAR 04D1
ENCODING 1233
SWIDTH 567 0
DWIDTH 13 0
BBX 10 17 1 0
BITMAP
2080
3180
1F00
0000
0000
1F00
7380
40C0
0040
0040
3FC0
6040
C040
C040
C0C0
6340
3E40
ENDCHAR
STARTCHAR 04D2
ENCODING 1234
SWIDTH 741 0
DWIDTH 17 0
BBX 15 20 1 0
BITMAP
0440
0440
0000
0000
0380
0380
0280
06C0
0440
0C60
0820
1830
1830
3018
3018
7FFC
600C
C006
C006
8002
ENDCHAR
STARTCHAR 04D3
ENCODING 1235
SWIDTH 567 0
DWIDTH 13 0
BBX 10 16 1 0
BITMAP
1100
1100
0000
0000
1F00
7380
40C0
0040
0040
3FC0
6040
C040
C040
C0C0
6340
3E40
ENDCHAR
STARTCHAR 04D4
ENCODING 1236
SWIDTH 1047 0
DWIDTH 24 0
BBX 21 16 1 0
BITMAP
007FF8
00F000
01B000
01B000
033000
023000
063000
0C3FF0
0C3000
183000
103000
3FF000
603000
603000
C03000
803FF8
ENDCHAR
STARTCHAR 04D5
ENCODING 1237
SWIDTH 1003 0
DWIDTH 23 0
BBX 21 12 1 0
BITMAP
1F0F80
739CE0
40F030
006030
004010
3FFFF8
604000
C06000
C0E000
C0F020
639CE0
3E0FC0
ENDCHAR
STARTCHAR 04D6
ENCODING 1238
SWIDTH 654 0
DWIDTH 15 0
BBX 11 20 3 0
BITMAP
2080
2180
1E00
0000
FFE0
8000
8000
8000
8000
8000
8000
FFC0
8000
8000
8000
8000
8000
8000
8000
FFE0
ENDCHAR
STARTCHAR 04D7
ENCODING 1239
SWIDTH 610 0
DWIDTH 14 0
BBX 12 17 1 0
BITMAP
1080
1080
0F00
0000
0000
0F80
39C0
6060
4020
C030
FFF0
C000
C000
4000
6020
3DE0
0F80
ENDCHAR
STARTCHAR 04D8
ENCODING 1240
SWIDTH 829 0
DWIDTH 19 0
BBX 17 16 1 0
BITMAP
07E000
1FF800
300E00
000600
000300
000300
000100
FFFF80
C00180
C00100
C00300
600300
600600
380C00
1F7800
07E000
ENDCHAR
STARTCHAR 04D9
ENCODING 1241
SWIDTH 610 0
DWIDTH 14 0
BBX 12 12 1 0
BITMAP
1F00
7BC0
6060
0020
0030
0030
FFF0
C030
4030
6060
39C0
0F80
ENDCHAR
STARTCHAR 04DA
ENCODING 1242
SWIDTH 829 0
DWIDTH 19 0
BBX 17 20 1 0
BITMAP
022000
022000
000000
000000
07E000
1FF800
300E00
000600
000300
000300
000100
FFFF80
C00180
C00100
C00300
600300
600600
380C00
1F7800
07E000
ENDCHAR
STARTCHAR 04DB
ENCODING 1243
SWIDTH 610 0
DWIDTH 14 0
BBX 12 16 1 0
BITMAP
1980
1980
0000
0000
1F00
7BC0
6060
0020
0030
0030
FFF0
C030
4030
6060
39C0
0F80
ENDCHAR
STARTCHAR 04DC
ENCODING 1244
SWIDTH 1003 0
DWIDTH 23 0
BBX 21 20 1 0
BITMAP
008800
008C00
000000
000000
C02018
602030
202030
302060
1820C0
0820C0
0C2180
07FF00
0C2180
0C2180
1820C0
302060
302060
602030
402018
C02018
ENDCHAR
STARTCHAR 04DD
ENCODING 1245
SWIDTH 829 0
DWIDTH 19 0
BBX 17 16 1 0
BITMAP
022000
022000
000000
000000
C08180
608300
208200
308600
188C00
0FF800
188C00
308400
308600
608300
C08180
C08180
ENDCHAR
STARTCHAR 04DE
ENCODING 1246
SWIDTH 654 0
DWIDTH 15 0
BBX 12 20 1 0
BITMAP
1980
1980
0000
0000
3F00
FFC0
0060
0020
0020
0060
00E0
1F80
00E0
0030
0030
0030
0030
8060
79E0
1F80
ENDCHAR
STARTCHAR 04DF
ENCODING 1247
SWIDTH 523 0
DWIDTH 12 0
BBX 10 16 1 0
BITMAP
3300
3300
0000
0000
3E00
E380
0080
0080
0180
1E00
0180
00C0
00C0
80C0
E380
3E00
ENDCHAR
STARTCHAR 04E0
ENCODING 1248
SWIDTH 610 0
DWIDTH 14 0
BBX 12 16 1 0
BITMAP
FFE0
0060
00C0
0180
0300
0600
0400
0FC0
00E0
0030
0030
0030
0030
C060
FBC0
3F80
ENDCHAR
STARTCHAR 04E1
ENCODING 1249
SWIDTH 523 0
DWIDTH 12 0
BBX 11 17 0 -5
BITMAP
FFC0
00C0
0080
0100
0300
0600
0C00
0F00
03C0
00C0
0060
0060
0060
0060
80C0
FFC0
3F00
ENDCHAR
STARTCHAR 04E2
ENCODING 1250
SWIDTH 829 0
DWIDTH 19 0
BBX 13 19 3 0
BITMAP
1FC0
0000
0000
8018
8038
8038
8078
80D8
8198
8198
8318
8618
8C18
8C18
9818
B018
E018
C018
C018
ENDCHAR
STARTCHAR 04E3
ENCODING 1251
SWIDTH 698 0
DWIDTH 16 0
BBX 11 16 2 0
BITMAP
3F80
0000
0000
0000
C020
C060
C0E0
C1A0
C320
C620
C420
CC20
D820
F020
E020
C020
ENDCHAR
STARTCHAR 04E4
ENCODING 1252
SWIDTH 829 0
DWIDTH 19 0
BBX 13 20 3 0
BITMAP
0880
1880
0000
0000
8018
8038
8038
8078
80D8
8198
8198
8318
8618
8C18
8C18
9818
B018
E018
C018
C018
ENDCHAR
STARTCHAR 04E5
ENCODING 1253
SWIDTH 698 0
DWIDTH 16 0
BBX 11 16 2 0
BITMAP
1980
1980
0000
0000
C020
C060
C0E0
C1A0
C320
C620
C420
CC20
D820
F020
E020
C020
ENDCHAR
STARTCHAR 04E6
ENCODING 1254
SWIDTH 872 0
DWIDTH 20 0
BBX 17 20 1 0
BITMAP
033000
033000
000000
000000
03F000
0FFC00
380E00
300300
600300
400180
C00180
C00180
C00180
C00180
400180
600300
300300
380E00
0FFC00
03F000
ENDCHAR
STARTCHAR 04E7
ENCODING 1255
SWIDTH 654 0
DWIDTH 15 0
BBX 12 16 1 0
BITMAP
1980
1980
0000
0000
0F80
39C0
6060
4030
C010
C010
C010
C010
4030
6060
39C0
0F80
ENDCHAR
STARTCHAR 04E8
ENCODING 1256
SWIDTH 872 0
DWIDTH 20 0
BBX 17 16 1 0
BITMAP
03F000
0FFC00
380600
300300
600100
400180
C00180
FFFF80
C00180
C00180
600180
600300
300300
180E00
0FFC00
03F000
ENDCHAR
STARTCHAR 04E9
ENCODING 1257
SWIDTH 654 0
DWIDTH 15 0
BBX 13 12 1 0
BITMAP
0F80
38E0
6030
4010
C018
FFF8
C018
C010
4030
6020
38E0
0F80
ENDCHAR
STARTCHAR 04EA
ENCODING 1258
SWIDTH 872 0
DWIDTH 20 0
BBX 17 20 1 0
BITMAP
033000
033000
000000
000000
03F000
0FFC00
380600
300300
600100
400180
C00180
FFFF80
C00180
C00180
600180
600300
300300
180E00
0FFC00
03F000
ENDCHAR
STARTCHAR 04EB
ENCODING 1259
SWIDTH 654 0
DWIDTH 15 0
BBX 13 16 1 0
BITMAP
0880
0880
0000
0000
0F80
38E0
6030
4010
C018
FFF8
C018
C010
4030
6020
38E0
0F80
ENDCHAR
STARTCHAR 04EC
ENCODING 1260
SWIDTH 698 0
DWIDTH 16 0
BBX 14 20 1 0
BITMAP
1980
1980
0000
0000
1F80
FFE0
C070
0018
0018
000C
000C
0FFC
000C
000C
0008
0018
0038
C070
7FE0
1F80
ENDCHAR
STARTCHAR 04ED
ENCODING 1261
SWIDTH 567 0
DWIDTH 13 0
BBX 11 16 1 0
BITMAP
3300
3300
0000
0000
3E00
E380
80C0
0060
0060
1FE0
0060
0060
0040
80C0
E380
3E00
ENDCHAR
STARTCHAR 04EE
ENCODING 1262
SWIDTH 698 0
DWIDTH 16 0
BBX 14 19 1 0
BITMAP
1FC0
0000
0000
C00C
C008
6018
6010
3030
3020
1860
0840
0CC0
0580
0780
0300
0200
0600
7C00
7800
ENDCHAR
STARTCHAR 04EF
ENCODING 1263
SWIDTH 567 0
DWIDTH 13 0
BBX 12 21 0 -5
BITMAP
1FC0
0000
0000
0000
C010
6030
6020
2060
3060
1040
18C0
1880
0D80
0D00
0700
0700
0600
0600
0400
DC00
F800
ENDCHAR
STARTCHAR 04F0
ENCODING 1264
SWIDTH 698 0
DWIDTH 16 0
BBX 14 20 1 0
BITMAP
08C0
08C0
0000
0000
C00C
C008
6018
6010
3030
3020
1860
0840
0CC0
0580
0780
0300
0200
0600
7C00
7800
ENDCHAR
STARTCHAR 04F1
ENCODING 1265
SWIDTH 567 0
DWIDTH 13 0
BBX 12 21 0 -5
BITMAP
1980
1980
0000
0000
C010
6030
6020
2060
3060
1040
18C0
1880
0D80
0D00
0700
0700
0600
0600
0400
DC00
F800
ENDCHAR
STARTCHAR 04F2
ENCODING 1266
SWIDTH 698 0
DWIDTH 16 0
BBX 14 20 1 0
BITMAP
0320
0640
0CC0
0000
C00C
C008
6018
6010
3030
3020
1860
0840
0CC0
0580
0780
0300
0200
0600
7C00
7800
ENDCHAR
STARTCHAR 04F3
ENCODING 1267
SWIDTH 567 0
DWIDTH 13 0
BBX 12 22 0 -5
BITMAP
0660
04C0
0880
0000
0000
C010
6030
6020
2060
3060
1040
18C0
1880
0D80
0D00
0700
0700
0600
0600
0400
DC00
F800
ENDCHAR
STARTCHAR 04F4
ENCODING 1268
SWIDTH 741 0
DWIDTH 17 0
BBX 13 20 1 0
BITMAP
0CC0
0CC0
0000
0000
C018
C018
C018
C018
C018
C018
C018
6018
7038
3FF8
0018
0018
0018
0018
0018
0018
ENDCHAR
STARTCHAR 04F5
ENCODING 1269
SWIDTH 610 0
DWIDTH 14 0
BBX 10 16 1 0
BITMAP
3300
3300
0000
0000
C040
C040
C040
C040
C040
C040
71C0
3F40
0040
0040
0040
0040
ENDCHAR
STARTCHAR 04F6
ENCODING 1270
SWIDTH 567 0
DWIDTH 13 0
BBX 10 20 3 -4
BITMAP
FFC0
8000
8000
8000
8000
8000
8000
8000
8000
8000
8000
8000
8000
8000
8000
F000
3000
3000
3000
3000
ENDCHAR
STARTCHAR 04F7
ENCODING 1271
SWIDTH 480 0
DWIDTH 11 0
BBX 9 15 2 -3
BITMAP
FF80
C000
C000
C000
C000
C000
C000
C000
C000
C000
C000
F000
3000
3000
3000
ENDCHAR
STARTCHAR 04F8
ENCODING 1272
SWIDTH 960 0
DWIDTH 22 0
BBX 17 20 3 0
BITMAP
066000
066000
000000
000000
800180
800180
800180
800180
800180
800180
FFC180
806180
803180
803180
801180
801180
803180
803180
80E180
FF8180
ENDCHAR
STARTCHAR 04F9
ENCODING 1273
SWIDTH 785 0
DWIDTH 18 0
BBX 14 16 2 0
BITMAP
0C40
0C40
0000
0000
C00C
C00C
C00C
C00C
FF0C
C18C
C0CC
C0CC
C0CC
C0CC
C18C
FF0C
ENDCHAR
STARTCHAR 04FA
ENCODING 1274
SWIDTH 610 0
DWIDTH 14 0
BBX 12 21 1 -5
BITMAP
3FF0
3000
3000
3000
3000
3000
3000
3000
FFE0
3000
3000
3000
3000
3000
3000
3C00
0400
0400
0C00
5C00
7800
ENDCHAR
STARTCHAR 04FB
ENCODING 1275
SWIDTH 480 0
DWIDTH 11 0
BBX 9 17 1 -5
BITMAP
3F80
2000
2000
2000
2000
2000
FF00
2000
2000
2000
2000
3800
0800
0800
1800
B800
F000
ENDCHAR
STARTCHAR 04FC
ENCODING 1276
SWIDTH 654 0
DWIDTH 15 0
BBX 13 21 1 -5
BITMAP
C018
6030
3060
3060
18C0
0D80
0700
0700
0700
0D80
18C0
18C0
3060
6030
6010
C018
0018
0018
0018
01B8
01F0
ENDCHAR
STARTCHAR 04FD
ENCODING 1277
SWIDTH 523 0
DWIDTH 12 0
BBX 11 17 1 -5
BITMAP
C0C0
6180
2100
3300
1E00
0C00
0E00
1E00
3300
6180
40C0
C0C0
0060
0060
0060
04C0
0780
ENDCHAR
STARTCHAR 04FE
ENCODING 1278
SWIDTH 654 0
DWIDTH 15 0
BBX 13 16 1 0
BITMAP
4018
6030
3060
1860
18C0
0D80
0700
7FF0
0700
0D80
0CC0
18C0
3060
6030
6018
C018
ENDCHAR
STARTCHAR 04FF
ENCODING 1279
SWIDTH 567 0
DWIDTH 13 0
BBX 11 12 1 0
BITMAP
C040
60C0
3180
1B00
0E00
7FC0
0E00
1B00
3180
6180
60C0
C060
ENDCHAR
STARTCHAR 0510
ENCODING 1296
SWIDTH 654 0
DWIDTH 15 0
BBX 13 16 1 0
BITMAP
0FC0
3FF0
3010
6000
6000
6000
3000
0FC0
3800
6000
4000
C000
6000
6018
3CF0
0FC0
ENDCHAR
STARTCHAR 0511
ENCODING 1297
SWIDTH 523 0
DWIDTH 12 0
BBX 11 12 1 0
BITMAP
1F80
79C0
6000
4000
6000
1E00
6000
4000
C000
6000
79E0
1F80
ENDCHAR
STARTCHAR 0512
ENCODING 1298
SWIDTH 785 0
DWIDTH 18 0
BBX 15 21 0 -5
BITMAP
0FFE
0C02
0C02
0C02
0C02
0C02
0C02
0C02
0C02
0802
0802
0802
1802
1802
F002
E002
0002
0002
0006
006E
003C
ENDCHAR
STARTCHAR 0513
ENCODING 1299
SWIDTH 610 0
DWIDTH 14 0
BBX 12 17 0 -5
BITMAP
1FF0
1810
1810
1810
1810
1810
1010
1010
1010
3010
F010
E010
0010
0030
0030
0370
01E0
ENDCHAR
STARTCHAR 051A
ENCODING 1306
SWIDTH 872 0
DWIDTH 20 0
BBX 18 19 1 -3
BITMAP
03F000
0FFC00
180E00
300300
600300
400180
C00180
C00180
C00180
C00180
400180
600100
300300
380600
1E3C00
07F000
006000
0030C0
001F80
ENDCHAR
STARTCHAR 051B
ENCODING 1307
SWIDTH 698 0
DWIDTH 16 0
BBX 12 17 1 -5
BITMAP
0F90
39D0
6070
4030
C010
C010
C010
C010
4030
6070
3DD0
0F90
0010
0010
0010
0010
0010
ENDCHAR
STARTCHAR 051C
ENCODING 1308
SWIDTH 1090 0
DWIDTH 25 0
BBX 23 16 1 0
BITMAP
C03006
C03804
C03804
60680C
606C08
604C18
30C418
30C610
308630
198230
198320
190360
0F0160
0F01C0
0E01C0
0600C0
ENDCHAR
STARTCHAR 051D
ENCODING 1309
SWIDTH 916 0
DWIDTH 21 0
BBX 20 12 1 0
BITMAP
806030
C0E020
C0A060
40B060
619040
6118C0
331880
320980
120D80
1E0500
1C0700
0C0600
ENDCHAR
STARTCHAR 0524
ENCODING 1316
SWIDTH 829 0
DWIDTH 19 0
BBX 16 20 3 -4
BITMAP
FFF8
8008
8008
8008
8008
8008
8008
8008
8008
8008
8008
8008
8008
8008
8008
800F
0003
0003
0003
0003
ENDCHAR
STARTCHAR 0525
ENCODING 1317
SWIDTH 654 0
DWIDTH 15 0
BBX 13 15 2 -3
BITMAP
FFE0
C060
C060
C060
C060
C060
C060
C060
C060
C060
C060
C078
0008
0008
0008
ENDCHAR
STARTCHAR 0526
ENCODING 1318
SWIDTH 785 0
DWIDTH 18 0
BBX 15 20 3 -4
BITMAP
8000
8000
8000
8000
8000
8000
BFC0
E060
8030
8010
8010
8010
8010
8010
8010
801E
0006
0006
0006
0006
ENDCHAR
STARTCHAR 0527
ENCODING 1319
SWIDTH 698 0
DWIDTH 16 0
BBX 13 20 2 -3
BITMAP
C000
C000
C000
C000
C000
CF80
DFC0
E060
C060
C020
C020
C020
C020
C020
C020
C020
C038
0008
0008
0008
ENDCHAR
STARTCHAR 0528
ENCODING 1320
SWIDTH 829 0
DWIDTH 19 0
BBX 17 21 -1 -5
BITMAP
080180
080180
080180
080180
080180
080180
080180
0FFF80
080180
080180
080180
080180
080180
080180
080180
080180
080000
080000
180000
B80000
F00000
ENDCHAR
STARTCHAR 0529
ENCODING 1321
SWIDTH 654 0
DWIDTH 15 0
BBX 15 17 -2 -5
BITMAP
0C02
0C02
0C02
0C02
0C02
0FFE
0C02
0C02
0C02
0C02
0C02
0C02
0C00
0C00
0C00
9800
F000
ENDCHAR
STARTCHAR 052E
ENCODING 1326
SWIDTH 829 0
DWIDTH 19 0
BBX 18 20 0 -4
BITMAP
0FFE00
0C0200
0C0200
0C0200
0C0200
0C0200
0C0200
0C0200
0C0200
0C0200
080200
080200
180200
180200
F00200
E003C0
0000C0
0000C0
0000C0
0000C0
ENDCHAR
STARTCHAR 052F
ENCODING 1327
SWIDTH 654 0
DWIDTH 15 0
BBX 14 14 0 -2
BITMAP
1FF0
1810
1810
1810
1810
1810
1010
1010
1010
3010
7010
E01C
0004
0004
ENDCHAR
STARTCHAR 1E08
ENCODING 7688
SWIDTH 698 0
DWIDTH 16 0
BBX 14 26 1 -6
BITMAP
0070
00C0
0180
0000
07F0
1FFC
3804
7000
6000
4000
C000
C000
C000
C000
4000
6000
3000
380C
0FFC
03F0
0080
0180
0040
0040
0040
0380
ENDCHAR
STARTCHAR 1E09
ENCODING 7689
SWIDTH 567 0
DWIDTH 13 0
BBX 11 23 1 -6
BITMAP
0180
0300
0600
0000
0000
0F80
39C0
6060
4000
C000
C000
C000
C000
4000
6060
39C0
1F80
0400
0600
0300
0100
0300
0E00
ENDCHAR
STARTCHAR 1E0C
ENCODING 7692
SWIDTH 829 0
DWIDTH 19 0
BBX 15 20 3 -4
BITMAP
FF80
81E0
8038
8018
800C
8004
8006
8006
8006
8006
8004
800C
8018
8038
81E0
FF80
0000
0000
0600
0600
ENDCHAR
STARTCHAR 1E0D
ENCODING 7693
SWIDTH 698 0
DWIDTH 16 0
BBX 12 21 1 -4
BITMAP
0010
0010
0010
0010
0010
0F10
39D0
6070
4030
C030
C010
C010
C030
4030
6070
39D0
0F10
0000
0000
0300
0300
ENDCHAR
STARTCHAR 1E0E
ENCODING 7694
SWIDTH 829 0
DWIDTH 19 0
BBX 15 20 3 -4
BITMAP
FF80
81E0
8038
8018
800C
8004
8006
8006
8006
8006
8004
800C
8018
8038
81E0
FF80
0000
0000
0000
3F80
ENDCHAR
STARTCHAR 1E0F
ENCODING 7695
SWIDTH 698 0
DWIDTH 16 0
BBX 12 21 1 -4
BITMAP
0010
0010
0010
0010
0010
0F10
39D0
6070
4030
C030
C010
C010
C030
4030
6070
39D0
0F10
0000
0000
0000
1FC0
ENDCHAR
STARTCHAR 1E14
ENCODING 7700
SWIDTH 654 0
DWIDTH 15 0
BBX 11 23 3 0
BITMAP
3000
0800
0600
0000
3F80
0000
0000
FFE0
8000
8000
8000
8000
8000
8000
FFC0
8000
8000
8000
8000
8000
8000
8000
FFE0
ENDCHAR
STARTCHAR 1E15
ENCODING 7701
SWIDTH 610 0
DWIDTH 14 0
BBX 12 19 1 0
BITMAP
1C00
0600
0000
0000
3F80
0000
0000
1F00
39C0
6060
C020
C030
FFF0
C000
C000
4000
6020
3DE0
0F80
ENDCHAR
STARTCHAR 1E16
ENCODING 7702
SWIDTH 654 0
DWIDTH 15 0
BBX 11 23 3 0
BITMAP
0300
0400
0800
0000
3F80
0000
0000
FFE0
8000
8000
8000
8000
8000
8000
FFC0
8000
8000
8000
8000
8000
8000
8000
FFE0
ENDCHAR
STARTCHAR 1E17
ENCODING 7703
SWIDTH 610 0
DWIDTH 14 0
BBX 12 19 1 0
BITMAP
0380
0600
0000
0000
3F80
0000
0000
1F00
39C0
6060
C020
C030
FFF0
C000
C000
4000
6020
3DE0
0F80
ENDCHAR
STARTCHAR 1E1C
ENCODING 7708
SWIDTH 654 0
DWIDTH 15 0
BBX 11 26 3 -6
BITMAP
2180
3100
1E00
0000
FFE0
8000
8000
8000
8000
8000
8000
FFC0
8000
8000
8000
8000
8000
8000
8000
FFE0
0400
0C00
0200
0300
1200
1E00
ENDCHAR
STARTCHAR 1E1D
ENCODING 7709
SWIDTH 610 0
DWIDTH 14 0
BBX 12 23 1 -6
BITMAP
3080
1080
0F00
0000
0000
1F00
39C0
6060
C020
C030
FFF0
C000
C000
4000
6020
3DE0
0F80
0400
0600
0100
0100
0100
0E00
ENDCHAR
STARTCHAR 1E20
ENCODING 7712
SWIDTH 785 0
DWIDTH 18 0
BBX 15 19 1 0
BITMAP
07F0
0000
0000
07F0
1FFC
3804
7000
6000
4000
C000
C000
C006
C006
4006
6006
3006
3806
0FFC
03F0
ENDCHAR
STARTCHAR 1E21
ENCODING 7713
SWIDTH 698 0
DWIDTH 16 0
BBX 12 21 1 -5
BITMAP
1FC0
0000
0000
0000
0F90
39D0
6070
4030
C010
C010
C010
C010
4030
6070
39D0
0F90
0010
0030
4030
79E0
1F80
ENDCHAR
STARTCHAR 1E24
ENCODING 7716
SWIDTH 829 0
DWIDTH 19 0
BBX 13 20 3 -4
BITMAP
8018
8018
8018
8018
8018
8018
8018
FFF8
8018
8018
8018
8018
8018
8018
8018
8018
0000
0000
0600
0600
ENDCHAR
STARTCHAR 1E25
ENCODING 7717
SWIDTH 698 0
DWIDTH 16 0
BBX 11 21 2 -4
BITMAP
C000
C000
C000
C000
C000
CF80
FDC0
E060
C060
C020
C020
C020
C020
C020
C020
C020
C020
0000
0000
0600
0600
ENDCHAR
STARTCHAR 1E2A
ENCODING 7722
SWIDTH 829 0
DWIDTH 19 0
BBX 13 21 3 -5
BITMAP
8018
8018
8018
8018
8018
8018
8018
FFF8
8018
8018
8018
8018
8018
8018
8018
8018
0000
0000
1040
1880
0F00
ENDCHAR
STARTCHAR 1E2B
ENCODING 7723
SWIDTH 698 0
DWIDTH 16 0
BBX 11 22 2 -5
BITMAP
C000
C000
C000
C000
C000
CF80
FDC0
E060
C060
C020
C020
C020
C020
C020
C020
C020
C020
0000
0000
2080
1180
0F00
ENDCHAR
STARTCHAR 1E2E
ENCODING 7726
SWIDTH 305 0
DWIDTH 7 0
BBX 5 23 1 0
BITMAP
18
30
60
88
88
00
00
20
20
20
20
20
20
20
20
20
20
20
20
20
20
20
20
ENDCHAR
STARTCHAR 1E2F
ENCODING 7727
SWIDTH 261 0
DWIDTH 6 0
BBX 6 19 0 0
BITMAP
0C
10
20
CC
CC
00
00
30
30
30
30
30
30
30
30
30
30
30
30
ENDCHAR
STARTCHAR 1E36
ENCODING 7734
SWIDTH 610 0
DWIDTH 14 0
BBX 10 20 3 -4
BITMAP
8000
8000
8000
8000
8000
8000
8000
8000
8000
8000
8000
8000
8000
8000
8000
FFC0
0000
0000
0C00
0C00
ENDCHAR
STARTCHAR 1E37
ENCODING 7735
SWIDTH 261 0
DWIDTH 6 0
BBX 2 21 2 -4
BITMAP
C0
C0
C0
C0
C0
C0
C0
C0
C0
C0
C0
C0
C0
C0
C0
C0
C0
00
00
C0
C0
ENDCHAR
STARTCHAR 1E3A
ENCODING 7738
SWIDTH 610 0
DWIDTH 14 0
BBX 10 20 3 -4
BITMAP
8000
8000
8000
8000
8000
8000
8000
8000
8000
8000
8000
8000
8000
8000
8000
FFC0
0000
0000
0000
3F80
ENDCHAR
STARTCHAR 1E3B
ENCODING 7739
SWIDTH 261 0
DWIDTH 6 0
BBX 7 21 0 -4
BITMAP
30
30
30
30
30
30
30
30
30
30
30
30
30
30
30
30
30
00
00
00
FE
ENDCHAR
STARTCHAR 1E42
ENCODING 7746
SWIDTH 960 0
DWIDTH 22 0
BBX 16 20 3 -4
BITMAP
8001
C003
C007
E005
B00D
9009
9819
8811
8C31
8661
8641
83C1
8181
8181
8001
8001
0000
0000
0180
0180
ENDCHAR
STARTCHAR 1E43
ENCODING 7747
SWIDTH 1047 0
DWIDTH 24 0
BBX 20 16 2 -4
BITMAP
CF87C0
FBDFE0
E07030
C07030
C06030
C06010
C06010
C06010
C06010
C06010
C06010
C06010
000000
000000
006000
006000
ENDCHAR
STARTCHAR 1E44
ENCODING 7748
SWIDTH 829 0
DWIDTH 19 0
BBX 13 20 3 0
BITMAP
0600
0600
0000
0000
8018
C018
E018
B018
B818
9818
8C18
8618
8318
8398
8198
80D8
8078
8038
8038
8018
ENDCHAR
STARTCHAR 1E45
ENCODING 7749
SWIDTH 698 0
DWIDTH 16 0
BBX 11 16 2 0
BITMAP
0600
0600
0000
0000
CF80
FDC0
E060
C060
C020
C020
C020
C020
C020
C020
C020
C020
ENDCHAR
STARTCHAR 1E46
ENCODING 7750
SWIDTH 829 0
DWIDTH 19 0
BBX 13 20 3 -4
BITMAP
8018
C018
E018
B018
B818
9818
8C18
8618
8318
8398
8198
80D8
8078
8038
8038
8018
0000
0000
0600
0600
ENDCHAR
STARTCHAR 1E47
ENCODING 7751
SWIDTH 698 0
DWIDTH 16 0
BBX 11 16 2 -4
BITMAP
CF80
FDC0
E060
C060
C020
C020
C020
C020
C020
C020
C020
C020
0000
0000
0600
0600
ENDCHAR
STARTCHAR 1E48
ENCODING 7752
SWIDTH 829 0
DWIDTH 19 0
BBX 13 20 3 -4
BITMAP
8018
C018
E018
B018
B818
9818
8C18
8618
8318
8398
8198
80D8
8078
8038
8038
8018
0000
0000
0000
1FC0
ENDCHAR
STARTCHAR 1E49
ENCODING 7753
SWIDTH 698 0
DWIDTH 16 0
BBX 11 16 2 -4
BITMAP
CF80
FDC0
E060
C060
C020
C020
C020
C020
C020
C020
C020
C020
0000
0000
0000
3F80
ENDCHAR
STARTCHAR 1E4C
ENCODING 7756
SWIDTH 829 0
DWIDTH 19 0
BBX 17 22 1 0
BITMAP
006000
008000
000000
079000
047000
000000
03F000
0FFC00
380E00
300300
600300
400180
C00180
C00180
C00180
C00180
400180
600300
300300
380E00
0FFC00
03F000
ENDCHAR
STARTCHAR 1E4D
ENCODING 7757
SWIDTH 610 0
DWIDTH 14 0
BBX 12 19 1 0
BITMAP
0180
0300
0400
1C40
1380
0000
0000
0F80
39C0
6060
4030
C030
C010
C010
C030
4030
6060
39C0
0F80
ENDCHAR
STARTCHAR 1E4E
ENCODING 7758
SWIDTH 829 0
DWIDTH 19 0
BBX 17 23 1 0
BITMAP
022000
022000
000000
030000
049000
046000
000000
03F000
0FFC00
380E00
300300
600300
400180
C00180
C00180
C00180
C00180
400180
600300
300300
380E00
0FFC00
03F000
ENDCHAR
STARTCHAR 1E4F
ENCODING 7759
SWIDTH 610 0
DWIDTH 14 0
BBX 12 19 1 0
BITMAP
1980
1980
0000
1C40
1380
0000
0000
0F80
39C0
6060
4030
C030
C010
C010
C030
4030
6060
39C0
0F80
ENDCHAR
STARTCHAR 1E50
ENCODING 7760
SWIDTH 829 0
DWIDTH 19 0
BBX 17 22 1 0
BITMAP
030000
008000
000000
07F000
000000
000000
03F000
0FFC00
380E00
300300
600300
400180
C00180
C00180
C00180
C00180
400180
600300
300300
380E00
0FFC00
03F000
ENDCHAR
STARTCHAR 1E51
ENCODING 7761
SWIDTH 610 0
DWIDTH 14 0
BBX 12 19 1 0
BITMAP
1C00
0600
0000
0000
1FC0
0000
0000
0F80
39C0
6060
4030
C030
C010
C010
C030
4030
6060
39C0
0F80
ENDCHAR
STARTCHAR 1E52
ENCODING 7762
SWIDTH 829 0
DWIDTH 19 0
BBX 17 22 1 0
BITMAP
006000
008000
000000
07F000
000000
000000
03F000
0FFC00
380E00
300300
600300
400180
C00180
C00180
C00180
C00180
400180
600300
300300
380E00
0FFC00
03F000
ENDCHAR
STARTCHAR 1E53
ENCODING 7763
SWIDTH 610 0
DWIDTH 14 0
BBX 12 19 1 0
BITMAP
0380
0600
0000
0000
1FC0
0000
0000
0F80
39C0
6060
4030
C030
C010
C010
C030
4030
6060
39C0
0F80
ENDCHAR
STARTCHAR 1E5A
ENCODING 7770
SWIDTH 741 0
DWIDTH 17 0
BBX 12 20 3 -4
BITMAP
FF80
83C0
8060
8030
8030
8030
8030
8030
8060
81C0
FF80
8180
80C0
8060
8060
8030
0000
0000
0400
0400
ENDCHAR
STARTCHAR 1E5B
ENCODING 7771
SWIDTH 392 0
DWIDTH 9 0
BBX 6 16 2 -4
BITMAP
CC
FC
E0
C0
C0
C0
C0
C0
C0
C0
C0
C0
00
00
C0
C0
ENDCHAR
STARTCHAR 1E5E
ENCODING 7774
SWIDTH 741 0
DWIDTH 17 0
BBX 12 20 3 -4
BITMAP
FF80
83C0
8060
8030
8030
8030
8030
8030
8060
81C0
FF80
8180
80C0
8060
8060
8030
0000
0000
0000
3F80
ENDCHAR
STARTCHAR 1E5F
ENCODING 7775
SWIDTH 392 0
DWIDTH 9 0
BBX 8 16 0 -4
BITMAP
33
3F
38
30
30
30
30
30
30
30
30
30
00
00
00
FE
ENDCHAR
STARTCHAR 1E60
ENCODING 7776
SWIDTH 610 0
DWIDTH 14 0
BBX 12 20 1 0
BITMAP
0600
0600
0000
0000
1F80
3DE0
6020
4000
C000
4000
7000
3E00
07C0
00E0
0030
0030
0030
C030
79E0
1F80
ENDCHAR
STARTCHAR 1E61
ENCODING 7777
SWIDTH 480 0
DWIDTH 11 0
BBX 9 16 1 0
BITMAP
0C00
0800
0000
0000
3F00
7380
C000
C000
C000
7800
1F00
0180
0080
8080
E380
7E00
ENDCHAR
STARTCHAR 1E62
ENCODING 7778
SWIDTH 610 0
DWIDTH 14 0
BBX 12 20 1 -4
BITMAP
1F80
3DE0
6020
4000
C000
4000
7000
3E00
07C0
00E0
0030
0030
0030
C030
79E0
1F80
0000
0000
0600
0600
ENDCHAR
STARTCHAR 1E63
ENCODING 7779
SWIDTH 480 0
DWIDTH 11 0
BBX 9 16 1 -4
BITMAP
3F00
7380
C000
C000
C000
7800
1F00
0180
0080
8080
E380
7E00
0000
0000
0800
0800
ENDCHAR
STARTCHAR 1E64
ENCODING 7780
SWIDTH 610 0
DWIDTH 14 0
BBX 12 23 1 0
BITMAP
0600
0600
0000
0000
0180
0200
0000
1F80
3DE0
6020
4000
C000
4000
7000
3E00
07C0
00E0
0030
0030
0030
C030
79E0
1F80
ENDCHAR
STARTCHAR 1E65
ENCODING 7781
SWIDTH 480 0
DWIDTH 11 0
BBX 9 19 1 0
BITMAP
0800
0800
0000
0600
0800
0000
0000
3F00
7380
C000
C000
C000
7800
1F00
0180
0080
8080
E380
7E00
ENDCHAR
STARTCHAR 1E66
ENCODING 7782
SWIDTH 610 0
DWIDTH 14 0
BBX 12 22 1 0
BITMAP
0600
0600
0000
1880
0700
0000
1F80
3DE0
6020
4000
C000
4000
7000
3E00
07C0
00E0
0030
0030
0030
C030
79E0
1F80
ENDCHAR
STARTCHAR 1E67
ENCODING 7783
SWIDTH 480 0
DWIDTH 11 0
BBX 9 19 1 0
BITMAP
0800
0800
0000
6300
1C00
0000
0000
3F00
7380
C000
C000
C000
7800
1F00
0180
0080
8080
E380
7E00
ENDCHAR
STARTCHAR 1E68
ENCODING 7784
SWIDTH 610 0
DWIDTH 14 0
BBX 12 24 1 -4
BITMAP
0600
0600
0000
0000
1F80
3DE0
6020
4000
C000
4000
7000
3E00
07C0
00E0
0030
0030
0030
C030
79E0
1F80
0000
0000
0600
0600
ENDCHAR
STARTCHAR 1E69
ENCODING 7785
SWIDTH 480 0
DWIDTH 11 0
BBX 9 20 1 -4
BITMAP
0C00
0800
0000
0000
3F00
7380
C000
C000
C000
7800
1F00
0180
0080
8080
E380
7E00
0000
0000
0800
0800
ENDCHAR
STARTCHAR 1E6C
ENCODING 7788
SWIDTH 567 0
DWIDTH 13 0
BBX 13 20 0 -4
BITMAP
FFF8
0200
0200
0200
0200
0200
0200
0200
0200
0200
0200
0200
0200
0200
0200
0200
0000
0000
0200
0200
ENDCHAR
STARTCHAR 1E6D
ENCODING 7789
SWIDTH 392 0
DWIDTH 9 0
BBX 8 19 0 -4
BITMAP
10
10
10
FF
10
10
10
10
10
10
10
10
10
19
0F
00
00
06
06
ENDCHAR
STARTCHAR 1E6E
ENCODING 7790
SWIDTH 567 0
DWIDTH 13 0
BBX 13 20 0 -4
BITMAP
FFF8
0200
0200
0200
0200
0200
0200
0200
0200
0200
0200
0200
0200
0200
0200
0200
0000
0000
0000
1FC0
ENDCHAR
STARTCHAR 1E6F
ENCODING 7791
SWIDTH 392 0
DWIDTH 9 0
BBX 9 19 0 -4
BITMAP
1000
1000
1000
FF00
1000
1000
1000
1000
1000
1000
1000
1000
1000
1900
0F00
0000
0000
0000
3F80
ENDCHAR
STARTCHAR 1E78
ENCODING 7800
SWIDTH 785 0
DWIDTH 18 0
BBX 14 23 2 0
BITMAP
00C0
0100
0200
0E00
0B40
09C0
0000
C00C
C00C
C00C
C00C
C00C
C00C
C00C
C00C
C00C
C00C
400C
4008
6018
3030
3FF0
0FC0
ENDCHAR
STARTCHAR 1E79
ENCODING 7801
SWIDTH 654 0
DWIDTH 15 0
BBX 11 19 2 0
BITMAP
0300
0600
0C00
1C80
2380
0000
0000
C060
C060
C060
C060
C060
C060
C060
C060
C060
60E0
7BA0
1F20
ENDCHAR
STARTCHAR 1E7A
ENCODING 7802
SWIDTH 785 0
DWIDTH 18 0
BBX 14 23 2 0
BITMAP
0CC0
0CC0
0000
0000
0FE0
0000
0000
C00C
C00C
C00C
C00C
C00C
C00C
C00C
C00C
C00C
C00C
400C
4008
6018
3030
3FF0
0FC0
ENDCHAR
STARTCHAR 1E7B
ENCODING 7803
SWIDTH 654 0
DWIDTH 15 0
BBX 11 19 2 0
BITMAP
1180
1100
0000
0000
3F80
0000
0000
C060
C060
C060
C060
C060
C060
C060
C060
C060
60E0
7BA0
1F20
ENDCHAR
STARTCHAR 1E80
ENCODING 7808
SWIDTH 1090 0
DWIDTH 25 0
BBX 23 20 1 0
BITMAP
006000
003000
001800
000000
C01802
C03806
403806
602C04
606C0C
20640C
304608
30C218
10C218
188310
198130
0981B0
0D01A0
0F00E0
0700E0
0600C0
ENDCHAR
STARTCHAR 1E81
ENCODING 7809
SWIDTH 872 0
DWIDTH 20 0
BBX 20 17 0 0
BITMAP
018000
00C000
006000
000000
000000
C06030
406020
60F020
60D060
209040
3198C0
110880
190C80
1B0D80
0A0500
0E0700
040300
ENDCHAR
STARTCHAR 1E82
ENCODING 7810
SWIDTH 1090 0
DWIDTH 25 0
BBX 23 20 1 0
BITMAP
000600
000C00
001000
000000
C01802
C03806
403806
602C04
606C0C
20640C
304608
30C218
10C218
188310
198130
0981B0
0D01A0
0F00E0
0700E0
0600C0
ENDCHAR
STARTCHAR 1E83
ENCODING 7811
SWIDTH 872 0
DWIDTH 20 0
BBX 20 17 0 0
BITMAP
001800
003000
006000
000000
000000
C06030
406020
60F020
60D060
209040
3198C0
110880
190C80
1B0D80
0A0500
0E0700
040300
ENDCHAR
STARTCHAR 1E84
ENCODING 7812
SWIDTH 1090 0
DWIDTH 25 0
BBX 23 20 1 0
BITMAP
006600
006600
000000
000000
C01802
C03806
403806
602C04
606C0C
20640C
304608
30C218
10C218
188310
198130
0981B0
0D01A0
0F00E0
0700E0
0600C0
ENDCHAR
STARTCHAR 1E85
ENCODING 7813
SWIDTH 872 0
DWIDTH 20 0
BBX 20 16 0 0
BITMAP
019800
019800
000000
000000
C06030
406020
60F020
60D060
209040
3198C0
110880
190C80
1B0D80
0A0500
0E0700
040300
ENDCHAR
STARTCHAR 1E8E
ENCODING 7822
SWIDTH 654 0
DWIDTH 15 0
BBX 14 20 0 0
BITMAP
0300
0300
0000
0000
C004
600C
2018
3010
1830
1860
0C60
04C0
0680
0380
0300
0300
0300
0300
0300
0300
ENDCHAR
STARTCHAR 1E8F
ENCODING 7823
SWIDTH 523 0
DWIDTH 12 0
BBX 12 21 0 -5
BITMAP
0600
0600
0000
0000
C010
4030
6020
2060
3040
30C0
18C0
1880
0980
0D00
0700
0600
0600
0600
0C00
D800
F000
ENDCHAR
STARTCHAR 1E92
ENCODING 7826
SWIDTH 654 0
DWIDTH 15 0
BBX 13 20 1 -4
BITMAP
FFF8
0018
0030
0060
00C0
0180
0180
0300
0600
0C00
1C00
1800
3000
6000
C000
FFF8
0000
0000
0300
0300
ENDCHAR
STARTCHAR 1E93
ENCODING 7827
SWIDTH 523 0
DWIDTH 12 0
BBX 10 16 1 -4
BITMAP
FFC0
0180
0100
0300
0600
0C00
1800
1800
3000
6000
C000
FFC0
0000
0000
0C00
0C00
ENDCHAR
STARTCHAR 1E97
ENCODING 7831
SWIDTH 392 0
DWIDTH 9 0
BBX 8 19 0 0
BITMAP
C4
C4
00
00
10
10
10
FF
10
10
10
10
10
10
10
10
10
19
0F
ENDCHAR
STARTCHAR 1E9E
ENCODING 7838
SWIDTH 741 0
DWIDTH 17 0
BBX 14 16 2 0
BITMAP
0FE0
3C78
3010
6030
4060
40C0
C180
C3F0
C018
C00C
C00C
C00C
C00C
C00C
C278
C7E0
ENDCHAR
STARTCHAR 1EA0
ENCODING 7840
SWIDTH 698 0
DWIDTH 16 0
BBX 16 20 0 -4
BITMAP
0180
01C0
0340
0260
0660
0630
0C30
0C10
1818
1808
100C
3FFC
2006
6006
6003
C003
0000
0000
0180
0180
ENDCHAR
STARTCHAR 1EA1
ENCODING 7841
SWIDTH 610 0
DWIDTH 14 0
BBX 10 16 1 -4
BITMAP
1F00
7380
40C0
0040
0040
3FC0
6040
C040
C040
C0C0
6340
3E40
0000
0000
0400
0400
ENDCHAR
STARTCHAR 1EA2
ENCODING 7842
SWIDTH 698 0
DWIDTH 16 0
BBX 16 22 0 0
BITMAP
03C0
0040
0040
0040
0080
0000
0180
01C0
0340
0260
0660
0630
0C30
0C10
1818
1808
100C
3FFC
2006
6006
6003
C003
ENDCHAR
STARTCHAR 1EA3
ENCODING 7843
SWIDTH 610 0
DWIDTH 14 0
BBX 10 18 1 0
BITMAP
0E00
0300
0100
0200
0000
0000
1F00
7380
40C0
0040
0040
3FC0
6040
C040
C040
C0C0
6340
3E40
ENDCHAR
STARTCHAR 1EA4
ENCODING 7844
SWIDTH 698 0
DWIDTH 16 0
BBX 16 21 0 0
BITMAP
000C
0010
01C0
0620
0000
0180
01C0
0340
0260
0660
0630
0C30
0C10
1818
1808
100C
3FFC
2006
6006
6003
C003
ENDCHAR
STARTCHAR 1EA5
ENCODING 7845
SWIDTH 610 0
DWIDTH 14 0
BBX 12 18 1 0
BITMAP
0070
00C0
0E00
1100
2080
0000
1F00
7380
40C0
0040
0040
3FC0
6040
C040
C040
C0C0
6340
3E40
ENDCHAR
STARTCHAR 1EA6
ENCODING 7846
SWIDTH 698 0
DWIDTH 16 0
BBX 16 21 0 0
BITMAP
0060
0018
01C0
0620
0000
0180
01C0
0340
0260
0660
0630
0C30
0C10
1818
1808
100C
3FFC
2006
6006
6003
C003
ENDCHAR
STARTCHAR 1EA7
ENCODING 7847
SWIDTH 610 0
DWIDTH 14 0
BBX 10 18 1 0
BITMAP
0380
00C0
0E00
1100
2080
0000
1F00
7380
40C0
0040
0040
3FC0
6040
C040
C040
C0C0
6340
3E40
ENDCHAR
STARTCHAR 1EA8
ENCODING 7848
SWIDTH 698 0
DWIDTH 16 0
BBX 16 22 0 0
BITMAP
0030
0008
0010
01C0
0620
0000
0180
01C0
0340
0260
0660
0630
0C30
0C10
1818
1808
100C
3FFC
2006
6006
6003
C003
ENDCHAR
STARTCHAR 1EA9
ENCODING 7849
SWIDTH 610 0
DWIDTH 14 0
BBX 10 19 1 0
BITMAP
0180
0040
0040
0E80
1100
2080
0000
1F00
7380
40C0
0040
0040
3FC0
6040
C040
C040
C0C0
6340
3E40
ENDCHAR
STARTCHAR 1EAA
ENCODING 7850
SWIDTH 698 0
DWIDTH 16 0
BBX 16 23 0 0
BITMAP
0700
0590
04E0
0000
01C0
0620
0000
0180
01C0
0340
0260
0660
0630
0C30
0C10
1818
1808
100C
3FFC
2006
6006
6003
C003
ENDCHAR
STARTCHAR 1EAB
ENCODING 7851
SWIDTH 610 0
DWIDTH 14 0
BBX 10 19 1 0
BITMAP
1880
2780
0000
0E00
1100
2080
0000
1F00
7380
40C0
0040
0040
3FC0
6040
C040
C040
C0C0
6340
3E40
ENDCHAR
STARTCHAR 1EAC
ENCODING 7852
SWIDTH 698 0
DWIDTH 16 0
BBX 16 24 0 -4
BITMAP
01C0
0360
0430
0000
0180
01C0
0340
0260
0660
0630
0C30
0C10
1818
1808
100C
3FFC
2006
6006
6003
C003
0000
0000
0180
0180
ENDCHAR
STARTCHAR 1EAD
ENCODING 7853
SWIDTH 610 0
DWIDTH 14 0
BBX 10 21 1 -4
BITMAP
0E00
1B00
3180
0000
0000
1F00
7380
40C0
0040
0040
3FC0
6040
C040
C040
C0C0
6340
3E40
0000
0000
0400
0400
ENDCHAR
STARTCHAR 1EAE
ENCODING 7854
SWIDTH 698 0
DWIDTH 16 0
BBX 16 22 0 0
BITMAP
00E0
0180
0410
0420
03C0
0000
0180
01C0
0340
0260
0660
0630
0C30
0C10
1818
1808
100C
3FFC
2006
6006
6003
C003
ENDCHAR
STARTCHAR 1EAF
ENCODING 7855
SWIDTH 610 0
DWIDTH 14 0
BBX 10 19 1 0
BITMAP
0300
0600
0C00
2080
1F00
0000
0000
1F00
7380
40C0
0040
0040
3FC0
6040
C040
C040
C0C0
6340
3E40
ENDCHAR
STARTCHAR 1EB0
ENCODING 7856
SWIDTH 698 0
DWIDTH 16 0
BBX 16 22 0 0
BITMAP
0300
0080
0410
0420
03C0
0000
0180
01C0
0340
0260
0660
0630
0C30
0C10
1818
1808
100C
3FFC
2006
6006
6003
C003
ENDCHAR
STARTCHAR 1EB1
ENCODING 7857
SWIDTH 610 0
DWIDTH 14 0
BBX 10 19 1 0
BITMAP
1800
0C00
0600
2080
1F00
0000
0000
1F00
7380
40C0
0040
0040
3FC0
6040
C040
C040
C0C0
6340
3E40
ENDCHAR
STARTCHAR 1EB2
ENCODING 7858
SWIDTH 698 0
DWIDTH 16 0
BBX 16 23 0 0
BITMAP
0180
0040
0040
0080
0420
03C0
0000
0180
01C0
0340
0260
0660
0630
0C30
0C10
1818
1808
100C
3FFC
2006
6006
6003
C003
ENDCHAR
STARTCHAR 1EB3
ENCODING 7859
SWIDTH 610 0
DWIDTH 14 0
BBX 10 19 1 0
BITMAP
0E00
0200
0200
2080
1F00
0000
0000
1F00
7380
40C0
0040
0040
3FC0
6040
C040
C040
C0C0
6340
3E40
ENDCHAR
STARTCHAR 1EB4
ENCODING 7860
SWIDTH 698 0
DWIDTH 16 0
BBX 16 23 0 0
BITMAP
0700
0590
04E0
0000
0420
03C0
0000
0180
01C0
0340
0260
0660
0630
0C30
0C10
1818
1808
100C
3FFC
2006
6006
6003
C003
ENDCHAR
STARTCHAR 1EB5
ENCODING 7861
SWIDTH 610 0
DWIDTH 14 0
BBX 10 19 1 0
BITMAP
1880
2780
0000
2080
1F00
0000
0000
1F00
7380
40C0
0040
0040
3FC0
6040
C040
C040
C0C0
6340
3E40
ENDCHAR
STARTCHAR 1EB6
ENCODING 7862
SWIDTH 698 0
DWIDTH 16 0
BBX 16 24 0 -4
BITMAP
0430
0620
03C0
0000
0180
01C0
0340
0260
0660
0630
0C30
0C10
1818
1808
100C
3FFC
2006
6006
6003
C003
0000
0000
0180
0180
ENDCHAR
STARTCHAR 1EB7
ENCODING 7863
SWIDTH 610 0
DWIDTH 14 0
BBX 10 21 1 -4
BITMAP
2080
3180
1F00
0000
0000
1F00
7380
40C0
0040
0040
3FC0
6040
C040
C040
C0C0
6340
3E40
0000
0000
0400
0400
ENDCHAR
STARTCHAR 1EB8
ENCODING 7864
SWIDTH 654 0
DWIDTH 15 0
BBX 11 20 3 -4
BITMAP
FFE0
8000
8000
8000
8000
8000
8000
FFC0
8000
8000
8000
8000
8000
8000
8000
FFE0
0000
0000
0400
0400
ENDCHAR
STARTCHAR 1EB9
ENCODING 7865
SWIDTH 610 0
DWIDTH 14 0
BBX 12 16 1 -4
BITMAP
1F00
39C0
6060
C020
C030
FFF0
C000
C000
4000
6020
3DE0
0F80
0000
0000
0600
0600
ENDCHAR
STARTCHAR 1EBA
ENCODING 7866
SWIDTH 654 0
DWIDTH 15 0
BBX 11 22 3 0
BITMAP
1E00
0200
0200
0200
0400
0000
FFE0
8000
8000
8000
8000
8000
8000
FFC0
8000
8000
8000
8000
8000
8000
8000
FFE0
ENDCHAR
STARTCHAR 1EBB
ENCODING 7867
SWIDTH 610 0
DWIDTH 14 0
BBX 12 18 1 0
BITMAP
0E00
0100
0100
0300
0000
0000
1F00
39C0
6060
C020
C030
FFF0
C000
C000
4000
6020
3DE0
0F80
ENDCHAR
STARTCHAR 1EBC
ENCODING 7868
SWIDTH 654 0
DWIDTH 15 0
BBX 11 20 3 0
BITMAP
3880
2580
0300
0000
FFE0
8000
8000
8000
8000
8000
8000
FFC0
8000
8000
8000
8000
8000
8000
8000
FFE0
ENDCHAR
STARTCHAR 1EBD
ENCODING 7869
SWIDTH 610 0
DWIDTH 14 0
BBX 12 16 1 0
BITMAP
1C40
3280
0180
0000
1F00
39C0
6060
C020
C030
FFF0
C000
C000
4000
6020
3DE0
0F80
ENDCHAR
STARTCHAR 1EBE
ENCODING 7870
SWIDTH 654 0
DWIDTH 15 0
BBX 11 21 3 0
BITMAP
0060
0080
1E00
3100
0000
FFE0
8000
8000
8000
8000
8000
8000
FFC0
8000
8000
8000
8000
8000
8000
8000
FFE0
ENDCHAR
STARTCHAR 1EBF
ENCODING 7871
SWIDTH 610 0
DWIDTH 14 0
BBX 12 18 1 0
BITMAP
0030
0040
0E00
1980
0000
0000
1F00
39C0
6060
C020
C030
FFF0
C000
C000
4000
6020
3DE0
0F80
ENDCHAR
STARTCHAR 1EC0
ENCODING 7872
SWIDTH 654 0
DWIDTH 15 0
BBX 11 21 3 0
BITMAP
0300
0080
1E00
3100
0000
FFE0
8000
8000
8000
8000
8000
8000
FFC0
8000
8000
8000
8000
8000
8000
8000
FFE0
ENDCHAR
STARTCHAR 1EC1
ENCODING 7873
SWIDTH 610 0
DWIDTH 14 0
BBX 12 18 1 0
BITMAP
0180
0040
0E00
1980
0000
0000
1F00
39C0
6060
C020
C030
FFF0
C000
C000
4000
6020
3DE0
0F80
ENDCHAR
STARTCHAR 1EC2
ENCODING 7874
SWIDTH 654 0
DWIDTH 15 0
BBX 11 22 3 0
BITMAP
0380
0080
0080
1E00
3100
0000
FFE0
8000
8000
8000
8000
8000
8000
FFC0
8000
8000
8000
8000
8000
8000
8000
FFE0
ENDCHAR
STARTCHAR 1EC3
ENCODING 7875
SWIDTH 610 0
DWIDTH 14 0
BBX 12 19 1 0
BITMAP
01C0
0040
0040
0E00
1980
0000
0000
1F00
39C0
6060
C020
C030
FFF0
C000
C000
4000
6020
3DE0
0F80
ENDCHAR
STARTCHAR 1EC4
ENCODING 7876
SWIDTH 654 0
DWIDTH 15 0
BBX 11 23 3 0
BITMAP
3800
2C80
2700
0000
1E00
3100
0000
FFE0
8000
8000
8000
8000
8000
8000
FFC0
8000
8000
8000
8000
8000
8000
8000
FFE0
ENDCHAR
STARTCHAR 1EC5
ENCODING 7877
SWIDTH 610 0
DWIDTH 14 0
BBX 12 19 1 0
BITMAP
1C80
3380
0000
0E00
1980
0000
0000
1F00
39C0
6060
C020
C030
FFF0
C000
C000
4000
6020
3DE0
0F80
ENDCHAR
STARTCHAR 1EC6
ENCODING 7878
SWIDTH 654 0
DWIDTH 15 0
BBX 11 24 3 -4
BITMAP
0C00
1300
2180
0000
FFE0
8000
8000
8000
8000
8000
8000
FFC0
8000
8000
8000
8000
8000
8000
8000
FFE0
0000
0000
0400
0400
ENDCHAR
STARTCHAR 1EC7
ENCODING 7879
SWIDTH 610 0
DWIDTH 14 0
BBX 12 21 1 -4
BITMAP
0600
0B00
1080
0000
0000
1F00
39C0
6060
C020
C030
FFF0
C000
C000
4000
6020
3DE0
0F80
0000
0000
0600
0600
ENDCHAR
STARTCHAR 1EC8
ENCODING 7880
SWIDTH 305 0
DWIDTH 7 0
BBX 4 22 2 0
BITMAP
E0
30
10
20
00
00
40
40
40
40
40
40
40
40
40
40
40
40
40
40
40
40
ENDCHAR
STARTCHAR 1EC9
ENCODING 7881
SWIDTH 261 0
DWIDTH 6 0
BBX 4 18 1 0
BITMAP
F0
10
10
30
00
00
60
60
60
60
60
60
60
60
60
60
60
60
ENDCHAR
STARTCHAR 1ECA
ENCODING 7882
SWIDTH 305 0
DWIDTH 7 0
BBX 1 20 3 -4
BITMAP
80
80
80
80
80
80
80
80
80
80
80
80
80
80
80
80
00
00
80
80
ENDCHAR
STARTCHAR 1ECB
ENCODING 7883
SWIDTH 261 0
DWIDTH 6 0
BBX 2 21 2 -4
BITMAP
C0
C0
00
00
00
C0
C0
C0
C0
C0
C0
C0
C0
C0
C0
C0
C0
00
00
C0
C0
ENDCHAR
STARTCHAR 1ECC
ENCODING 7884
SWIDTH 829 0
DWIDTH 19 0
BBX 17 20 1 -4
BITMAP
03F000
0FFC00
380E00
300300
600300
400180
C00180
C00180
C00180
C00180
400180
600300
300300
380E00
0FFC00
03F000
000000
000000
008000
008000
ENDCHAR
STARTCHAR 1ECD
ENCODING 7885
SWIDTH 610 0
DWIDTH 14 0
BBX 12 16 1 -4
BITMAP
0F80
39C0
6060
4030
C030
C010
C010
C030
4030
6060
39C0
0F80
0000
0000
0600
0600
ENDCHAR
STARTCHAR 1ECE
ENCODING 7886
SWIDTH 829 0
DWIDTH 19 0
BBX 17 21 1 0
BITMAP
01C000
002000
002000
00C000
000000
03F000
0FFC00
380E00
300300
600300
400180
C00180
C00180
C00180
C00180
400180
600300
300300
380E00
0FFC00
03F000
ENDCHAR
STARTCHAR 1ECF
ENCODING 7887
SWIDTH 610 0
DWIDTH 14 0
BBX 12 18 1 0
BITMAP
0F00
0100
0100
0300
0000
0000
0F80
39C0
6060
4030
C030
C010
C010
C030
4030
6060
39C0
0F80
ENDCHAR
STARTCHAR 1ED0
ENCODING 7888
SWIDTH 829 0
DWIDTH 19 0
BBX 17 21 1 0
BITMAP
000E00
001800
01C000
023000
000000
03F000
0FFC00
380E00
300300
600300
400180
C00180
C00180
C00180
C00180
400180
600300
300300
380E00
0FFC00
03F000
ENDCHAR
STARTCHAR 1ED1
ENCODING 7889
SWIDTH 610 0
DWIDTH 14 0
BBX 12 18 1 0
BITMAP
0030
0060
0700
1980
0000
0000
0F80
39C0
6060
4030
C030
C010
C010
C030
4030
6060
39C0
0F80
ENDCHAR
STARTCHAR 1ED2
ENCODING 7890
SWIDTH 829 0
DWIDTH 19 0
BBX 17 21 1 0
BITMAP
007000
001800
01C000
023000
000000
03F000
0FFC00
380E00
300300
600300
400180
C00180
C00180
C00180
C00180
400180
600300
300300
380E00
0FFC00
03F000
ENDCHAR
STARTCHAR 1ED3
ENCODING 7891
SWIDTH 610 0
DWIDTH 14 0
BBX 12 18 1 0
BITMAP
0180
0040
0700
1980
0000
0000
0F80
39C0
6060
4030
C030
C010
C010
C030
4030
6060
39C0
0F80
ENDCHAR
STARTCHAR 1ED4
ENCODING 7892
SWIDTH 829 0
DWIDTH 19 0
BBX 17 22 1 0
BITMAP
003800
000800
000800
01C000
023000
000000
03F000
0FFC00
380E00
300300
600300
400180
C00180
C00180
C00180
C00180
400180
600300
300300
380E00
0FFC00
03F000
ENDCHAR
STARTCHAR 1ED5
ENCODING 7893
SWIDTH 610 0
DWIDTH 14 0
BBX 12 19 1 0
BITMAP
00C0
0020
0040
0700
1980
0000
0000
0F80
39C0
6060
4030
C030
C010
C010
C030
4030
6060
39C0
0F80
ENDCHAR
STARTCHAR 1ED6
ENCODING 7894
SWIDTH 829 0
DWIDTH 19 0
BBX 17 23 1 0
BITMAP
030000
049000
047000
000000
01C000
023000
000000
03F000
0FFC00
380E00
300300
600300
400180
C00180
C00180
C00180
C00180
400180
600300
300300
380E00
0FFC00
03F000
ENDCHAR
STARTCHAR 1ED7
ENCODING 7895
SWIDTH 610 0
DWIDTH 14 0
BBX 12 19 1 0
BITMAP
1C40
1380
0000
0700
1980
0000
0000
0F80
39C0
6060
4030
C030
C010
C010
C030
4030
6060
39C0
0F80
ENDCHAR
STARTCHAR 1ED8
ENCODING 7896
SWIDTH 829 0
DWIDTH 19 0
BBX 17 24 1 -4
BITMAP
01C000
036000
063000
000000
03F000
0FFC00
380E00
300300
600300
400180
C00180
C00180
C00180
C00180
400180
600300
300300
380E00
0FFC00
03F000
000000
000000
008000
008000
ENDCHAR
STARTCHAR 1ED9
ENCODING 7897
SWIDTH 610 0
DWIDTH 14 0
BBX 12 21 1 -4
BITMAP
0600
0D00
1080
0000
0000
0F80
39C0
6060
4030
C030
C010
C010
C030
4030
6060
39C0
0F80
0000
0000
0600
0600
ENDCHAR
STARTCHAR 1EDA
ENCODING 7898
SWIDTH 829 0
DWIDTH 19 0
BBX 17 20 1 0
BITMAP
003000
004100
008180
000180
03FF00
0FFC00
380E00
300300
600300
400180
C00180
C00180
C00180
C00180
400180
600300
300300
380E00
0FFC00
03F000
ENDCHAR
STARTCHAR 1EDB
ENCODING 7899
SWIDTH 610 0
DWIDTH 14 0
BBX 12 17 1 0
BITMAP
01C0
0310
0610
0010
0010
0FE0
39C0
6060
4030
C030
C010
C010
C030
4030
6060
39C0
0F80
ENDCHAR
STARTCHAR 1EDC
ENCODING 7900
SWIDTH 829 0
DWIDTH 19 0
BBX 17 20 1 0
BITMAP
070000
018100
00C180
000180
03FF00
0FFC00
380E00
300300
600300
400180
C00180
C00180
C00180
C00180
400180
600300
300300
380E00
0FFC00
03F000
ENDCHAR
STARTCHAR 1EDD
ENCODING 7901
SWIDTH 610 0
DWIDTH 14 0
BBX 12 17 1 0
BITMAP
1800
0C10
0610
0010
0010
0FE0
39C0
6060
4030
C030
C010
C010
C030
4030
6060
39C0
0F80
ENDCHAR
STARTCHAR 1EDE
ENCODING 7902
SWIDTH 829 0
DWIDTH 19 0
BBX 17 21 1 0
BITMAP
01C000
002000
002100
00C180
000180
03FF00
0FFC00
380E00
300300
600300
400180
C00180
C00180
C00180
C00180
400180
600300
300300
380E00
0FFC00
03F000
ENDCHAR
STARTCHAR 1EDF
ENCODING 7903
SWIDTH 610 0
DWIDTH 14 0
BBX 12 18 1 0
BITMAP
0F00
0100
0100
0310
0010
0010
0FE0
39C0
6060
4030
C030
C010
C010
C030
4030
6060
39C0
0F80
ENDCHAR
STARTCHAR 1EE0
ENCODING 7904
SWIDTH 829 0
DWIDTH 19 0
BBX 17 20 1 0
BITMAP
031000
049180
046180
000100
03FF00
0FFC00
380E00
300300
600300
400180
C00180
C00180
C00180
C00180
400180
600300
300300
380E00
0FFC00
03F000
ENDCHAR
STARTCHAR 1EE1
ENCODING 7905
SWIDTH 610 0
DWIDTH 14 0
BBX 12 16 1 0
BITMAP
1C40
12B0
0190
0010
0FE0
39C0
6060
4030
C030
C010
C010
C030
4030
6060
39C0
0F80
ENDCHAR
STARTCHAR 1EE2
ENCODING 7906
SWIDTH 829 0
DWIDTH 19 0
BBX 17 23 1 -3
BITMAP
000180
000180
000100
03FF00
0FFC00
380E00
300300
600300
400180
C00180
C00180
C00180
C00180
400180
600300
300300
380E00
0FFC00
03F000
000000
000000
008000
008000
ENDCHAR
STARTCHAR 1EE3
ENCODING 7907
SWIDTH 610 0
DWIDTH 14 0
BBX 12 19 1 -4
BITMAP
0010
0010
0010
0FE0
39C0
6060
4030
C030
C010
C010
C030
4030
6060
39C0
0F80
0000
0000
0600
0600
ENDCHAR
STARTCHAR 1EE4
ENCODING 7908
SWIDTH 785 0
DWIDTH 18 0
BBX 14 20 2 -4
BITMAP
C00C
C00C
C00C
C00C
C00C
C00C
C00C
C00C
C00C
C00C
400C
4008
6018
3030
3FF0
0FC0
0000
0000
0300
0300
ENDCHAR
STARTCHAR 1EE5
ENCODING 7909
SWIDTH 654 0
DWIDTH 15 0
BBX 11 16 2 -4
BITMAP
C060
C060
C060
C060
C060
C060
C060
C060
C060
60E0
7BA0
1F20
0000
0000
0400
0600
ENDCHAR
STARTCHAR 1EE6
ENCODING 7910
SWIDTH 785 0
DWIDTH 18 0
BBX 14 22 2 0
BITMAP
0700
0080
0080
0080
0100
0000
C00C
C00C
C00C
C00C
C00C
C00C
C00C
C00C
C00C
C00C
400C
4008
6018
3030
3FF0
0FC0
ENDCHAR
STARTCHAR 1EE7
ENCODING 7911
SWIDTH 654 0
DWIDTH 15 0
BBX 11 18 2 0
BITMAP
0E00
0100
0100
0200
0000
0000
C060
C060
C060
C060
C060
C060
C060
C060
C060
60E0
7BA0
1F20
ENDCHAR
STARTCHAR 1EE8
ENCODING 7912
SWIDTH 785 0
DWIDTH 18 0
BBX 16 20 2 0
BITMAP
00C0
0183
0301
0003
C00E
C00C
C00C
C00C
C00C
C00C
C00C
C00C
C00C
C00C
400C
4008
6018
3030
3FF0
0FC0
ENDCHAR
STARTCHAR 1EE9
ENCODING 7913
SWIDTH 698 0
DWIDTH 16 0
BBX 13 17 2 0
BITMAP
0180
0308
0408
0008
0008
C070
C060
C060
C060
C060
C060
C060
C060
C060
60E0
7BA0
1F20
ENDCHAR
STARTCHAR 1EEA
ENCODING 7914
SWIDTH 785 0
DWIDTH 18 0
BBX 16 20 2 0
BITMAP
0C00
0603
0101
0003
C00E
C00C
C00C
C00C
C00C
C00C
C00C
C00C
C00C
C00C
400C
4008
6018
3030
3FF0
0FC0
ENDCHAR
STARTCHAR 1EEB
ENCODING 7915
SWIDTH 698 0
DWIDTH 16 0
BBX 13 17 2 0
BITMAP
3000
0808
0608
0008
0008
C070
C060
C060
C060
C060
C060
C060
C060
C060
60E0
7BA0
1F20
ENDCHAR
STARTCHAR 1EEC
ENCODING 7916
SWIDTH 785 0
DWIDTH 18 0
BBX 16 22 2 0
BITMAP
0700
0080
0080
0081
0101
0003
C00E
C00C
C00C
C00C
C00C
C00C
C00C
C00C
C00C
C00C
400C
4008
6018
3030
3FF0
0FC0
ENDCHAR
STARTCHAR 1EED
ENCODING 7917
SWIDTH 698 0
DWIDTH 16 0
BBX 13 18 2 0
BITMAP
0E00
0100
0100
0208
0008
0008
C070
C060
C060
C060
C060
C060
C060
C060
C060
60E0
7BA0
1F20
ENDCHAR
STARTCHAR 1EEE
ENCODING 7918
SWIDTH 785 0
DWIDTH 18 0
BBX 16 20 2 0
BITMAP
0E20
0941
00C1
0003
C00E
C00C
C00C
C00C
C00C
C00C
C00C
C00C
C00C
C00C
400C
4008
6018
3030
3FF0
0FC0
ENDCHAR
STARTCHAR 1EEF
ENCODING 7919
SWIDTH 698 0
DWIDTH 16 0
BBX 13 17 2 0
BITMAP
1880
2488
2308
0008
0008
C070
C060
C060
C060
C060
C060
C060
C060
C060
60E0
7BA0
1F20
ENDCHAR
STARTCHAR 1EF0
ENCODING 7920
SWIDTH 785 0
DWIDTH 18 0
BBX 16 23 2 -4
BITMAP
0001
0001
0003
C00E
C00C
C00C
C00C
C00C
C00C
C00C
C00C
C00C
C00C
400C
4008
6018
3030
3FF0
0FC0
0000
0000
0300
0300
ENDCHAR
STARTCHAR 1EF1
ENCODING 7921
SWIDTH 698 0
DWIDTH 16 0
BBX 13 19 2 -4
BITMAP
0008
0008
0008
C070
C060
C060
C060
C060
C060
C060
C060
C060
60E0
7BA0
1F20
0000
0000
0400
0600
ENDCHAR
STARTCHAR 1EF2
ENCODING 7922
SWIDTH 654 0
DWIDTH 15 0
BBX 14 20 0 0
BITMAP
0C00
0600
0100
0000
C004
600C
2018
3010
1830
1860
0C60
04C0
0680
0380
0300
0300
0300
0300
0300
0300
ENDCHAR
STARTCHAR 1EF3
ENCODING 7923
SWIDTH 523 0
DWIDTH 12 0
BBX 12 22 0 -5
BITMAP
3800
0C00
0600
0000
0000
C010
4030
6020
2060
3040
30C0
18C0
1880
0980
0D00
0700
0600
0600
0600
0C00
D800
F000
ENDCHAR
STARTCHAR 1EF4
ENCODING 7924
SWIDTH 654 0
DWIDTH 15 0
BBX 14 20 0 -4
BITMAP
C004
600C
2018
3010
1830
1860
0C60
04C0
0680
0380
0300
0300
0300
0300
0300
0300
0000
0000
0300
0300
ENDCHAR
STARTCHAR 1EF5
ENCODING 7925
SWIDTH 523 0
DWIDTH 12 0
BBX 12 17 0 -5
BITMAP
C010
4030
6020
2060
3040
30C0
18C0
1880
0980
0D00
0700
0600
0600
0600
0C00
D8C0
F0C0
ENDCHAR
STARTCHAR 1EF6
ENCODING 7926
SWIDTH 654 0
DWIDTH 15 0
BBX 14 22 0 0
BITMAP
0380
0080
0080
0080
0100
0000
C004
600C
2018
3010
1830
1860
0C60
04C0
0680
0380
0300
0300
0300
0300
0300
0300
ENDCHAR
STARTCHAR 1EF7
ENCODING 7927
SWIDTH 523 0
DWIDTH 12 0
BBX 12 23 0 -5
BITMAP
0E00
0100
0100
0200
0000
0000
C010
4030
6020
2060
3040
30C0
18C0
1880
0980
0D00
0700
0600
0600
0600
0C00
D800
F000
ENDCHAR
STARTCHAR 1EF8
ENCODING 7928
SWIDTH 654 0
DWIDTH 15 0
BBX 14 20 0 0
BITMAP
0E20
0960
00C0
0000
C004
600C
2018
3010
1830
1860
0C60
04C0
0680
0380
0300
0300
0300
0300
0300
0300
ENDCHAR
STARTCHAR 1EF9
ENCODING 7929
SWIDTH 523 0
DWIDTH 12 0
BBX 12 22 0 -5
BITMAP
1C80
3680
2380
0000
0000
C010
4030
6020
2060
3040
30C0
18C0
1880
0980
0D00
0700
0600
0600
0600
0C00
D800
F000
ENDCHAR
STARTCHAR 2007
ENCODING 8199
SWIDTH 698 0
DWIDTH 16 0
BBX 0 0 0 0
BITMAP
ENDCHAR
STARTCHAR 2008
ENCODING 8200
SWIDTH 218 0
DWIDTH 5 0
BBX 0 0 0 0
BITMAP
ENDCHAR
STARTCHAR 2009
ENCODING 8201
SWIDTH 130 0
DWIDTH 3 0
BBX 0 0 0 0
BITMAP
ENDCHAR
STARTCHAR 200A
ENCODING 8202
SWIDTH 87 0
DWIDTH 2 0
BBX 0 0 0 0
BITMAP
ENDCHAR
STARTCHAR 200B
ENCODING 8203
SWIDTH 0 0
DWIDTH 0 0
BBX 0 0 0 0
BITMAP
ENDCHAR
STARTCHAR 2010
ENCODING 8208
SWIDTH 392 0
DWIDTH 9 0
BBX 6 1 1 6
BITMAP
FC
ENDCHAR
STARTCHAR 2012
ENCODING 8210
SWIDTH 698 0
DWIDTH 16 0
BBX 14 1 1 8
BITMAP
FFFC
ENDCHAR
STARTCHAR 2013
ENCODING 8211
SWIDTH 480 0
DWIDTH 11 0
BBX 11 1 0 6
BITMAP
FFE0
ENDCHAR
STARTCHAR 2014
ENCODING 8212
SWIDTH 1003 0
DWIDTH 23 0
BBX 23 1 0 6
BITMAP
FFFFFE
ENDCHAR
STARTCHAR 2015
ENCODING 8213
SWIDTH 1003 0
DWIDTH 23 0
BBX 23 1 0 6
BITMAP
FFFFFE
ENDCHAR
STARTCHAR 2018
ENCODING 8216
SWIDTH 218 0
DWIDTH 5 0
BBX 3 6 1 11
BITMAP
40
40
40
C0
E0
40
ENDCHAR
STARTCHAR 2019
ENCODING 8217
SWIDTH 218 0
DWIDTH 5 0
BBX 3 6 1 11
BITMAP
C0
E0
40
40
40
80
ENDCHAR
STARTCHAR 201A
ENCODING 8218
SWIDTH 218 0
DWIDTH 5 0
BBX 3 5 1 -3
BITMAP
E0
E0
40
40
C0
ENDCHAR
STARTCHAR 201C
ENCODING 8220
SWIDTH 392 0
DWIDTH 9 0
BBX 7 6 1 11
BITMAP
44
44
44
CC
EE
44
ENDCHAR
STARTCHAR 201D
ENCODING 8221
SWIDTH 392 0
DWIDTH 9 0
BBX 7 6 1 11
BITMAP
CC
EE
44
44
4C
88
ENDCHAR
STARTCHAR 201E
ENCODING 8222
SWIDTH 392 0
DWIDTH 9 0
BBX 7 5 1 -3
BITMAP
EE
EC
44
44
CC
ENDCHAR
STARTCHAR 2020
ENCODING 8224
SWIDTH 567 0
DWIDTH 13 0
BBX 11 21 1 -5
BITMAP
0C00
0C00
0C00
0C00
0C00
0C00
FFE0
0C00
0C00
0C00
0C00
0C00
0C00
0C00
0C00
0C00
0C00
0C00
0C00
0C00
0C00
ENDCHAR
STARTCHAR 2021
ENCODING 8225
SWIDTH 567 0
DWIDTH 13 0
BBX 11 21 1 -5
BITMAP
0C00
0C00
0C00
0C00
0C00
0C00
FFE0
0C00
0C00
0C00
0C00
0C00
0C00
0C00
FFE0
0C00
0C00
0C00
0C00
0C00
0C00
ENDCHAR
STARTCHAR 2022
ENCODING 8226
SWIDTH 305 0
DWIDTH 7 0
BBX 3 3 2 5
BITMAP
E0
E0
E0
ENDCHAR
STARTCHAR 2026
ENCODING 8230
SWIDTH 654 0
DWIDTH 15 0
BBX 13 2 1 0
BITMAP
E738
C630
ENDCHAR
STARTCHAR 2030
ENCODING 8240
SWIDTH 1178 0
DWIDTH 27 0
BBX 25 16 1 0
BITMAP
38040000
440C0000
82080000
82100000
82300000
82200000
82400000
44CE0E00
39911100
0120B080
0220A080
0620A080
0420A080
0820B080
18111180
100E0E00
ENDCHAR
STARTCHAR 2032
ENCODING 8242
SWIDTH 218 0
DWIDTH 5 0
BBX 1 6 2 10
BITMAP
80
80
80
80
80
80
ENDCHAR
STARTCHAR 2033
ENCODING 8243
SWIDTH 392 0
DWIDTH 9 0
BBX 5 6 2 10
BITMAP
88
88
88
88
88
88
ENDCHAR
STARTCHAR 2039
ENCODING 8249
SWIDTH 305 0
DWIDTH 7 0
BBX 5 9 1 2
BITMAP
18
10
20
60
C0
40
20
30
18
ENDCHAR
STARTCHAR 203A
ENCODING 8250
SWIDTH 305 0
DWIDTH 7 0
BBX 5 9 1 2
BITMAP
C0
40
60
30
18
10
20
60
C0
ENDCHAR
STARTCHAR 2044
ENCODING 8260
SWIDTH 174 0
DWIDTH 4 0
BBX 12 16 -4 0
BITMAP
0030
0020
0040
00C0
0080
0100
0300
0200
0400
0C00
0800
1000
3000
6000
4000
8000
ENDCHAR
STARTCHAR 2052
ENCODING 8274
SWIDTH 523 0
DWIDTH 12 0
BBX 8 16 2 0
BITMAP
C2
C2
04
04
0C
08
08
18
10
10
30
20
20
60
43
43
ENDCHAR
STARTCHAR 2070
ENCODING 8304
SWIDTH 436 0
DWIDTH 10 0
BBX 8 10 1 7
BITMAP
3C
46
83
81
81
81
81
83
46
3C
ENDCHAR
STARTCHAR 2074
ENCODING 8308
SWIDTH 436 0
DWIDTH 10 0
BBX 8 9 1 8
BITMAP
08
18
30
20
44
84
FF
04
04
ENDCHAR
STARTCHAR 2075
ENCODING 8309
SWIDTH 436 0
DWIDTH 10 0
BBX 8 10 1 7
BITMAP
7E
40
40
40
7C
02
03
03
82
7C
ENDCHAR
STARTCHAR 2076
ENCODING 8310
SWIDTH 436 0
DWIDTH 10 0
BBX 8 10 1 7
BITMAP
1E
60
40
80
BE
C3
C1
C1
43
3C
ENDCHAR
STARTCHAR 2077
ENCODING 8311
SWIDTH 436 0
DWIDTH 10 0
BBX 8 10 1 7
BITMAP
FF
83
82
06
04
0C
08
18
10
20
ENDCHAR
STARTCHAR 2078
ENCODING 8312
SWIDTH 436 0
DWIDTH 10 0
BBX 8 10 1 7
BITMAP
7C
C3
81
C3
3C
C3
81
81
C3
7C
ENDCHAR
STARTCHAR 2079
ENCODING 8313
SWIDTH 436 0
DWIDTH 10 0
BBX 8 10 1 7
BITMAP
7C
C6
83
83
C7
79
03
02
06
F8
ENDCHAR
STARTCHAR 2080
ENCODING 8320
SWIDTH 436 0
DWIDTH 10 0
BBX 8 10 1 -3
BITMAP
3C
42
83
81
81
81
81
83
46
3C
ENDCHAR
STARTCHAR 2081
ENCODING 8321
SWIDTH 436 0
DWIDTH 10 0
BBX 6 10 2 -3
BITMAP
F0
10
10
10
10
10
10
10
10
FC
ENDCHAR
STARTCHAR 2082
ENCODING 8322
SWIDTH 436 0
DWIDTH 10 0
BBX 8 10 1 -3
BITMAP
7C
86
02
02
06
0C
18
30
40
FF
ENDCHAR
STARTCHAR 2083
ENCODING 8323
SWIDTH 436 0
DWIDTH 10 0
BBX 8 10 1 -3
BITMAP
FE
04
0C
18
1C
02
03
03
82
7C
ENDCHAR
STARTCHAR 2084
ENCODING 8324
SWIDTH 436 0
DWIDTH 10 0
BBX 8 9 1 -3
BITMAP
08
18
30
20
44
84
FF
04
04
ENDCHAR
STARTCHAR 2085
ENCODING 8325
SWIDTH 436 0
DWIDTH 10 0
BBX 8 10 1 -3
BITMAP
7E
40
40
40
7C
02
03
03
82
7C
ENDCHAR
STARTCHAR 2086
ENCODING 8326
SWIDTH 436 0
DWIDTH 10 0
BBX 8 10 1 -3
BITMAP
3E
60
C0
80
BE
C3
C1
C1
43
3C
ENDCHAR
STARTCHAR 2087
ENCODING 8327
SWIDTH 436 0
DWIDTH 10 0
BBX 8 10 1 -3
BITMAP
FF
83
82
06
04
0C
08
18
10
30
ENDCHAR
STARTCHAR 2088
ENCODING 8328
SWIDTH 436 0
DWIDTH 10 0
BBX 8 10 1 -3
BITMAP
7C
C3
81
C2
3C
C3
81
81
C3
7E
ENDCHAR
STARTCHAR 2089
ENCODING 8329
SWIDTH 436 0
DWIDTH 10 0
BBX 8 10 1 -3
BITMAP
7C
C6
83
83
C7
79
03
02
06
F8
ENDCHAR
STARTCHAR 20A1
ENCODING 8353
SWIDTH 698 0
DWIDTH 16 0
BBX 14 22 1 -3
BITMAP
00C8
0088
0088
07F0
1FFC
3914
6120
6120
4120
C220
C240
C240
C640
4440
6480
3480
3C8C
1FFC
0FF0
0900
1900
1100
ENDCHAR
STARTCHAR 20A3
ENCODING 8355
SWIDTH 654 0
DWIDTH 15 0
BBX 13 16 1 0
BITMAP
3FF8
3000
3000
3000
3000
3000
3000
3000
3FF0
3000
3000
3000
FF80
3000
3000
3000
ENDCHAR
STARTCHAR 20A4
ENCODING 8356
SWIDTH 654 0
DWIDTH 15 0
BBX 13 16 1 0
BITMAP
03F0
0FF8
1808
1000
3000
3000
FFC0
3000
3000
FFC0
3000
3000
3000
3000
3000
FFF8
ENDCHAR
STARTCHAR 20A6
ENCODING 8358
SWIDTH 872 0
DWIDTH 20 0
BBX 18 16 1 0
BITMAP
300300
380300
3C0300
3C0300
360300
330300
FFFFC0
31C300
30C300
FFFFC0
303300
301B00
300F00
300F00
300700
300300
ENDCHAR
STARTCHAR 20A7
ENCODING 8359
SWIDTH 1614 0
DWIDTH 37 0
BBX 33 16 3 0
BITMAP
FF80000000
83C0C00000
8060C00000
8030C00000
8033F83F00
8030C06380
8030C0C000
8030C0C000
8060C0C000
83C0C07E00
FF80C00780
8000C00180
8000C00080
8000C08180
800065E380
80003C7E00
ENDCHAR
STARTCHAR 20A9
ENCODING 8361
SWIDTH 1178 0
DWIDTH 27 0
BBX 25 16 1 0
BITMAP
C0180180
401C0100
601C0300
60340300
20360200
30220600
FFFFFF80
10630C00
18410C00
FFFFFF80
0C819800
0D809800
0D80D000
0700F000
07007000
03006000
ENDCHAR
STARTCHAR 20AB
ENCODING 8363
SWIDTH 698 0
DWIDTH 16 0
BBX 15 20 1 -3
BITMAP
0010
0010
03FE
0010
0010
0F10
39D0
6070
4030
C030
C010
C010
C030
4030
6070
39D0
0F10
0000
0000
7FF0
ENDCHAR
STARTCHAR 20AC
ENCODING 8364
SWIDTH 785 0
DWIDTH 18 0
BBX 16 16 1 0
BITMAP
01FC
07FF
0E03
1800
1800
3000
FFF0
3000
3000
FFF0
3000
1800
1C00
0E03
07FE
01FC
ENDCHAR
STARTCHAR 20AD
ENCODING 8365
SWIDTH 610 0
DWIDTH 14 0
BBX 13 16 1 0
BITMAP
3018
3030
3060
30C0
3180
3300
3600
FFF0
3600
3300
3300
3180
30C0
3060
3030
3018
ENDCHAR
STARTCHAR 20AE
ENCODING 8366
SWIDTH 654 0
DWIDTH 15 0
BBX 13 16 1 0
BITMAP
FFF8
0300
0300
0300
0310
0360
0380
0710
1B60
2380
0700
1B00
2300
0300
0300
0300
ENDCHAR
STARTCHAR 20B1
ENCODING 8369
SWIDTH 829 0
DWIDTH 19 0
BBX 17 16 1 0
BITMAP
3FE000
307800
300C00
FFFF80
300600
300600
300600
FFFF80
300C00
307800
3FE000
300000
300000
300000
300000
300000
ENDCHAR
STARTCHAR 20B2
ENCODING 8370
SWIDTH 785 0
DWIDTH 18 0
BBX 15 22 1 -3
BITMAP
0080
0080
0080
03F0
1FFC
3884
6080
6080
4080
C080
C080
C086
C086
4086
6086
3086
3886
0FFC
03F0
0080
0080
0080
ENDCHAR
STARTCHAR 20B4
ENCODING 8372
SWIDTH 829 0
DWIDTH 19 0
BBX 15 16 2 0
BITMAP
0FC0
3EF0
0018
0018
0018
0018
FFFE
0000
0000
FFFE
3000
2000
2000
3008
1EF8
0FE0
ENDCHAR
STARTCHAR 20B5
ENCODING 8373
SWIDTH 698 0
DWIDTH 16 0
BBX 14 22 1 -3
BITMAP
0080
0080
0080
07F0
1FFC
3884
6080
6080
4080
C080
C080
C080
C080
4080
6080
3080
388C
0FFC
07F0
0080
0080
0080
ENDCHAR
STARTCHAR 20B8
ENCODING 8376
SWIDTH 698 0
DWIDTH 16 0
BBX 13 16 2 0
BITMAP
FFF8
0000
0000
FFF8
0600
0600
0600
0600
0600
0600
0600
0600
0600
0600
0600
0600
ENDCHAR
STARTCHAR 20B9
ENCODING 8377
SWIDTH 698 0
DWIDTH 16 0
BBX 14 16 1 0
BITMAP
FFFC
00C0
0060
FFFC
0030
0030
0030
0060
00E0
3F80
0100
0180
00C0
0040
0060
0030
ENDCHAR
STARTCHAR 20BA
ENCODING 8378
SWIDTH 698 0
DWIDTH 16 0
BBX 14 16 1 0
BITMAP
3000
3000
30C0
3300
3C00
30C0
F300
3C00
380C
700C
B00C
3018
3018
3030
33E0
3F80
ENDCHAR
STARTCHAR 20BC
ENCODING 8380
SWIDTH 916 0
DWIDTH 21 0
BBX 15 19 3 0
BITMAP
0100
0100
0100
07E0
1FF0
3118
610C
C106
C106
8102
8102
8102
8102
8102
8102
8102
8002
8002
8002
ENDCHAR
STARTCHAR 20BD
ENCODING 8381
SWIDTH 741 0
DWIDTH 17 0
BBX 15 16 1 0
BITMAP
3FE0
3078
300C
3004
3006
3006
3006
300C
301C
3FF0
3000
3000
FF80
3000
3000
3000
ENDCHAR
STARTCHAR 2113
ENCODING 8467
SWIDTH 480 0
DWIDTH 11 0
BBX 9 16 1 0
BITMAP
0700
0980
1880
1080
1100
1100
3200
2600
2C00
3800
2000
6000
A000
2180
2300
1C00
ENDCHAR
STARTCHAR 2116
ENCODING 8470
SWIDTH 1221 0
DWIDTH 28 0
BBX 23 16 3 0
BITMAP
801878
C018C6
E01982
B01902
981982
981886
8C1878
861800
831800
8398FE
819800
80D800
807800
803800
803800
801800
ENDCHAR
STARTCHAR 2122
ENCODING 8482
SWIDTH 1003 0
DWIDTH 23 0
BBX 21 10 0 6
BITMAP
FF2018
083018
083828
082828
082448
082488
082288
082108
082008
082008
ENDCHAR
STARTCHAR 2126
ENCODING 8486
SWIDTH 916 0
DWIDTH 21 0
BBX 20 16 0 0
BITMAP
01F800
07FE00
0E0380
180180
1800C0
300040
300060
300060
300060
300060
300040
1800C0
180180
0C0380
070600
FF07F0
ENDCHAR
STARTCHAR 212A
ENCODING 8490
SWIDTH 698 0
DWIDTH 16 0
BBX 13 16 3 0
BITMAP
8030
8060
80C0
8180
8300
8600
8C00
9C00
BE00
F700
E300
C180
80C0
8060
8030
8018
ENDCHAR
STARTCHAR 212B
ENCODING 8491
SWIDTH 698 0
DWIDTH 16 0
BBX 16 22 0 0
BITMAP
01C0
0240
0220
0240
0180
0000
0180
01C0
0340
0260
0660
0630
0C30
0C10
1818
1808
100C
3FFC
2006
6006
6003
C003
ENDCHAR
STARTCHAR 212E
ENCODING 8494
SWIDTH 872 0
DWIDTH 20 0
BBX 18 16 1 0
BITMAP
03F000
0C0C00
100300
200180
600180
6001C0
E001C0
E001C0
FFFE00
E00000
600000
600000
200000
100300
080400
07F800
ENDCHAR
STARTCHAR 2153
ENCODING 8531
SWIDTH 1047 0
DWIDTH 24 0
BBX 20 16 2 0
BITMAP
F00300
100200
100400
100C00
101800
101000
1027F0
106020
FC4040
008080
0181E0
010030
020010
060010
040430
0803E0
ENDCHAR
STARTCHAR 2154
ENCODING 8532
SWIDTH 1047 0
DWIDTH 24 0
BBX 21 16 1 0
BITMAP
7C0180
860100
020200
020600
0C0C00
180800
3013F8
603010
FF2020
004040
00C0F0
008018
010008
030008
020218
0401F0
ENDCHAR
STARTCHAR 215B
ENCODING 8539
SWIDTH 1047 0
DWIDTH 24 0
BBX 21 16 2 0
BITMAP
F00300
100200
100400
100C00
101800
101000
1023E0
106610
FC4418
008410
0183E0
010610
020C08
060C08
040410
0803E0
ENDCHAR
STARTCHAR 215C
ENCODING 8540
SWIDTH 1047 0
DWIDTH 24 0
BBX 22 16 1 0
BITMAP
FE0180
040100
0C0200
180600
1C0C00
020800
0311F0
823318
C62208
7C420C
00C308
0081F0
01020C
030604
02020C
0401F0
ENDCHAR
STARTCHAR 215D
ENCODING 8541
SWIDTH 1047 0
DWIDTH 24 0
BBX 22 16 1 0
BITMAP
7E0180
400100
400200
400600
7C0C00
020800
0311F0
823208
7C220C
004308
00C1F0
008308
010604
030604
020208
0401F0
ENDCHAR
STARTCHAR 215E
ENCODING 8542
SWIDTH 1047 0
DWIDTH 24 0
BBX 22 16 1 0
BITMAP
FF0180
830100
820200
060600
040C00
080800
0811F0
103308
30220C
004208
00C1F0
008308
010604
030604
020208
0401F0
ENDCHAR
STARTCHAR 2190
ENCODING 8592
SWIDTH 610 0
DWIDTH 14 0
BBX 9 9 3 2
BITMAP
3000
2000
4000
C000
FF80
C000
4000
6000
3000
ENDCHAR
STARTCHAR 2191
ENCODING 8593
SWIDTH 610 0
DWIDTH 14 0
BBX 9 10 2 1
BITMAP
0C00
1E00
7F00
CC80
0C00
0C00
0C00
0C00
0C00
0C00
ENDCHAR
STARTCHAR 2192
ENCODING 8594
SWIDTH 610 0
DWIDTH 14 0
BBX 9 9 2 2
BITMAP
0400
0200
0300
0180
FF80
0180
0300
0200
0600
ENDCHAR
STARTCHAR 2193
ENCODING 8595
SWIDTH 610 0
DWIDTH 14 0
BBX 9 9 3 1
BITMAP
1800
1800
1800
1800
1800
1880
D980
7E00
3C00
ENDCHAR
STARTCHAR 2194
ENCODING 8596
SWIDTH 698 0
DWIDTH 16 0
BBX 13 9 1 2
BITMAP
1860
3020
2010
6018
FFF8
4018
6010
3030
1060
ENDCHAR
STARTCHAR 2195
ENCODING 8597
SWIDTH 610 0
DWIDTH 14 0
BBX 9 13 2 1
BITMAP
0C00
3F00
6D80
8C80
0C00
0C00
0C00
0C00
0C00
CC80
7F00
1E00
0C00
ENDCHAR
STARTCHAR 2196
ENCODING 8598
SWIDTH 610 0
DWIDTH 14 0
BBX 8 8 3 3
BITMAP
0E
78
E0
F0
98
8C
86
03
ENDCHAR
STARTCHAR 2197
ENCODING 8599
SWIDTH 610 0
DWIDTH 14 0
BBX 8 8 3 3
BITMAP
38
5E
07
0F
19
31
61
C0
ENDCHAR
STARTCHAR 2198
ENCODING 8600
SWIDTH 610 0
DWIDTH 14 0
BBX 8 8 3 2
BITMAP
C0
61
31
19
0D
07
1E
78
ENDCHAR
STARTCHAR 2199
ENCODING 8601
SWIDTH 610 0
DWIDTH 14 0
BBX 8 8 3 2
BITMAP
03
86
8C
98
F0
E0
78
1E
ENDCHAR
STARTCHAR 2202
ENCODING 8706
SWIDTH 698 0
DWIDTH 16 0
BBX 12 16 2 0
BITMAP
7F80
01C0
0060
0020
0030
0030
1F10
79D0
C050
C030
8030
8030
C020
C060
71C0
1F00
ENDCHAR
STARTCHAR 2205
ENCODING 8709
SWIDTH 567 0
DWIDTH 13 0
BBX 11 10 1 3
BITMAP
1F20
31C0
61C0
4240
4440
4840
7040
3180
5F00
8000
ENDCHAR
STARTCHAR 2206
ENCODING 8710
SWIDTH 698 0
DWIDTH 16 0
BBX 16 16 0 0
BITMAP
0180
01C0
0340
0260
0660
0630
0C30
0C10
1818
1808
100C
3004
2006
6006
4003
FFFF
ENDCHAR
STARTCHAR 220F
ENCODING 8719
SWIDTH 829 0
DWIDTH 19 0
BBX 13 21 3 -5
BITMAP
FFF8
FFF8
8018
8018
8018
8018
8018
8018
8018
8018
8018
8018
8018
8018
8018
8018
8018
8018
8018
8018
8018
ENDCHAR
STARTCHAR 2211
ENCODING 8721
SWIDTH 654 0
DWIDTH 15 0
BBX 13 21 1 -5
BITMAP
FFF8
6000
6000
3000
1800
0C00
0600
0600
0300
0180
0080
0180
0300
0600
0E00
0C00
1800
3000
6000
C000
FFF8
ENDCHAR
STARTCHAR 2212
ENCODING 8722
SWIDTH 567 0
DWIDTH 13 0
BBX 10 1 2 8
BITMAP
FFC0
ENDCHAR
STARTCHAR 2215
ENCODING 8725
SWIDTH 349 0
DWIDTH 8 0
BBX 8 22 0 -3
BITMAP
01
01
03
02
02
06
04
04
0C
08
18
18
10
30
30
20
60
40
40
C0
80
80
ENDCHAR
STARTCHAR 2219
ENCODING 8729
SWIDTH 261 0
DWIDTH 6 0
BBX 2 2 2 6
BITMAP
C0
C0
ENDCHAR
STARTCHAR 221A
ENCODING 8730
SWIDTH 785 0
DWIDTH 18 0
BBX 16 22 2 -5
BITMAP
0003
0003
0002
0006
0006
0004
000C
000C
0008
F018
1018
1810
0830
0C30
0C20
0460
0660
0640
02C0
03C0
0380
0180
ENDCHAR
STARTCHAR 221E
ENCODING 8734
SWIDTH 916 0
DWIDTH 21 0
BBX 19 8 1 4
BITMAP
3E0F80
6190C0
C0A060
806020
806020
C0A060
6190C0
3E0F80
ENDCHAR
STARTCHAR 222B
ENCODING 8747
SWIDTH 392 0
DWIDTH 9 0
BBX 10 22 -1 -5
BITMAP
03C0
0640
0400
0400
0400
0400
0400
0400
0400
0400
0400
0400
0400
0400
0400
0400
0400
0400
0400
0C00
DC00
7800
ENDCHAR
STARTCHAR 2248
ENCODING 8776
SWIDTH 567 0
DWIDTH 13 0
BBX 11 8 1 4
BITMAP
3820
4C40
C3C0
0000
0000
3820
4C40
C3C0
ENDCHAR
STARTCHAR 2260
ENCODING 8800
SWIDTH 567 0
DWIDTH 13 0
BBX 10 12 2 2
BITMAP
0100
0300
0200
FFC0
0400
0C00
0800
1000
FFC0
2000
6000
4000
ENDCHAR
STARTCHAR 2264
ENCODING 8804
SWIDTH 567 0
DWIDTH 13 0
BBX 10 13 2 0
BITMAP
00C0
0780
3C00
E000
C000
7000
1E00
0380
00C0
0000
0000
0000
FFC0
ENDCHAR
STARTCHAR 2265
ENCODING 8805
SWIDTH 567 0
DWIDTH 13 0
BBX 10 13 2 0
BITMAP
C000
F000
1E00
0380
01C0
0700
3C00
E000
8000
0000
0000
0000
FFC0
ENDCHAR
STARTCHAR 25A0
ENCODING 9632
SWIDTH 610 0
DWIDTH 14 0
BBX 9 9 2 2
BITMAP
FF80
FF80
FF80
FF80
FF80
FF80
FF80
FF80
FF80
ENDCHAR
STARTCHAR 25A1
ENCODING 9633
SWIDTH 610 0
DWIDTH 14 0
BBX 9 9 2 2
BITMAP
FF80
8080
8080
8080
8080
8080
8080
8080
FF80
ENDCHAR
STARTCHAR 25B2
ENCODING 9650
SWIDTH 610 0
DWIDTH 14 0
BBX 10 10 2 1
BITMAP
0800
0C00
0C00
1E00
1E00
3F00
3F00
7F80
7F80
FFC0
ENDCHAR
STARTCHAR 25B3
ENCODING 9651
SWIDTH 610 0
DWIDTH 14 0
BBX 10 9 2 2
BITMAP
0C00
0C00
1200
1200
2100
2100
4080
4080
FFC0
ENDCHAR
STARTCHAR 25B6
ENCODING 9654
SWIDTH 610 0
DWIDTH 14 0
BBX 9 9 3 1
BITMAP
8000
E000
F800
FE00
FF80
FF00
FC00
F000
C000
ENDCHAR
STARTCHAR 25B7
ENCODING 9655
SWIDTH 610 0
DWIDTH 14 0
BBX 9 9 3 1
BITMAP
8000
E000
9800
8600
8180
8300
8C00
B000
C000
ENDCHAR
STARTCHAR 25BC
ENCODING 9660
SWIDTH 610 0
DWIDTH 14 0
BBX 10 9 2 1
BITMAP
FFC0
7F80
7F80
3F00
3F00
1E00
1E00
0C00
0C00
ENDCHAR
STARTCHAR 25BD
ENCODING 9661
SWIDTH 610 0
DWIDTH 14 0
BBX 10 9 2 1
BITMAP
FFC0
4080
4080
2100
2100
1200
1200
0C00
0C00
ENDCHAR
STARTCHAR 25C0
ENCODING 9664
SWIDTH 610 0
DWIDTH 14 0
BBX 9 9 2 1
BITMAP
0080
0380
0F80
3F80
FF80
7F80
1F80
0780
0180
ENDCHAR
STARTCHAR 25C1
ENCODING 9665
SWIDTH 610 0
DWIDTH 14 0
BBX 9 9 2 1
BITMAP
0080
0380
0C80
3080
C080
4080
3080
0E80
0180
ENDCHAR
STARTCHAR 25C6
ENCODING 9670
SWIDTH 610 0
DWIDTH 14 0
BBX 12 12 1 1
BITMAP
0600
0F00
1F80
3FC0
7FE0
FFF0
FFE0
7FC0
3F80
1F00
0E00
0400
ENDCHAR
STARTCHAR 25C7
ENCODING 9671
SWIDTH 610 0
DWIDTH 14 0
BBX 12 12 1 1
BITMAP
0600
0B00
1180
20C0
4020
8010
C020
6040
3080
1900
0E00
0400
ENDCHAR
STARTCHAR 25CA
ENCODING 9674
SWIDTH 480 0
DWIDTH 11 0
BBX 9 14 1 1
BITMAP
0800
0C00
1400
3200
2100
4100
C080
C080
4100
2300
3200
1400
0C00
0800
ENDCHAR
STARTCHAR 27E8
ENCODING 10216
SWIDTH 305 0
DWIDTH 7 0
BBX 5 22 1 -5
BITMAP
08
18
10
10
30
20
20
60
40
40
C0
C0
C0
40
60
20
20
30
10
10
18
08
ENDCHAR
STARTCHAR 27E9
ENCODING 10217
SWIDTH 305 0
DWIDTH 7 0
BBX 5 22 1 -5
BITMAP
C0
40
40
60
20
20
30
10
10
18
08
08
18
10
10
30
20
20
60
40
40
C0
ENDCHAR
STARTCHAR A78B
ENCODING 42891
SWIDTH 261 0
DWIDTH 6 0
BBX 2 9 2 7
BITMAP
C0
C0
C0
C0
C0
80
80
80
80
ENDCHAR
STARTCHAR A78C
ENCODING 42892
SWIDTH 261 0
DWIDTH 6 0
BBX 2 8 2 7
BITMAP
C0
C0
C0
80
80
80
80
80
ENDCHAR
STARTCHAR FB01
ENCODING 64257
SWIDTH 698 0
DWIDTH 16 0
BBX 14 17 0 0
BITMAP
0F0C
190C
1000
1000
1000
FF08
1008
1008
1008
1008
1008
1008
1008
1008
1008
1008
1008
ENDCHAR
STARTCHAR FB02
ENCODING 64258
SWIDTH 610 0
DWIDTH 14 0
BBX 12 17 0 0
BITMAP
0F30
1930
1030
1030
1030
FF30
1030
1030
1030
1030
1030
1030
1030
1030
1030
1030
1030
ENDCHAR
ENDFONT
